<?xml version="1.0" standalone="no"?>
<!DOCTYPE svg PUBLIC "-//W3C//DTD SVG 1.1//EN" "http://www.w3.org/Graphics/SVG/1.1/DTD/svg11.dtd" >
<svg>
<metadata>
Created by FontForge 20090914 at Sat Jan 23 13:17:09 2021
 By www-data
Copyright (c) 1994 ImageLine Incorporated. All Rights Reserved.
</metadata>
<defs>
<font id="BelindaType67SupCon" horiz-adv-x="186" >
  <font-face 
    font-family="Belinda"
    font-weight="5"
    font-stretch="normal"
    units-per-em="1000"
    panose-1="0 0 0 0 0 0 0 0 0 0"
    ascent="800"
    descent="-200"
    x-height="344.998"
    cap-height="785"
    bbox="-109 -494.996 852.997 1109.99"
    underline-thickness="20"
    underline-position="-123"
    unicode-range="U+0020-U+2122"
  />
<missing-glyph horiz-adv-x="800" 
d="M50 0v800h700v-800h-700zM700 50v700h-600v-700h600z" />
    <glyph glyph-name=".notdef" horiz-adv-x="800" 
d="M50 0v800h700v-800h-700zM700 50v700h-600v-700h600z" />
    <glyph glyph-name="space" unicode=" " horiz-adv-x="200" 
 />
    <glyph glyph-name="exclam" unicode="!" horiz-adv-x="164" 
d="M49 98c-2.66699 -2 -5.5 -1.66602 -8.5 1.00098s-5.5 6.66699 -7.5 12l-5 33c12 79.333 24.5 153.833 37.5 223.5s27.5 141.5 43.5 215.5c8.66699 41.333 25 113.333 49 216c6 3.33301 11.833 1.16602 17.5 -6.50098s7.5 -16.5 5.5 -26.5
c-10 -44.667 -25.667 -120.5 -47 -227.5l-43.5 -221.5zM38 0.000976562l-21 3.99902c-5.33301 12.667 -8 24.667 -8 36c0 13.333 3.66699 22.333 11 27c6.66699 4 13 1 19 -9s8.33301 -20 7 -30c0 -6 -0.333008 -10 -1 -12c-2.66699 -5.33301 -5 -10.666 -7 -15.999z" />
    <glyph glyph-name="quotedbl" unicode="&#x22;" horiz-adv-x="155" 
d="M32 637c-4 4 -6.50195 10 -7.50195 18s-1.83301 14.333 -2.5 19l65 131h13l9 -42c-13.333 -25.333 -25.666 -47.5 -36.999 -66.5s-24.666 -38.833 -39.999 -59.5zM94.998 622c-4 4 -6.50195 10 -7.50195 18s-1.83301 14.333 -2.5 19l65 131h13l9 -42
c-13.333 -25.333 -25.666 -47.5 -36.999 -66.5s-24.666 -38.833 -39.999 -59.5zM108.996 763c-13.333 -25.333 -25.668 -47.5 -37.001 -66.5s-24.666 -38.833 -39.999 -59.5zM171.994 748c-13.333 -25.333 -25.668 -47.5 -37.001 -66.5s-24.666 -38.833 -39.999 -59.5z" />
    <glyph glyph-name="numbersign" unicode="#" horiz-adv-x="272" 
d="M206 702l7.99805 -6.00293c-8 -25.333 -12 -54 -12 -86c8 -1.33301 15.667 -2.33301 23 -3s15.333 -1 24 -1c12 0 21.5 0.833008 28.5 2.5s13.833 4.83398 20.5 9.50098l4 -13c-12.667 -8 -30.667 -12 -54 -12c-7.33301 0 -15.666 0.5 -24.999 1.5
s-16.333 1.83301 -21 2.5l-3 -123c6 2.66699 19.167 4.5 39.5 5.5s35.166 2.83301 44.499 5.5l1 -14c-7.33301 -2 -21.666 -3.66699 -42.999 -5s-35.666 -3.33301 -42.999 -6l-1 -10v-84h-9v85l2 7l-87 -1c0 -16.667 0.166992 -28 0.5 -34s2.83301 -28 7.5 -66l-8 -2
l-6 51.5c-2 17.667 -3 34.5 -3 50.5h-63v14h63c0 22 0.333008 44 1 66s2 43.333 4 64c-36.667 -3.33301 -58 -5.66602 -64 -6.99902s-14.333 -5.66602 -25 -12.999l-3 12c8.66699 6 18.334 10.5 29.001 13.5s32 5.83301 64 8.5c2.66699 30.667 6.66699 58 12 82l7 -4
c-2 -10.667 -4.16699 -23.667 -6.5 -39s-3.5 -28 -3.5 -38l16 2c9.33301 0 21.166 -1 35.499 -3s25.5 -3.33301 33.5 -4c0 34.667 4 65 12 91zM193.998 596.997c-12.667 1.33301 -25.833 2.83301 -39.5 4.5s-23.167 2.5 -28.5 2.5l-19 -2
c0 -14.667 -0.666992 -39.334 -2 -74.001s-2 -53.667 -2 -57h87c0 12.667 0.666992 35.834 2 69.501s2 52.5 2 56.5z" />
    <glyph glyph-name="dollar" unicode="$" horiz-adv-x="190" 
d="M172 585c-10 7.33301 -17.3301 12.3301 -21.9971 14.9971c-9.33301 6 -17 8 -23 6c-5.33301 -36 -10.333 -71.667 -15 -107c0 -18 2.33301 -36.333 7 -55c24.667 -26 42.334 -54.667 53.001 -86c6 -23.333 9 -45 9 -65c0 -19.333 -2.83301 -37.333 -8.5 -54
s-13.834 -30.667 -24.501 -42l-65 -25l-17 -172h-8c-2.66699 7.33301 -4.33398 14.5 -5.00098 21.5s-1 15.5 -1 25.5c0 14 0.666992 27 2 39c4.66699 40.667 7 62 7 64c0 19.333 -3 36.333 -9 51s-17.333 29.334 -34 44.001l-10 46c5.33301 4 13.666 -1.5 24.999 -16.5
s19.666 -22.833 24.999 -23.5c7.33301 8.66699 11.666 24.667 12.999 48c4.66699 65.333 7.33398 99.333 8.00098 102c-15.333 21.333 -27.333 43.166 -36 65.499s-13 45.5 -13 69.5c-0.666992 4.66699 -1.16699 9.66699 -1.5 15s-0.5 9.33301 -0.5 12
c0 30.667 14.333 56.667 43 78s43 48.333 43 81c0 22.667 1.33301 41.334 4 56.001s8.33398 22 17.001 22c0 -8.66699 -1.16699 -24.667 -3.5 -48s-3.5 -40.666 -3.5 -51.999s0.333008 -19.333 1 -24s2 -11.667 4 -21l21 -16
c7.33301 -5.33301 14.666 -11.666 21.999 -18.999c2 -6 3 -11.667 3 -17c0 -8.66699 -2.33301 -14.667 -7 -18zM77.0029 589.997c-2 -5.33301 -4 -12.332 -6 -20.999s-3 -16.667 -3 -24c0 -16.667 3.66699 -32.334 11 -47.001h6c0 4.66699 1.66699 18 5 40
c1.33301 8.66699 2 17.334 2 26.001c0 11.333 -1.66699 21.666 -5 30.999zM105.003 371.998l-10.999 -127.001l16 -8c9.33301 6 17 13.833 23 23.5s9 22.167 9 37.5c0 10 -1.33301 20.333 -4 31c-4.66699 8.66699 -9 17.334 -13 26.001
c-6.66699 10 -13.334 15.667 -20.001 17z" />
    <glyph glyph-name="percent" unicode="%" horiz-adv-x="378" 
d="M130 557c-10.667 -12.667 -22.666 -19 -35.999 -19c-20.667 0 -37.334 14.667 -50.001 44c-6.66699 17.333 -10 37 -10 59c0 36 8.33301 63.333 25 82c11.333 12 23 18 35 18c22 0 38.667 -14.333 50 -43c8 -18 12 -38 12 -60c0 -33.333 -8.66699 -60.333 -26 -81z
M182.001 421l-41.9971 -194.998c-18 -77.333 -36 -136.333 -54 -177l-10 12c18 39.333 35.667 97 53 173l43 195c8 34.667 20.667 74 38 118c45.333 114 69.666 176.667 72.999 188c-10 -4.66699 -18.5 -8.33398 -25.5 -11.001s-15.833 -4 -26.5 -4
c-14.667 0 -27.167 1.16699 -37.5 3.5s-22.166 6.16602 -35.499 11.499l2 20c13.333 -4.66699 21.666 -7.66699 24.999 -9c13.333 -4 28.666 -6 45.999 -6c11.333 0 22.666 2.33301 33.999 7c14.667 7.33301 27.667 13.333 39 18zM322.004 92.002
c-10.667 -12.667 -22.666 -19 -35.999 -19c-20.667 0 -37.334 14.667 -50.001 44c-6.66699 17.333 -10 37 -10 59c0 36 8.33301 63.333 25 82c11.333 12 23 18 35 18c22 0 38.667 -14.333 50 -43c8 -18 12 -38 12 -60c0 -33.333 -8.66699 -60.333 -26 -81zM67.0049 707.002
c-6.66699 -7.33301 -12 -17.168 -16 -29.501s-6 -25.166 -6 -38.499c0 -16.667 3 -31.667 9 -45c10 -24 23.333 -36 40 -36c10.667 0 20 5 28 15c14 16 21 38.667 21 68c0 16.667 -3 31.667 -9 45c-9.33301 23.333 -23 35 -41 35c-9.33301 0 -18 -4.66699 -26 -14z
M259.005 242c-6.66699 -7.33301 -12 -17.168 -16 -29.501s-6 -25.166 -6 -38.499c0 -16.667 3 -31.667 9 -45c10 -24 23.333 -36 40 -36c10.667 0 20 5 28 15c14 16 21 38.667 21 68c0 16.667 -3 31.667 -9 45c-9.33301 23.333 -23 35 -41 35
c-9.33301 0 -18 -4.66699 -26 -14z" />
    <glyph glyph-name="ampersand" unicode="&#x26;" horiz-adv-x="545" 
d="M515 318c-12 -9.33301 -24.4951 -16.0039 -37.4951 -20.0039s-26.833 -6 -41.5 -6c-16 0 -33.667 2 -53 6l-8 -12c9.33301 -11.333 16 -28.166 20 -50.499s6.33301 -37.166 7 -44.499c-11.333 -60 -33 -107 -65 -141s-70.333 -51 -115 -51c-16.667 0 -34.667 3 -54 9
c-27.333 14 -53 38.167 -77 72.5s-42 73.833 -54 118.5l-12 101c8.66699 57.333 24.167 107.333 46.5 150s50.166 73 83.499 91c-4.66699 20.667 -7 40.667 -7 60c0 25.333 4 49.666 12 72.999c1.33301 4.66699 10.333 25.667 27 63c14 18.667 30.333 33.834 49 45.501
s38 17.5 58 17.5c20.667 0 41.334 -6.33301 62.001 -19l28 -44c2.66699 -12.667 4 -25 4 -37c0 -15.333 -2 -28.666 -6 -39.999s-14.333 -28.333 -31 -51c-4.66699 -5.33301 -9.16699 -5.83301 -13.5 -1.5s-6.5 10.5 -6.5 18.5c0 11.333 3 21.333 9 30
c8.66699 12 13.667 21.667 15 29s2 14 2 20c0 11.333 -2 22 -6 32c-16.667 14.667 -34 22 -52 22c-16.667 0 -34 -6.66699 -52 -20c-12.667 -9.33301 -26.334 -23 -41.001 -41c-8.66699 -16.667 -15 -31.667 -19 -45c-6 -18.667 -9 -37.667 -9 -57c0 -10.667 1 -23 3 -37
l10 -10h21c25.333 0 45.333 -2.33301 60 -7c22.667 -7.33301 41.334 -21.333 56.001 -42c8.66699 -15.333 13 -31.666 13 -48.999c0 -5.33301 -0.333008 -9.33301 -1 -12c-5.33301 -20.667 -17.666 -31 -36.999 -31c-9.33301 0 -19 1.33301 -29 4
c-13.333 4.66699 -23.5 7.83398 -30.5 9.50098s-24.833 19.5 -53.5 53.5c-12 14 -22.333 20.333 -31 19c-32 -37.333 -54 -66.333 -66 -87c-23.333 -40 -35 -83.333 -35 -130c0 -18 2 -38 6 -60c9.33301 -51.333 26.666 -92.666 51.999 -123.999
c15.333 -18 31.666 -31.167 48.999 -39.5s35.666 -12.5 54.999 -12.5c26 0 48.333 7.33301 67 22c22.667 17.333 40.334 36.666 53.001 57.999c18 29.333 27 61.666 27 96.999c0 12 -1 25 -3 39c-8.66699 13.333 -18 22.833 -28 28.5s-21 8.5 -33 8.5
c-9.33301 0 -16.333 -0.666992 -21 -2s-13.334 -4.66602 -26.001 -9.99902c-13.333 -13.333 -24 -25.333 -32 -36c-10 -14 -18 -31 -24 -51h-13c-2.66699 8.66699 -4 18 -4 28c0 19.333 6.66699 38 20 56c4 5.33301 15.667 17.666 35 36.999
c10.667 8.66699 22.167 14.5 34.5 17.5s27.166 4.5 44.499 4.5c12 0 30 -1.33301 54 -4s42 -4 54 -4c21.333 0 39.166 3 53.499 9s27.166 17.333 38.499 34c2 -8 3 -15.667 3 -23c0 -10 -1.66699 -20.667 -5 -32zM304.005 481.996
c-23.333 19.333 -46.999 29.001 -70.999 29.001c-12.667 0 -23 -4.33301 -31 -13c3.33301 -5.33301 8.66602 -10.666 15.999 -15.999c14.667 -11.333 23.667 -19.333 27 -24l48 -14c10 0 16.667 6 20 18c-0.666992 3.33301 -2 6.66602 -4 9.99902
s-3.66699 6.66602 -5 9.99902z" />
    <glyph glyph-name="quotesingle" unicode="'" horiz-adv-x="98" 
d="M32 637c-4 4 -6.50195 10 -7.50195 18s-1.83301 14.333 -2.5 19l65 131h13l9 -42c-13.333 -25.333 -25.666 -47.5 -36.999 -66.5s-24.666 -38.833 -39.999 -59.5zM108.998 763c-13.333 -25.333 -25.668 -47.5 -37.001 -66.5s-24.666 -38.833 -39.999 -59.5z" />
    <glyph glyph-name="parenleft" unicode="(" horiz-adv-x="131" 
d="M62 4c-2.66699 -4.66699 -6.33203 -5.33301 -10.999 -2s-9 8 -13 14c-12.667 44 -21 88.833 -25 134.5s-6 96.5 -6 152.5c0 100 9.5 192.5 28.5 277.5s47.833 158.167 86.5 219.5c5.33301 1.33301 10.166 -2 14.499 -10s7.5 -14.333 9.5 -19
c-34 -70 -60.167 -147.333 -78.5 -232s-27.5 -176 -27.5 -274c0 -85.333 7.33301 -172.333 22 -261z" />
    <glyph glyph-name="parenright" unicode=")" horiz-adv-x="133" 
d="M42 40c-4.66699 -12.667 -8.33398 -21.667 -11.001 -27c-5.33301 -10.667 -11.666 -14.667 -18.999 -12l-7 23c51.333 140 77 300 77 480c0 95.333 -7.33301 193 -22 293c0.666992 3.33301 2.5 4 5.5 2s5.83301 -4 8.5 -6c10 -17.333 16.667 -39.5 20 -66.5
s6.33301 -52.5 9 -76.5c0 -110.667 -1 -195.167 -3 -253.5s-7.16699 -117.333 -15.5 -177s-22.5 -119.5 -42.5 -179.5z" />
    <glyph glyph-name="asterisk" unicode="*" horiz-adv-x="130" 
d="M94 617c10 -0.666992 17.334 -1.00098 22.001 -1.00098c4 0 7.33301 0.333008 10 1l1 -10c-2.66699 -0.666992 -5.16699 -1 -7.5 -1h-4.5c-8 0.666992 -15 1 -21 1l-23 -1l42 -55l-3 -8c-8 8 -16.667 18.333 -26 31l-16 21l6 -75l-6 -1l-5 73c-2 -4 -8 -16.667 -18 -38
l-12 -25l-5 6l16 36c2.66699 6 8.66699 17 18 33c-10 -2 -19.5 -4.66699 -28.5 -8l-23.5 -9l-1 10l46 16l-29 32l3 9l32 -37l-3 50v13h6v-12l3 -53l17.5 22.5c4.33301 5.66699 9.83301 11.167 16.5 16.5l3 -9c-8.66699 -7.33301 -17.334 -16.666 -26.001 -27.999h16z" />
    <glyph glyph-name="plus" unicode="+" horiz-adv-x="114" 
d="M72 482l10.998 -9.99512c-2.66699 -7.33301 -4.66699 -13.333 -6 -18s-3.66602 -14.334 -6.99902 -29.001c6 -1.33301 12.333 -2.33301 19 -3c9.33301 -2.66699 18 -7.33398 26 -14.001l-5 -18c-5.33301 4.66699 -11.666 8.16699 -18.999 10.5s-15 4.16602 -23 5.49902
l-3 -37v-35l-12 2v33l3 39c-10.667 1.33301 -19.667 2.5 -27 3.5s-13.333 2.16699 -18 3.5l3 20c4.66699 -1.33301 12.5 -2.83301 23.5 -4.5s17.833 -2.83398 20.5 -3.50098c3.33301 19.333 8 37.666 14 54.999z" />
    <glyph glyph-name="comma" unicode="," horiz-adv-x="111" 
d="M22 -85c-8 0 -13.332 6.66699 -15.999 20l-3 16l64 124c5.33301 0 9.66602 -5.33301 12.999 -16s5 -20.667 5 -30z" />
    <glyph glyph-name="hyphen" unicode="-" horiz-adv-x="193" 
d="M38 355l-4 20c27.333 12.667 56 23 86 31l92 24l2 -20l-92 -24.5c-30.667 -8.33301 -58.667 -18.5 -84 -30.5z" />
    <glyph glyph-name="period" unicode="." horiz-adv-x="131" 
d="M77 8c-14.667 0 -27.332 6.00195 -37.999 18.002c-13.333 14.667 -20 35 -20 61c-4 8 -6 14 -6 18c0 4.66699 2.5 10 7.5 16s7.83301 10.667 8.5 14c12 2 24.167 -0.333008 36.5 -7s21.666 -17.834 27.999 -33.501s9.5 -28.834 9.5 -39.501s-2.16699 -19.667 -6.5 -27
s-10.833 -14 -19.5 -20z" />
    <glyph glyph-name="slash" unicode="/" horiz-adv-x="204" 
d="M152 581c-16 -54 -33.166 -108.664 -51.499 -163.997l-55.5 -169c-18.667 -57.333 -35 -113 -49 -167l-10 8c14.667 56.667 31 113.667 49 171l53 163c29.333 87.333 47.666 144.166 54.999 170.499s22 63.166 44 110.499c17.333 37.333 27.333 59.666 30 66.999l10 -12z
" />
    <glyph glyph-name="zero" unicode="0" horiz-adv-x="334" 
d="M184 1c-4 -0.666992 -10.332 -0.999023 -18.999 -0.999023c-15.333 0 -28.666 2.33301 -39.999 7s-22.333 14.667 -33 30c-28.667 41.333 -48.834 86.833 -60.501 136.5s-17.5 102.834 -17.5 159.501c0 31.333 0.666992 55.666 2 72.999s4.66602 46.333 9.99902 87
c24 94.667 42.667 158 56 190c28.667 68 65 107 109 117c14 0 28.333 -6 43 -18s26 -28 34 -48c14 -48.667 23.667 -101.667 29 -159c3.33301 -38.667 5 -89 5 -151v-75c0 -82 -9 -152.333 -27 -211c-20.667 -66.667 -51 -112.334 -91 -137.001zM146.001 700.001
c-26 -52 -46.001 -104.667 -60.001 -158c-16 -61.333 -24 -123.333 -24 -186c0 -42.667 3.16699 -83.167 9.5 -121.5s17.166 -80.5 32.499 -126.5c6.66699 -16 15.334 -27.5 26.001 -34.5s22.334 -10.5 35.001 -10.5c5.33301 0 9.33301 0.333008 12 1
c15.333 12 28 28.833 38 50.5s17.333 47.167 22 76.5c7.33301 47.333 13.5 94.666 18.5 141.999s7.5 93.666 7.5 138.999c0 38.667 -1.66699 77.334 -5 116.001s-9.33301 78.334 -18 119.001c-6 12.667 -12.5 22.167 -19.5 28.5s-13.833 9.5 -20.5 9.5
c-8.66699 0 -18.667 -5.33301 -30 -16c-7.33301 -7.33301 -15.333 -17 -24 -29z" />
    <glyph glyph-name="one" unicode="1" horiz-adv-x="166" 
d="M42 2c-4.66699 -3.33301 -10.167 -2.16797 -16.5 3.49902s-11.833 12.834 -16.5 21.501c0 64 5.66699 129.667 17 197c5.33301 30.667 18.333 92.667 39 186c17.333 78.667 29.666 142 36.999 190c4 14 8.33301 31.833 13 53.5s8 42.167 10 61.5
c-2 3.33301 -8.16699 6.5 -18.5 9.5s-14.833 10.833 -13.5 23.5c22.667 10.667 43.334 27.667 62.001 51c4 2 8.83301 1.66699 14.5 -1s10.5 -9.33398 14.5 -20.001c-14 -76.667 -30.667 -163 -50 -259l-50 -255c-15.333 -83.333 -29.333 -170.666 -42 -261.999z" />
    <glyph glyph-name="two" unicode="2" horiz-adv-x="418" 
d="M372 61c-5.33301 -12 -12.1689 -21.166 -20.502 -27.499s-17.166 -9.5 -26.499 -9.5c-18 0 -41.667 10.667 -71 32l-70 54l-51 -71c-21.333 -26 -42.666 -39 -63.999 -39c-6.66699 0 -15 1.66699 -25 5c-16.667 25.333 -25 53.666 -25 84.999c0 27.333 5 49.333 15 66
s23.333 29.667 40 39c7.33301 4 15 6 23 6c8.66699 0 21.834 -2.83301 39.501 -8.5s29.5 -8.5 35.5 -8.5c2.66699 0 6.66699 0.666992 12 2l63 136c26.667 58.667 46 106.667 58 144c18 55.333 30.667 112.333 38 171l-4 54c-3.33301 21.333 -9.66602 39 -18.999 53
c-12 12 -23.667 18 -35 18c-12 0 -24.5 -6.66699 -37.5 -20l-36.5 -38c-23.333 -34 -42.666 -69 -57.999 -105c-17.333 -41.333 -29 -83.666 -35 -126.999c-5.33301 -1.33301 -11 1.66699 -17 9s-9 16 -9 26c11.333 80 32 145.333 62 196
c33.333 56.667 74.666 89 123.999 97c12.667 2.66699 26.5 -2.5 41.5 -15.5s28.167 -30.167 39.5 -51.5c6.66699 -20.667 11.334 -40 14.001 -58s4 -35.667 4 -53c0 -40 -9 -87 -27 -141c-14.667 -44 -23 -70 -25 -78c-38.667 -92 -61 -144.333 -67 -157
c-12.667 -26.667 -28.334 -56.334 -47.001 -89.001c7.33301 -13.333 18.666 -26 33.999 -38c12.667 -10 25.667 -19.667 39 -29c11.333 -6.66699 22 -10 32 -10c19.333 0 38.666 15.333 57.999 46l27 44c1.33301 -9.33301 2 -16 2 -20c0 -17.333 -5.33301 -37 -16 -59
c-5.33301 -10 -10.333 -20 -15 -30zM48.9971 97.001c0 -3.33301 -0.667969 -6.66602 -2.00098 -9.99902c-3.33301 -8.66699 -5 -14.334 -5 -17.001c0 -4.66699 2 -10 6 -16c5.33301 -1.33301 9.33301 -2 12 -2c16 0 31.667 8.66699 47 26c10 12 22.333 31 37 57
c-12 8 -23.667 12 -35 12c-12 0 -23.167 -4.66699 -33.5 -14s-19.166 -21.333 -26.499 -36z" />
    <glyph glyph-name="three" unicode="3" horiz-adv-x="363" 
d="M144 0c-18 5.33301 -33.6719 13 -47.0049 23c-15.333 12 -29.5 28.667 -42.5 50s-22.667 47.166 -29 77.499s-9.5 59.166 -9.5 86.499c3.33301 26 6.5 47.667 9.5 65s9.5 26 19.5 26c4 -10 6 -20.667 6 -32c0 -8 -1.33301 -20 -4 -36s-4 -28 -4 -36
c4 -33.333 8 -57.666 12 -72.999c6.66699 -28 16.334 -50.333 29.001 -67c8.66699 -11.333 17.5 -19.5 26.5 -24.5s18.5 -7.5 28.5 -7.5c13.333 0 28 4.33301 44 13c1.33301 0.666992 14 8.66699 38 24c30.667 38.667 51.334 73.5 62.001 104.5s16 62.5 16 94.5
c0 17.333 -1 33.5 -3 48.5s-6 32.167 -12 51.5c-7.33301 16 -13.666 27.5 -18.999 34.5s-10 10.5 -14 10.5c-5.33301 0 -13.666 -9.83301 -24.999 -29.5s-22 -28.5 -32 -26.5c-8 -3.33301 -16.333 -5 -25 -5c-8 0 -15.5 1.5 -22.5 4.5s-13.5 8.33301 -19.5 16
s-10.5 17.334 -13.5 29.001s-4.5 23.5 -4.5 35.5v11c14 32 37 48 69 48c13.333 0 25.166 -2.66699 35.499 -8l30.5 -16c2.66699 0 5 2.33301 7 7c12.667 27.333 22 50.333 28 69c10 29.333 15 57.333 15 84c0 25.333 -4.33301 52 -13 80c-6.66699 7.33301 -13 12.333 -19 15
s-12.333 4 -19 4c-10.667 0 -21.667 -3.33301 -33 -10c-3.33301 -2 -12.666 -9.33301 -27.999 -22l-28 -50c-9.33301 -16.667 -17 -34 -23 -52c-6.66699 2.66699 -11.167 6.5 -13.5 11.5s-3.5 11.5 -3.5 19.5c0 6 0.333008 11.833 1 17.5l2 17.5c10 30.667 24.333 57 43 79
c22 25.333 44.667 38 68 38c12 0 24.167 -3.5 36.5 -10.5s24.833 -18.167 37.5 -33.5c8.66699 -18 15.5 -36.167 20.5 -54.5s6.83301 -34.833 5.5 -49.5c0 -32 -6.66699 -65.667 -20 -101c-18 -48.667 -28.333 -78 -31 -88c14 -25.333 25.667 -49.5 35 -72.5
s16.333 -48.833 21 -77.5c0 -86 -17.167 -158.333 -51.5 -217s-80.166 -90.667 -137.499 -96zM132.995 439c2 -5.33301 4.00098 -10.333 6.00098 -15c8.66699 -4.66699 17.334 -7 26.001 -7c11.333 0 21.666 3.66699 30.999 11s17 17 23 29
c-12.667 10.667 -25.334 16 -38.001 16c-10 0 -19 -3 -27 -9s-15 -14.333 -21 -25z" />
    <glyph glyph-name="four" unicode="4" horiz-adv-x="370" 
d="M298 247c-10 -39.333 -19.3301 -80.666 -27.9971 -123.999s-15.667 -84.333 -21 -123l-24 7c-1.33301 7.33301 -2.33301 15.5 -3 24.5s-1 17.5 -1 25.5c0 21.333 2.33301 45.666 7 72.999c10.667 62.667 16 100 16 112l-18 15c-28 -4.66699 -58.167 -11.667 -90.5 -21
l-94.5 -27c-6.66699 11.333 -11.834 23.333 -15.501 36s-5.5 25.334 -5.5 38.001c0 5.33301 0.333008 9.33301 1 12c40 105.333 91 201.666 153 288.999c58.667 82.667 125.334 154.334 200.001 215.001c12 4 22.333 -4 31 -24l-31 -150l-33 -154
c-12.667 -62.667 -21.667 -114.334 -27 -155.001c5.33301 -4 23.666 -9 54.999 -15c22.667 -4 36.667 -18.667 42 -44c-6.66699 -4 -14.834 -6.66699 -24.501 -8s-19.834 -2 -30.501 -2h-38h-20zM71.0029 300l3 -16.999l179 28c16 48.667 32.333 111 49 187
c4 18.667 17.333 85 40 199c-50.667 -47.333 -99.667 -106 -147 -176c-42 -62.667 -83.333 -136.334 -124 -221.001z" />
    <glyph glyph-name="five" unicode="5" horiz-adv-x="334" 
d="M159 648l-25.001 -147.001l34.5 10.5c12.333 3.66699 22.833 5.5 31.5 5.5c11.333 0 22.333 -2.5 33 -7.5s20.667 -13.167 30 -24.5c21.333 -25.333 35.333 -61.666 42 -108.999c3.33301 -24 5 -62 5 -114c-16.667 -76.667 -34.334 -134.334 -53.001 -173.001
c-29.333 -60 -65.333 -90 -108 -90c-12.667 0 -26.667 3 -42 9c-17.333 10.667 -33 28.667 -47 54c-9.33301 16 -20.666 42.333 -33.999 79c-0.666992 6 -2.5 19.667 -5.5 41s-4.5 37.666 -4.5 48.999c0 6.66699 0.5 12.167 1.5 16.5s4.83301 6.83301 11.5 7.5
s11 2.33398 13 5.00098l10.5 -97c3 -26.667 11.167 -49.667 24.5 -69c8.66699 -12.667 18.834 -22.167 30.501 -28.5s23.5 -9.5 35.5 -9.5c4 0 7 0.333008 9 1c36 20 65.5 55.833 88.5 107.5s34.5 111.5 34.5 179.5c0 17.333 -1 35 -3 53c-3.33301 14 -8.5 26 -15.5 36
s-15.833 19 -26.5 27c-10 4.66699 -20 7 -30 7c-17.333 0 -36.5 -10.833 -57.5 -32.5l-32.5 -33.5c-8 5.33301 -13.333 9.33301 -16 12c-6 6.66699 -9 15.334 -9 26.001l-4 30c18.667 110.667 42.334 209 71.001 295c30 14.667 54.333 24.5 73 29.5s36 7.5 52 7.5
c13.333 0 27.666 -2 42.999 -6l11 -21l3 -12c-12 -8.66699 -44.167 -15.167 -96.5 -19.5s-78.5 -35.833 -78.5 -94.5z" />
    <glyph glyph-name="six" unicode="6" horiz-adv-x="308" 
d="M97 520c9.33301 5.33301 19.668 9.99902 31.001 13.999s22.333 6 33 6s21 -2.16699 31 -6.5s19.667 -11.833 29 -22.5c19.333 -22 34.5 -49 45.5 -81s16.5 -64.333 16.5 -97c0 -76.667 -11 -146.5 -33 -209.5s-53 -104.167 -93 -123.5c-16 0 -33 7 -51 21
s-33.333 31.667 -46 53c-16.667 38 -28.5 75 -35.5 111s-10.5 73.333 -10.5 112c0 37.333 3 75 9 113c2.66699 14.667 9.66699 48.334 21 101.001c33.333 112 68.666 189.667 105.999 233c32 37.333 68.667 56 110 56c8 0 14 -0.333008 18 -1l18 -25l2 -7
c-50 0 -92.333 -24.667 -127 -74c-27.333 -39.333 -52 -97 -74 -173zM150.002 483.999c-30 -13.333 -52.668 -42.668 -68.001 -88.001s-23 -98 -23 -158c0 -24 1 -47.667 3 -71l23 -60c10 -24 22 -39.333 36 -46c5.33301 -1.33301 9 -2 11 -2c12 0 24 7 36 21l29 35l22 69
c15.333 52 23 97.667 23 137c0 36.667 -5.66699 74.334 -17 113.001c-7.33301 15.333 -16.666 28 -27.999 38s-23 15 -35 15c-4 0 -8 -1 -12 -3z" />
    <glyph glyph-name="seven" unicode="7" horiz-adv-x="231" 
d="M254 728c-39.333 -117.333 -76.665 -236.666 -111.998 -357.999s-68.333 -244.666 -99 -369.999c-11.333 6.66699 -21.666 20.667 -30.999 42c0 35.333 7.66699 76.666 23 123.999c18.667 58.667 29.667 98 33 118l68 226c25.333 83.333 49.666 157.666 72.999 222.999
l-11 9l-178 -40c-4 12 -6 23.333 -6 34c0 14.667 3.33301 24.334 10 29.001c24.667 10.667 55.167 18.167 91.5 22.5l105.5 12.5c5.33301 -0.666992 11.666 -5.33398 18.999 -14.001c3.33301 -4 8.66602 -11.667 15.999 -23z" />
    <glyph glyph-name="eight" unicode="8" horiz-adv-x="311" 
d="M206 430c4.66699 -10.667 15.9951 -33.666 33.9951 -68.999c25.333 -50 38 -92.333 38 -127c2 -16 3 -31.333 3 -46c0 -40.667 -7.66699 -76.834 -23 -108.501s-34.666 -55.167 -57.999 -70.5c-9.33301 -6.66699 -20.666 -10 -33.999 -10
c-35.333 0 -67.333 18.333 -96 55c-21.333 26.667 -37.333 61 -48 103c-2.66699 12 -4.66699 25.833 -6 41.5s-2 29.834 -2 42.501c0 34 4.83301 64.167 14.5 90.5s23.834 50.166 42.501 71.499c24.667 16.667 47.334 35.667 68.001 57c-15.333 27.333 -28 57 -38 89
s-15 62 -15 90c0 38.667 7.5 73.5 22.5 104.5s34.5 49.5 58.5 55.5c5.33301 1.33301 9.66602 2 12.999 2c28.667 0 54.667 -19.667 78 -59c12.667 -16.667 21.334 -36 26.001 -58s7 -46 7 -72c-3.33301 -38 -13.333 -73.333 -30 -106
c-13.333 -26 -31.666 -51.333 -54.999 -76zM178.995 742.001c-16 -6.66699 -28.502 -21.499 -37.502 -44.499s-13.5 -50.833 -13.5 -83.5v-18c1.33301 -8 2 -14 2 -18c2 -4.66699 6.83301 -20.334 14.5 -47.001s17.167 -45 28.5 -55c13.333 10.667 23 19 29 25
c12 10.667 20.833 24.667 26.5 42s9.83398 31.666 12.501 42.999c6 22 9 40 9 54c0 20.667 -4.66699 42.334 -14 65.001c-6 14.667 -14.167 25 -24.5 31s-21.166 8 -32.499 6zM160.993 407.002c-24.667 -16.667 -45 -34.668 -61 -54.001
c-20.667 -25.333 -35.334 -54.333 -44.001 -87c-1.33301 -13.333 -2.33301 -23.666 -3 -30.999s-1 -14.333 -1 -21c0 -20 1.83301 -38.667 5.5 -56s10.167 -34.333 19.5 -51c12.667 -16.667 23.667 -29.334 33 -38.001c14 -12.667 26.667 -19 38 -19
c26 0 47.333 14.333 64 43c12.667 22.667 22.334 54.667 29.001 96c0 39.333 -7.5 78.833 -22.5 118.5s-34.167 72.834 -57.5 99.501z" />
    <glyph glyph-name="nine" unicode="9" horiz-adv-x="261" 
d="M124 25c-16 -16.667 -35.668 -24.999 -59.001 -24.999c-6.66699 0 -11.667 0.333008 -15 1c-1.33301 2 -2.66602 5.5 -3.99902 10.5s-2.66602 10.833 -3.99902 17.5c42.667 26.667 79.334 68.667 110.001 126c26.667 50 49.667 114 69 192l-3 4
c-11.333 -14 -23.166 -24.833 -35.499 -32.5s-26.833 -11.5 -43.5 -11.5c-6.66699 0 -14 1 -22 3c-17.333 8.66699 -33.666 22.334 -48.999 41.001c-17.333 22 -29.5 44.667 -36.5 68s-11.833 44.666 -14.5 63.999s-4 39 -4 59c0 50 9.66699 97 29 141
c15.333 35.333 36.666 67.666 63.999 96.999c15.333 13.333 33.666 20 54.999 20c24 0 44 -9 60 -27c4.66699 -12 8 -20 10 -24s4.66699 -4.33301 8 -1c18 -30 31 -62.333 39 -97s12 -70.667 12 -108c0 -23.333 -1.33301 -47.5 -4 -72.5s-6.33398 -52.5 -11.001 -82.5
c-12.667 -54.667 -24.334 -99.667 -35.001 -135c-15.333 -50 -31.333 -92 -48 -126c-19.333 -40 -42 -74 -68 -102zM169.999 748.001c-35.333 -10.667 -63.6641 -37.499 -84.9971 -80.499s-32 -94.167 -32 -153.5v-26c1.33301 -7.33301 2 -12.666 2 -15.999
c4 -14.667 8.5 -29.334 13.5 -44.001s12.5 -26.334 22.5 -35.001c16 -16.667 32 -25 48 -25c13.333 0 27.666 6.66699 42.999 20c2.66699 2 14.667 14.333 36 37c10 25.333 18 50.333 24 75s9 51.334 9 80.001c0 23.333 -1.83301 44.666 -5.5 63.999s-10.5 41.333 -20.5 66
c-6.66699 12 -14.334 20.5 -23.001 25.5s-19.334 9.16699 -32.001 12.5z" />
    <glyph glyph-name="colon" unicode=":" horiz-adv-x="199" 
d="M190 588c-7.33301 -4 -14.335 -6.00098 -21.002 -6.00098c-15.333 0 -30.666 9.66699 -45.999 29c-11.333 14 -23.666 35.333 -36.999 64c-4.66699 16 -7 32 -7 48c0 20 3.83301 37.167 11.5 51.5s17.167 22.5 28.5 24.5c21.333 4 41.333 -3.83301 60 -23.5
s31.667 -49.167 39 -88.5c2 -11.333 3 -21.333 3 -30c0 -18 -2.66699 -32.667 -8 -44s-13 -19.666 -23 -24.999zM133.998 15.999c-8 -10.667 -16.667 -15.999 -26 -15.999c-14 0 -30.667 11.667 -50 35c-16.667 20 -31 42.667 -43 68c-2.66699 12.667 -4 26.667 -4 42
c0 21.333 2.83301 39 8.5 53s13.334 23.167 23.001 27.5s17.5 6.5 23.5 6.5c16 0 31.5 -8.33301 46.5 -25s27.167 -39 36.5 -67c3.33301 -6.66699 5.66602 -13.834 6.99902 -21.501s2 -14.5 2 -20.5c0 -16 -3.66699 -33.333 -11 -52c-4.66699 -10 -9 -20 -13 -30z" />
    <glyph glyph-name="semicolon" unicode=";" horiz-adv-x="249" 
d="M258 642c-16.667 -2 -30.999 1.16797 -42.999 9.50098s-23 24.5 -33 48.5c-1.33301 14 -2.33301 24 -3 30s-1 11.667 -1 17c0 21.333 6 38 18 50c5.33301 2 9.66602 3 12.999 3c11.333 0 22.333 -6.33301 33 -19s20.334 -29.334 29.001 -50.001
c3.33301 -9.33301 5 -20 5 -32c0 -12.667 -1.83301 -23.667 -5.5 -33s-7.83398 -17.333 -12.501 -24zM47.001 0.000976562c-10 9.33301 -17.999 21.832 -23.999 37.499s-9 30.834 -9 45.501v10c25.333 42.667 63.666 88.667 114.999 138l75 70l24 -49l2 -48
c-8.66699 -9.33301 -37.667 -45.333 -87 -108c-35.333 -45.333 -67.333 -77.333 -96 -96z" />
    <glyph glyph-name="less" unicode="&#x3c;" horiz-adv-x="291" 
d="M190 557c-22.667 -30.667 -46.332 -60.667 -70.999 -90l-74 -88l111 -176c38.667 -69.333 65.667 -144.333 81 -225l-12 -6c-10.667 59.333 -26.667 112.666 -48 159.999c-16 36.667 -39.333 78.667 -70 126l-80 124l155 191c14 16.667 24.333 29.334 31 38.001
c11.333 15.333 19.666 33 24.999 53l10 -8c-4.66699 -20 -13 -38.667 -25 -56z" />
    <glyph glyph-name="equal" unicode="=" horiz-adv-x="315" 
d="M290 425c-5.33301 1.33301 -9.66699 2.00098 -13 2.00098c-5.33301 0 -12.666 -1 -21.999 -3c-27.333 -6 -42 -9 -44 -9c-25.333 -3.33301 -49.666 -5 -72.999 -5c-20.667 0 -39.334 1.16699 -56.001 3.5s-33.334 6.16602 -50.001 11.499l2 20
c29.333 -10 64.333 -15 105 -15c14.667 0 26 0.333008 34 1s20 2 36 4l71 12c2.66699 0 6.66699 -0.666992 12 -2zM295.999 260.001c-7.33301 2.66699 -13.333 4.33301 -18 5s-10.334 1 -17.001 1c-10 0 -18 -0.333008 -24 -1c-31.333 -3.33301 -53.666 -5 -66.999 -5
c-22.667 0 -46 1.66699 -70 5s-45.667 8.33301 -65 15l2 20c41.333 -13.333 86.333 -20 135 -20c19.333 0 38.333 1 57 3s30.334 3 35.001 3c11.333 0 22.666 -2 33.999 -6z" />
    <glyph glyph-name="greater" unicode="&#x3e;" horiz-adv-x="291" 
d="M78 27l-12.001 6.00195c11.333 59.333 27.333 112.666 48 159.999c16 36.667 38.667 78 68 124l76 117l-145 178l-34 44c-11.333 15.333 -19.333 33.666 -24 54.999l10 8c5.33301 -20 13.333 -37.333 24 -52c14.667 -16.667 25.334 -29.667 32.001 -39
c18 -24 42.667 -55 74 -93c44.667 -53.333 71.667 -86 81 -98l-116 -185c-40 -70.667 -67.333 -145.667 -82 -225z" />
    <glyph glyph-name="question" unicode="?" horiz-adv-x="277" 
d="M217 423c-30.667 -38 -56 -76.002 -76 -114.002c-23.333 -45.333 -40.666 -95.333 -51.999 -150c-2 -2 -4.66699 -0.833008 -8 3.5s-6 8.5 -8 12.5c0 30.667 4.16699 60.834 12.5 90.501s25.5 66.834 51.5 111.501c52 68 81 106.667 87 116
c31.333 50 50.333 102.667 57 158c-3.33301 28.667 -6.66602 49 -9.99902 61c-6.66699 22.667 -17.334 37.667 -32.001 45c-16 5.33301 -30.667 8 -44 8c-38.667 0 -71.834 -18 -99.501 -54s-47.167 -81.333 -58.5 -136c0 -9.33301 1.83301 -17.5 5.5 -24.5
s8.16699 -9.83301 13.5 -8.5c15.333 0 31 8.33301 47 25l24 28c3.33301 -7.33301 5 -15 5 -23s-3 -16.333 -9 -25c-9.33301 -13.333 -14 -20.333 -14 -21c-7.33301 -6 -15 -11.833 -23 -17.5s-15.667 -8.5 -23 -8.5l-11 2c-8 8 -14.833 16.667 -20.5 26
s-10.5 20.666 -14.5 33.999c-2 13.333 -3 25.333 -3 36c0 40 10.333 75.333 31 106c12 17.333 33 39.333 63 66c12.667 8.66699 26 15.834 40 21.501s28.667 8.5 44 8.5c18.667 0 36.167 -5.5 52.5 -16.5s30.5 -29.167 42.5 -54.5c14 -34.667 21 -67.667 21 -99
c0 -45.333 -15.333 -92 -46 -140zM79 0.998047c-3.33301 -1.33301 -6.66602 -1 -9.99902 1c-6.66699 4.66699 -11.167 11.167 -13.5 19.5s-3.5 14.833 -3.5 19.5c0 8.66699 2 16.167 6 22.5l12 19.5c3.33301 -0.666992 7.16602 -3.66699 11.499 -9s6.83301 -11.333 7.5 -18
c2 -8 3 -15.667 3 -23c0 -15.333 -4.33301 -26 -13 -32z" />
    <glyph glyph-name="at" unicode="@" horiz-adv-x="195" 
d="M149 368c-22.667 0 -33.9971 11.6641 -33.9971 34.9971v6c-8 -14 -14.667 -23.667 -20 -29c-8.66699 -8.66699 -18.667 -13 -30 -13c-6.66699 0 -10 6.66699 -10 20c0 12 8.16699 25.167 24.5 39.5s29.5 21.5 39.5 21.5c4.66699 0 10.334 -2.66699 17.001 -8l-3 -9
c-4.66699 4.66699 -9.33398 7 -14.001 7c-9.33301 0 -21.333 -5.66699 -36 -17s-22 -22.666 -22 -33.999c0 -2.66699 0.333008 -4.66699 1 -6s1.66699 -2.66602 3 -3.99902c10.667 0 20.667 5.66699 30 17c7.33301 8.66699 16 23.334 26 44.001v-35
c0 -10 2.33301 -16.667 7 -20s11.667 -5 21 -5c14.667 0 28.667 9 42 27s20 38.667 20 62c0 21.333 -8.33301 37.5 -25 48.5s-34.334 16.5 -53.001 16.5s-35.834 -6.83301 -51.501 -20.5s-28.5 -31.167 -38.5 -52.5c-6.66699 -11.333 -11.334 -20 -14.001 -26
c-5.33301 -11.333 -8 -23 -8 -35c0 -26 6.66699 -46 20 -60s29 -21 47 -21c16 0 32.333 5.66699 49 17c6.66699 4.66699 14.667 11.334 24 20.001l3 -9c-12 -11.333 -24.333 -20.5 -37 -27.5s-25.667 -10.5 -39 -10.5c-20 0 -36.667 7.33301 -50 22
c-15.333 16.667 -23 39.667 -23 69c0 16 3.66699 31 11 45l12 22c10.667 21.333 23.667 39 39 53c18 16 36.667 24 56 24s37.333 -6 54 -18c20 -14.667 30 -33.667 30 -57c0 -26.667 -7.16699 -49.834 -21.5 -69.501s-29.833 -29.5 -46.5 -29.5z" />
    <glyph glyph-name="A" unicode="A" horiz-adv-x="542" 
d="M523 95l-35.9951 -66.0078c-9.33301 -12.667 -20 -19 -32 -19c-6.66699 0 -13 1.33301 -19 4c-15.333 12 -27.666 33.667 -36.999 65c-5.33301 19.333 -11 47.666 -17 84.999c-0.666992 6 -1 12.333 -1 19v15c0 16.667 1.33301 37 4 61c6 54 9 89 9 105
c-10.667 2 -21.667 3.66699 -33 5s-23 2 -35 2c-24.667 0 -44 -4.66699 -58 -14c-43.333 -110 -69 -173.333 -77 -190c-32.667 -67.333 -68.334 -114 -107.001 -140c-10 -7.33301 -21.667 -11 -35 -11c-16.667 0 -33.834 6.16699 -51.501 18.5s-35.834 29.833 -54.501 52.5
c-12 17.333 -21.667 32.666 -29 45.999c-10.667 18.667 -18.334 36.667 -23.001 54c0.666992 0.666992 2.16699 4.66699 4.5 12s5.83301 10 10.5 8c21.333 -42 41.333 -74.333 60 -97c24 -30 48 -47 72 -51c2.66699 -0.666992 6.66699 -1 12 -1c14 0 26.333 5 37 15
c3.33301 3.33301 18 24.333 44 63c19.333 38 34.666 70 45.999 96c15.333 34.667 30 71 44 109l-3 10l-39 2c-0.666992 3.33301 -1 6.33301 -1 9v6c0 18.667 8.66699 30.334 26 35.001c14.667 2.66699 29.667 5.66699 45 9l53 147c21.333 56.667 41 102.334 59 137.001
c22.667 44 49 82 79 114c12.667 0 23 -1.83301 31 -5.5s15 -12.834 21 -27.501c4.66699 -23.333 7 -48 7 -74c0 -33.333 -4.5 -71.333 -13.5 -114l-25.5 -120l-7 -24c-2.66699 -9.33301 -4 -16.666 -4 -21.999c0 -6.66699 0.833008 -12 2.5 -16s5.16699 -7.66699 10.5 -11
c0.666992 -1.33301 3 -2.66602 7 -3.99902c3.33301 -6.66699 5 -11.667 5 -15c0 -8.66699 -3.66699 -13 -11 -13c-4.66699 2.66699 -9.33398 4 -14.001 4c-12 0 -19.667 -15.5 -23 -46.5s-7 -50.167 -11 -57.5c-1.33301 -11.333 -3 -27.166 -5 -47.499
s-3 -36.166 -3 -47.499c0 -19.333 1 -36.166 3 -50.499s6.66699 -31.166 14 -50.499c9.33301 -11.333 17.666 -17 24.999 -17c6 0 12.5 3.33301 19.5 10l20.5 19l25.5 51.5c5.66699 11 11.834 18.833 18.501 23.5c2.66699 -5.33301 4 -10.666 4 -15.999
s-2.33301 -12.666 -7 -21.999s-7 -16.666 -7 -21.999zM467.005 769.992l-14.998 3.99902c-24 -29.333 -46.667 -68.666 -68 -117.999c-2.66699 -6.66699 -31.334 -86.334 -86.001 -239.001c12.667 0 28.167 -0.833008 46.5 -2.5s28.5 -2.5 30.5 -2.5c10 0 20.667 1 32 3
c16.667 66.667 29 117.334 37 152.001c15.333 64 25.666 118 30.999 162z" />
    <glyph glyph-name="B" unicode="B" horiz-adv-x="548" 
d="M401 405l-3.99707 -9.00195l49 -42c31.333 -28.667 53 -63 65 -103c6 -26 9 -50.667 9 -74c0 -30.667 -4.83301 -59 -14.5 -85s-21.834 -47 -36.501 -63c-20 -21.333 -46.333 -32 -79 -32c-44 0 -84 19.333 -120 58l-48 -46c-20 -16.667 -39 -25 -57 -25
c-9.33301 0 -19 2 -29 6c-25.333 9.33301 -48.666 28 -69.999 56s-37.333 61.667 -48 101c-12.667 48.667 -19 94.334 -19 137.001c0 40 5 79.333 15 118c8 31.333 20.333 65.333 37 102c8.66699 18.667 23.667 48.334 45 89.001c41.333 59.333 82.666 104.333 123.999 135
c50.667 37.333 104.667 56 162 56c12.667 0 22.667 -0.333008 30 -1s18.333 -2.66699 33 -6c18 -10 31 -18.333 39 -25c13.333 -10.667 24.666 -25 33.999 -43c7.33301 -12.667 12.166 -26.167 14.499 -40.5s3.5 -29.833 3.5 -46.5v-32
c-12 -46.667 -29.5 -85.167 -52.5 -115.5s-50.5 -53.5 -82.5 -69.5zM470.003 266.998c-15.333 26.667 -33.333 48.6689 -54 66.002s-42 28.666 -64 33.999l-65 -263c1.33301 -10.667 5 -18.334 11 -23.001l18 -14c23.333 -13.333 47 -20 71 -20c20 0 37.333 4.83301 52 14.5
s26 25.5 34 47.5c9.33301 17.333 14 40 14 68c0 29.333 -5.66699 59.333 -17 90zM433.003 743c-12 2 -24.001 3 -36.001 3c-53.333 0 -103.666 -17 -150.999 -51c-42 -30 -80.333 -72.667 -115 -128c-30 -47.333 -52.333 -90 -67 -128
c-20 -52.667 -30 -107.334 -30 -164.001c0 -20 1.33301 -41.5 4 -64.5s7 -46.5 13 -70.5c8 -24 19.667 -44.833 35 -62.5s31 -30.5 47 -38.5c7.33301 -2.66699 15.333 -4 24 -4c16 0 30.167 5.83301 42.5 17.5s22.5 27.834 30.5 48.501
c-4.66699 9.33301 -11.667 21.333 -21 36c-17.333 26.667 -26 48.334 -26 65.001c0 5.33301 0.333008 9.33301 1 12c9.33301 -3.33301 20.833 -15.833 34.5 -37.5s24.5 -34.834 32.5 -39.501c30 72 50 152.333 60 241l-21 12c-0.666992 3.33301 -1 8.33301 -1 15
c0 4.66699 1 8.66699 3 12c2.66699 -0.666992 6 -1 10 -1c16.667 0 26.334 20.333 29.001 61s4.83398 63.834 6.50098 69.501s4.16699 29.167 7.5 70.5s9.66602 69.333 18.999 84c5.33301 -5.33301 9.16602 -11.333 11.499 -18s3.5 -15 3.5 -25
c0 -22.667 -3.33301 -69.667 -10 -141c-3.33301 -35.333 -5 -63.666 -5 -84.999c18.667 7.33301 36 18.166 52 32.499s32 31.5 48 51.5c14 22 24 39.333 30 52c9.33301 21.333 14 43.666 14 66.999c0 16.667 -2.66699 33.5 -8 50.5s-15 29.833 -29 38.5z" />
    <glyph glyph-name="C" unicode="C" horiz-adv-x="336" 
d="M323 477l-26.9961 -34.9961c-11.333 -14.667 -22.333 -22 -33 -22c-8.66699 0 -17.667 4.33301 -27 13c-6.66699 9.33301 -12.334 22.5 -17.001 39.5s-7 32.5 -7 46.5c3.33301 25.333 8.83301 46.5 16.5 63.5s18.5 27.5 32.5 31.5c6 -8.66699 10 -13 12 -13
c0 -9.33301 -2 -17.333 -6 -24c-13.333 -22.667 -20.5 -36 -21.5 -40l-3.5 -14.5c-1.33301 -5.66699 -2 -10.834 -2 -15.501c0 -8.66699 1.66699 -17.334 5 -26.001c6 -8 12.333 -12 19 -12c4.66699 0 9.5 2.66699 14.5 8l14.5 16c24 42 39.5 73.5 46.5 94.5
s10.5 44.5 10.5 70.5c0 12.667 -1 25.5 -3 38.5s-5.33301 27.5 -10 43.5c-10.667 13.333 -21.834 23 -33.501 29s-23.5 9 -35.5 9c-12.667 0 -26.5 -3.5 -41.5 -10.5s-32.167 -19.833 -51.5 -38.5c-40.667 -50 -72.334 -103 -95.001 -159
c-28 -68.667 -42 -141.334 -42 -218.001c0 -32 2 -63.333 6 -94s11 -64.334 21 -101.001c19.333 -43.333 43 -75 71 -95c15.333 -7.33301 30.666 -11 45.999 -11c28.667 0 57 15 85 45c9.33301 10 31 39.667 65 89c1.33301 -10.667 2 -18.334 2 -23.001
c0 -18.667 -4.66699 -38 -14 -58c-4 -8.66699 -12.333 -22.334 -25 -41.001s-27.667 -33.167 -45 -43.5s-36.333 -15.5 -57 -15.5c-13.333 0 -26.166 2.33301 -38.499 7s-24.5 12.334 -36.5 23.001c-24 20.667 -45 48.334 -63 83.001s-31.333 72 -40 112
c-5.33301 23.333 -9 45 -11 65s-3 42.333 -3 67c0 53.333 7 106.333 21 159c10.667 39.333 26.667 82.666 48 129.999c27.333 48 52.666 83.667 75.999 107c32 32 65.667 48 101 48c23.333 0 48.333 -7.33301 75 -22l30 -38c8 -17.333 13.667 -34.166 17 -50.499
s5 -32.833 5 -49.5c0 -30.667 -5.66699 -61.667 -17 -93c-4.66699 -14 -16 -39 -34 -75z" />
    <glyph glyph-name="D" unicode="D" horiz-adv-x="475" 
d="M268 59c-8 0 -18.0029 1.99707 -30.0029 5.99707c-28 9.33301 -45.333 14 -52 14c-8.66699 0 -16 -2.66699 -22 -8c-12.667 -26.667 -28 -47.667 -46 -63s-38 -23 -60 -23c-10 0 -20.667 2 -32 6c-17.333 14.667 -29 25.334 -35 32.001
c-12 14.667 -19.5 28.834 -22.5 42.501s-4.5 23.834 -4.5 30.501c0 11.333 1.83301 21.833 5.5 31.5s8.5 17.5 14.5 23.5c14 11.333 31 17 51 17c16 0 35.667 -4 59 -12c8 -2.66699 28 -10.334 60 -23.001c15.333 28 27 59 35 93c18.667 49.333 36.334 121.333 53.001 216
c22.667 128.667 37 205.334 43 230.001c2.66699 2 5.16699 1 7.5 -3l6.5 -11c-8.66699 -91.333 -22.667 -182.666 -42 -273.999c-16.667 -81.333 -38.667 -166.333 -66 -255c2.66699 -8.66699 7.16699 -14.5 13.5 -17.5l18.5 -8.5c17.333 -6.66699 34.666 -10 51.999 -10
c26.667 0 50.334 8.5 71.001 25.5s37.167 41.667 49.5 74s22.833 67.833 31.5 106.5s13 77.334 13 116.001c0 30 -2.66699 60 -8 90s-14.333 60.333 -27 91c-17.333 44 -40.833 79.5 -70.5 106.5s-59.5 42.5 -89.5 46.5c-4.66699 0.666992 -11.667 1 -21 1
c-41.333 0 -79.666 -14.667 -114.999 -44c-32.667 -26.667 -61 -64.667 -85 -114c-8.66699 -2 -13 2.33301 -13 13c-2 7.33301 -3 13.333 -3 18c0 9.33301 2.5 18 7.5 26l14.5 23c33.333 35.333 60.666 60.666 81.999 75.999c34.667 24.667 68.334 37 101.001 37
c28.667 0 58 -9.33301 88 -28c18.667 -12 36.334 -26.333 53.001 -43c20 -20 36.333 -41.667 49 -65c20 -38.667 36 -82.834 48 -132.501s18 -96.167 18 -139.5c0 -16 -1 -31 -3 -45c-10 -79.333 -31 -143 -63 -191c-36 -54.667 -81 -82 -135 -82zM133.997 96.9971
l-49.999 17.999c-20.667 7.33301 -37.667 11 -51 11c-14 0 -26 -3.66699 -36 -11c-4 -6 -6.66699 -10.333 -8 -13c-3.33301 -5.33301 -5 -10.666 -5 -15.999l2 -12c2.66699 -6 5.66699 -11 9 -15s11.333 -12 24 -24c12 -7.33301 23.667 -11 35 -11
c17.333 0 35.666 11 54.999 33l27 32z" />
    <glyph glyph-name="E" unicode="E" horiz-adv-x="324" 
d="M294 598c-12.667 0 -21.6709 4 -27.0039 12c3.33301 4.66699 14.333 16.667 33 36c26 26.667 39 55 39 85c-8.66699 18 -18 29 -28 33c-57.333 0 -104.666 -19.667 -141.999 -59c-42 -44 -63 -105.667 -63 -185c0.666992 -6 1.83398 -11.833 3.50098 -17.5
s4.5 -8.16699 8.5 -7.5c16.667 5.33301 29 9 37 11s18 3 30 3c12.667 0 24.834 -2.16699 36.501 -6.5s23.167 -11.833 34.5 -22.5c14.667 -16.667 22 -36.334 22 -59.001c0 -13.333 -2.5 -23.666 -7.5 -30.999s-12.5 -14.333 -22.5 -21c-9.33301 -4 -18.666 -6 -27.999 -6
c-18.667 0 -38.167 6.5 -58.5 19.5s-38.5 30.833 -54.5 53.5c-22 -11.333 -39.5 -34 -52.5 -68s-19.5 -72 -19.5 -114c0 -31.333 4.66699 -63.166 14 -95.499s22.666 -57.833 39.999 -76.5c11.333 -12 23.833 -21.167 37.5 -27.5s26.5 -9.5 38.5 -9.5
c15.333 0 30 3.33301 44 10s27 15.667 39 27l56.5 67c12.333 15.333 22.833 30.666 31.5 45.999c3.33301 -4 5 -9 5 -15c0 -3.33301 -1.16699 -8.5 -3.5 -15.5s-3.5 -11.5 -3.5 -13.5c-21.333 -46 -43.333 -81 -66 -105c-29.333 -30.667 -60.666 -46 -93.999 -46
c-24 0 -49 8.66699 -75 26c-26 29.333 -46.667 59.333 -62 90c-20 40.667 -30 80.667 -30 120c0 113.333 26.667 192 80 236c-4.66699 23.333 -7 46.666 -7 69.999c0 53.333 12 102 36 146c20 36.667 46 66.667 78 90c24 8.66699 41.333 14.5 52 17.5s20.667 4.5 30 4.5
c16.667 0 31.167 -3.66699 43.5 -11s24.833 -20.666 37.5 -39.999c2 -13.333 3 -25.333 3 -36c0 -28 -7 -52.333 -21 -73c-10.667 -16 -25.667 -30 -45 -42zM166.996 472c-1.33301 -1.33301 -7.33105 -4 -17.998 -8s-16 -10 -16 -18c11.333 -16 24.666 -27.167 39.999 -33.5
s31 -9.5 47 -9.5h15c9.33301 5.33301 15.333 15.333 18 30c-8.66699 16 -18.334 26.5 -29.001 31.5s-23.667 7.5 -39 7.5h-18z" />
    <glyph glyph-name="F" unicode="F" horiz-adv-x="509" 
d="M534 630c-19.333 -12 -42.001 -18 -68.001 -18c-20.667 0 -41.334 3.66699 -62.001 11c-12.667 -34 -23 -66.667 -31 -98c-10 -39.333 -16.667 -76 -20 -110c2.66699 -2 13 -5 31 -9s28 -16 30 -36c-4.66699 -4 -13 -6 -25 -6c-10.667 0.666992 -18.667 1 -24 1
c-12 0 -21.167 -2.5 -27.5 -7.5s-9.5 -15.5 -9.5 -31.5c0 -7.33301 0.333008 -13.333 1 -18c-12 -79.333 -21 -131 -27 -155c-13.333 -56 -30.333 -98 -51 -126c-25.333 -34.667 -58.333 -52 -99 -52c-28 9.33301 -54.667 30.333 -80 63c-22.667 29.333 -43 67 -61 113
c-6.66699 17.333 -11.667 36.5 -15 57.5s-6.33301 44.167 -9 69.5c2 5.33301 4.16699 10.666 6.5 15.999s6.83301 7 13.5 5c0 -27.333 3.5 -56.5 10.5 -87.5s16.833 -59.167 29.5 -84.5c19.333 -36 36.666 -62.333 51.999 -79c22 -23.333 43.333 -33.666 64 -30.999
c53.333 6.66699 91 65 113 175l29 163l-1 7c-10.667 5.33301 -21 8 -31 8c-4.66699 0 -12 -1 -22 -3s-17.667 -3 -23 -3s-11.666 1 -18.999 3c-0.666992 2 -1 4.16699 -1 6.5v4.5c0 6.66699 2.66699 14 8 22c7.33301 4 17.333 6 30 6c4 0 10 -0.333008 18 -1s14 -1 18 -1
c11.333 0 20.333 2.33301 27 7s11.334 14.334 14.001 29.001c3.33301 29.333 10 63 20 101c13.333 50 21.333 82.333 24 97l-108 60c-44 22 -80 33 -108 33c-16 0 -30.5 -2.83301 -43.5 -8.5s-24.833 -15.5 -35.5 -29.5c-11.333 -26 -17 -56.333 -17 -91
c0 -30.667 4.33301 -61 13 -91c0.666992 -9.33301 -1.33301 -14 -6 -14c-4 0 -8.33301 2.33301 -13 7c-8 17.333 -13.667 36.333 -17 57s-5 40.667 -5 60c0 12.667 0.333008 22.667 1 30s2 18 4 32c8.66699 31.333 23 54 43 68s44 21 72 21c12 0 23.5 -1 34.5 -3
s23.167 -5 36.5 -9c19.333 -6.66699 46.333 -19.334 81 -38.001c40.667 -22 68 -36.333 82 -43l51 62c22 22.667 43.667 34 65 34c16.667 0 33.334 -6 50.001 -18l14 -23c2.66699 -10.667 4 -21.667 4 -33c0 -15.333 -3 -29 -9 -41s-13.333 -22 -22 -30zM466.999 724
c-10.667 -10.667 -18.335 -18.665 -23.002 -23.998c-8.66699 -10 -13 -21.667 -13 -35c8.66699 -3.33301 17.834 -6.33301 27.501 -9s18.834 -4 27.501 -4c12.667 0 22.667 3.16699 30 9.5s13 12.666 17 18.999s6 15.166 6 26.499c0 6.66699 -0.333008 11.667 -1 15
c-10 12.667 -21 19 -33 19c-5.33301 0 -11.5 -1.66699 -18.5 -5s-13.5 -7.33301 -19.5 -12z" />
    <glyph glyph-name="G" unicode="G" horiz-adv-x="358" 
d="M243 177c-6 -20.667 -14.3359 -70.0039 -25.0029 -148.004c-15.333 -110 -43 -174.333 -83 -193c-2.66699 -0.666992 -6 -1 -10 -1c-14.667 0 -30 8 -46 24c-5.33301 8 -10 20.167 -14 36.5s-7 28.166 -9 35.499c0 46 14 87.333 42 124l75 90l44 51
c6 18.667 11.333 48.834 16 90.501s8 67.5 10 77.5l-60 -114c-23.333 -40.667 -48.333 -69.667 -75 -87c-2.66699 -0.666992 -6.66699 -1 -12 -1c-7.33301 0 -14.666 1.83301 -21.999 5.5s-14.666 9.83398 -21.999 18.501c-15.333 22.667 -26.333 48.334 -33 77.001
s-10 59 -10 91c0 18.667 0.333008 32.334 1 41.001c2 10.667 3 18.334 3 23.001c19.333 101.333 52 184.333 98 249s102 107.334 168 128.001c22 0 36 -1 42 -3c14.667 -4.66699 27 -16.667 37 -36c4 -6.66699 6 -14 6 -22c0 -4.66699 -0.666992 -10.334 -2 -17.001
c-2 -4.66699 -3.5 -7.83398 -4.5 -9.50098s-2.5 -1.83398 -4.5 -0.500977c-1.33301 3.33301 -3.33301 9.5 -6 18.5s-4.66699 14.833 -6 17.5c-5.33301 6 -11 10.5 -17 13.5s-12 4.5 -18 4.5c-8 0 -18 -2.33301 -30 -7s-19.333 -7 -22 -7
c-56.667 -30.667 -104.667 -78.667 -144 -144c-43.333 -72 -68.666 -153.333 -75.999 -244c0 -30.667 1.5 -56.667 4.5 -78s10.5 -40.666 22.5 -57.999c9.33301 -10 19 -15 29 -15c5.33301 0 10.666 1.33301 15.999 4s10.333 6.33398 15 11.001
c42 51.333 78.667 112.333 110 183c35.333 80 58.333 161 69 243l10 25c4.66699 8.66699 11 11 19 7l3 -5c-23.333 -112 -37.666 -183 -42.999 -213c-15.333 -82 -26.333 -155.333 -33 -220l4 -3l49 43c20 16.667 37.667 30 53 40l2 -18l-61 -64zM85.9971 -32.0039
c-2 -8 -3.16602 -13.332 -3.49902 -15.999s-0.5 -7.33398 -0.5 -14.001c0 -14 3.33301 -30.333 10 -49c4 -6.66699 8 -10.834 12 -12.501s9.66699 -2.5 17 -2.5h9c22 19.333 39 54.333 51 105c2.66699 10.667 10.667 57.334 24 140.001c-34.667 -34 -60.334 -62 -77.001 -84
s-30.667 -44.333 -42 -67z" />
    <glyph glyph-name="H" unicode="H" horiz-adv-x="491" 
d="M536 81l-30.998 -66c-12.667 -23.333 -27.667 -35 -45 -35c-4.66699 0 -10.667 1 -18 3c-22.667 8 -43 32.333 -61 73c-8 18 -16.333 40.333 -25 67c-6.66699 37.333 -10 74 -10 110c0 22 1.66699 48.333 5 79c1.33301 14 4.66602 39.667 9.99902 77l-12 11l-149 -11
c-6.66699 -24.667 -16 -74.334 -28 -149.001c-18.667 -113.333 -40.667 -192 -66 -236c-4.66699 -4 -9.83398 -7.16699 -15.501 -9.5s-11.5 -3.5 -17.5 -3.5c-8 0 -16 3 -24 9c-24.667 20.667 -46.167 49 -64.5 85s-31.166 74 -38.499 114
c0.666992 4 1.16699 7.33301 1.5 10s1.5 4.33398 3.5 5.00098c4.66699 1.33301 9.16699 -4.16699 13.5 -16.5s7.16602 -19.5 8.49902 -21.5c10.667 -32 19.667 -55.333 27 -70c12 -24.667 25.667 -43.334 41 -56.001c5.33301 -4.66699 11 -7 17 -7c4 0 12 3.33301 24 10
c20.667 35.333 37 87.666 49 156.999l27 173c-5.33301 4.66699 -10.666 7 -15.999 7c-3.33301 0 -8 -1.33301 -14 -4s-11 -4 -15 -4c-2.66699 0 -6 1 -10 3c0 27.333 11 43.5 33 48.5s33.667 7.83301 35 8.5l33.5 172.5c11.667 59.667 24.834 110.834 39.501 153.501
c5.33301 4 11 8 17 12c2.66699 0 5.33398 -2.33301 8.00098 -7c-8.66699 -37.333 -18.334 -89.666 -29.001 -156.999l-27 -162l9 -9l151 9c9.33301 50.667 22 104 38 160l48 154h19l5 -25c-16.667 -55.333 -30 -102 -40 -140c-12.667 -49.333 -23 -97 -31 -143
c10 -14 15.667 -22.333 17 -25c5.33301 -10 8 -20.333 8 -31c-2.66699 -4 -8.33398 -6 -17.001 -6c-10.667 0 -17.334 -1 -20.001 -3c-6.66699 -35.333 -12 -69.333 -16 -102s-6 -65 -6 -97v-30.5c0 -8.33301 1.33301 -22.833 4 -43.5c8 -26 14.833 -44.5 20.5 -55.5
s12.834 -21.5 21.501 -31.5c11.333 -7.33301 21.666 -11 30.999 -11c15.333 0 30.333 11.667 45 35c23.333 37.333 36 57 38 59c3.33301 -3.33301 5 -8 5 -14c0 -4 -1.16699 -8.66699 -3.5 -14s-3.5 -8.33301 -3.5 -9z" />
    <glyph glyph-name="I" unicode="I" horiz-adv-x="305" 
d="M257 613c-10 -44 -20.3398 -109.997 -31.0068 -197.997c-14.667 -116 -23.667 -185 -27 -207c-12.667 -74.667 -28.667 -137 -48 -187c-12 -14.667 -18.667 -22.667 -20 -24c-8.66699 -8 -17.667 -12 -27 -12c-5.33301 0 -10.666 1.33301 -15.999 4
c-16 2 -33 16.667 -51 44c-12.667 18.667 -26 45 -40 79c-9.33301 40.667 -14.666 63.667 -15.999 69c-3.33301 16 -5 29.333 -5 40c0 18 3.66699 31 11 39h5c4 -39.333 11.833 -77.5 23.5 -114.5s26.834 -66.5 45.501 -88.5c6 -6.66699 12.5 -12.334 19.5 -17.001
s13.5 -7 19.5 -7c6.66699 0 12.667 3 18 9c20 40 36.333 98.333 49 175l28.5 189.5c9.66699 62.333 16.834 106.5 21.501 132.5c8 45.333 16.667 86.666 26 123.999c-24 -12 -47.167 -28.833 -69.5 -50.5s-41.166 -46.834 -56.499 -75.501
c-8 -15.333 -12 -33.666 -12 -54.999c0 -29.333 6.33301 -60 19 -92c0.666992 -9.33301 6 -22 16 -38s15 -26.667 15 -32c0 -4.66699 -2 -8.66699 -6 -12c-10.667 4 -20.667 16 -30 36c-9.33301 24 -16.333 41 -21 51c-11.333 35.333 -17 69.333 -17 102
c0 21.333 2.66699 40.666 8 57.999c14.667 34.667 38.667 65.667 72 93c88.667 72.667 136.334 114 143.001 124c0.666992 0.666992 3.83398 3 9.50098 7s9.83398 6 12.501 6s5.66699 -1 9 -3l4 -18c-22.667 -16 -40.334 -34.667 -53.001 -56
c-15.333 -26 -25 -57.667 -29 -95z" />
    <glyph glyph-name="J" unicode="J" horiz-adv-x="288" 
d="M232 282c-16 -71.333 -31.335 -129.67 -46.002 -175.003c-18.667 -58 -40.667 -109.667 -66 -155c-27.333 -49.333 -58 -87.666 -92 -114.999c-3.33301 -2 -6.66602 -3 -9.99902 -3c-13.333 0 -25.666 10 -36.999 30c-4.66699 11.333 -8 23 -10 35s-3 23.333 -3 34
c0 22 4.33301 44.667 13 68c12 26 20.333 44.667 25 56c26.667 46.667 57.334 90.667 92.001 132c29.333 35.333 64.333 71.333 105 108c9.33301 43.333 17 87 23 131s9 87 9 129c0 28.667 -1 54.834 -3 78.501s-6 49.5 -12 77.5c-4 12.667 -9.16699 23.167 -15.5 31.5
s-13.833 15.833 -22.5 22.5c-2.66699 0.666992 -6.66699 1 -12 1c-16.667 0 -32 -10.333 -46 -31c-4.66699 -7.33301 -15.334 -27.333 -32.001 -60c-10.667 -32 -19.334 -65 -26.001 -99s-10 -69.333 -10 -106c0 -21.333 0.666992 -39.666 2 -54.999s4.33301 -34.333 9 -57
c6 -18.667 11.333 -33 16 -43c7.33301 -16 16 -27.667 26 -35l18 -2c-4 -11.333 -7.83301 -18.333 -11.5 -21s-8.83398 -3 -15.501 -1c-19.333 18 -34.666 43.833 -45.999 77.5s-18.666 69.5 -21.999 107.5c0 87.333 9.83301 162.166 29.5 224.499
s50.834 104.5 93.501 126.5c11.333 2 21.333 1.33301 30 -2s17 -10.666 25 -21.999c18.667 -26 31.667 -57.667 39 -95c5.33301 -27.333 8 -61.333 8 -102c0 -13.333 -0.166992 -26.5 -0.5 -39.5s-0.5 -25.5 -0.5 -37.5c0 -16 -3.33301 -49.667 -10 -101
c-3.33301 -25.333 -5 -46 -5 -62c7.33301 3.33301 16.666 9 27.999 17c27.333 20 43.333 31.333 48 34l3 -15zM77.998 112.996c-29.333 -42 -48.332 -72 -56.999 -90c-20 -40.667 -30 -83 -30 -127c0 -8 2.33301 -14 7 -18s9.66699 -6 15 -6
c41.333 27.333 77.666 75.333 108.999 144c20 44 42.667 110.667 68 200l3 26c-21.333 -19.333 -41.5 -39.333 -60.5 -60s-37.167 -43.667 -54.5 -69z" />
    <glyph glyph-name="K" unicode="K" horiz-adv-x="454" 
d="M406 1c-26 6.66699 -52.668 35.999 -80.001 87.999l-38 76l-108 231l-32 -29c-3.33301 -15.333 -11.666 -61.333 -24.999 -138c-17.333 -101.333 -36.666 -173.333 -57.999 -216c-4 -2.66699 -8.16699 -1.66699 -12.5 3s-8.5 9.66699 -12.5 15c0 8 1.66699 15 5 21
s7 12 11 18l51 271l-4 6c-4.66699 -0.666992 -11.667 -1 -21 -1c-14.667 0 -28 3.33301 -40 10s-22.667 20 -32 40c-2 6 -3.5 12.833 -4.5 20.5s-1.5 12.5 -1.5 14.5c0 6 0.5 12.167 1.5 18.5s2.5 12.833 4.5 19.5c7.33301 16 17.5 27.5 30.5 34.5s28.167 10.5 45.5 10.5
c10.667 0 18.667 -0.5 24 -1.5s14.666 -3.5 27.999 -7.5c4 18.667 11 56.667 21 114c14.667 84 30 143.333 46 178c4 0.666992 11.667 -2.66602 23 -9.99902c0 -12 -3 -25.667 -9 -41s-9.33301 -27.666 -10 -36.999l-37 -229c5.33301 -8 10.333 -12 15 -12
c4 0 9.16699 5.66699 15.5 17s11.166 18 14.499 20c61.333 93.333 96.666 146.666 105.999 159.999c42 58 82.667 103 122 135c2.66699 0.666992 6.66699 -2 12 -8s9.33301 -9.33301 12 -10c-7.33301 -12.667 -18 -26.667 -32 -42c-22.667 -25.333 -35 -39 -37 -41
c-28.667 -36.667 -68.667 -92.667 -120 -168l-73 -106l142 -321c8.66699 -16.667 18.834 -31 30.501 -43s22.834 -19 33.501 -21c18 0 34 11.667 48 35c18.667 32 31.334 50.333 38.001 55l5 -12l-32 -78c-14.667 -27.333 -32 -41 -52 -41
c-2.66699 0 -7.33398 0.666992 -14.001 2zM78.999 468.999c-13.333 -6.66699 -23.002 -11.999 -29.002 -15.999c-10.667 -7.33301 -16 -19.333 -16 -36c2.66699 -8.66699 7.33398 -14.5 14.001 -17.5l19 -8.5c20 2 33.667 5.66699 41 11c12.667 9.33301 19 27.666 19 54.999
c-7.33301 6 -14.166 9.5 -20.499 10.5s-15.5 1.5 -27.5 1.5z" />
    <glyph glyph-name="L" unicode="L" horiz-adv-x="470" 
d="M343 569c-8 -32 -19.334 -83.167 -34.001 -153.5s-25.334 -119.166 -32.001 -146.499c-13.333 -55.333 -27 -102 -41 -140c10.667 -14 24.667 -26.667 42 -38c12.667 -8.66699 27.667 -16.667 45 -24c9.33301 -4.66699 19 -7 29 -7c20.667 0 39.334 13 56.001 39
c6 9.33301 18.667 35.333 38 78l13 -3c-7.33301 -44 -17.666 -78.667 -30.999 -104c-17.333 -32.667 -39.666 -49 -66.999 -49h-9c-14.667 2 -30.334 7.66699 -47.001 17l-77 49l-46 -61c-20 -22.667 -40.333 -34 -61 -34c-6.66699 -1.33301 -12.334 -2 -17.001 -2
c-24 0 -49 12.333 -75 37c-9.33301 15.333 -16.666 30 -21.999 44s-8 29 -8 45c0 28.667 8.33301 49.5 25 62.5s36.334 19.5 59.001 19.5c30 -7.33301 54.333 -16 73 -26c15.333 -8 30 -17.667 44 -29c8 6 14.333 17.167 19 33.5l13 47.5
c6.66699 27.333 16.334 70.333 29.001 129l46 216c-7.33301 9.33301 -18.833 16.833 -34.5 22.5s-26.834 11.5 -33.501 17.5l-51 49c-18 21.333 -28.667 46 -32 74c2 6 2.66699 9.66699 2 11c5.33301 -3.33301 10.666 -9 15.999 -17c8 -14 16.333 -27.667 25 -41
c18 -24.667 37.333 -42.334 58 -53.001s42.667 -16 66 -16c14.667 43.333 32.334 79.333 53.001 108s46 50.667 76 66h15c7.33301 0 14.166 -1.16699 20.499 -3.5s12.166 -7.33301 17.499 -15s10 -17.5 14 -29.5s5.33301 -23 4 -33c-9.33301 -54 -31.666 -92 -66.999 -114
c-27.333 -17.333 -65 -26 -113 -26zM497.999 743c-7.33301 4.66699 -14.666 7.00098 -21.999 7.00098c-6.66699 0 -13.667 -1.83301 -21 -5.5s-19.333 -11.834 -36 -24.501c-18 -22 -30.5 -40.667 -37.5 -56s-11.5 -31.333 -13.5 -48c31.333 0 58.666 8.33301 81.999 25
s41 42 53 76zM39.999 145.001c-8 -11.333 -12.001 -25.333 -12.001 -42c0 -6.66699 0.333008 -12 1 -16c8.66699 -21.333 17.667 -36 27 -44c16 -10 31.667 -15 47 -15c20 0 37.333 7.33301 52 22l19 22c7.33301 9.33301 11 19.333 11 30c0 5.33301 -0.333008 9.33301 -1 12
c-29.333 18 -47 28.333 -53 31c-19.333 10 -36.666 15 -51.999 15s-28.333 -5 -39 -15z" />
    <glyph glyph-name="M" unicode="M" horiz-adv-x="599" 
d="M638 103c-21.333 -44 -32.0059 -66.334 -32.0059 -67.001c-14.667 -24.667 -30.667 -37 -48 -37c-6.66699 0 -14 2 -22 6c-10.667 9.33301 -20.667 22.333 -30 39c-6.66699 12 -13.667 28 -21 48c-6.66699 31.333 -10 61 -10 89c0 20 1.66699 41.333 5 64l10 67l72 391
c0.666992 4.66699 0.333984 9.66699 -0.999023 15l-4 16c-13.333 -1.33301 -24.666 -12.5 -33.999 -33.5l-26 -60.5c-21.333 -53.333 -43.666 -119 -66.999 -197l-59 -207c-24.667 -89.333 -44.667 -155.666 -60 -198.999c-6.66699 -3.33301 -14.167 -2.16602 -22.5 3.50098
s-14.833 14.834 -19.5 27.501c-4.66699 21.333 -7.66699 45.166 -9 71.499s-2 51.166 -2 74.499v45c0 46.667 2.66699 103.667 8 171c12 152 18 248.333 18 289c0.666992 2 0.333984 4.5 -0.999023 7.5s-3 5.5 -5 7.5c-13.333 -15.333 -24.166 -34.833 -32.499 -58.5
s-15.5 -52.834 -21.5 -87.501c-10.667 -40.667 -23.834 -107.5 -39.501 -200.5s-29.834 -162.833 -42.501 -209.5c-19.333 -74 -43.666 -131.667 -72.999 -173c-6.66699 -6 -15.667 -9 -27 -9c-10 0 -20.667 3 -32 9c-23.333 32.667 -37.333 54.667 -42 66
c-8 18 -12 35.667 -12 53c7.33301 4 15.333 -4.33301 24 -25c6 -14.667 10.333 -23.667 13 -27c16.667 -26.667 34 -37.334 52 -32.001c20 21.333 37.333 54 52 98c5.33301 16 22.333 89 51 219c1.33301 4.66699 10.333 53 27 145c10.667 58 21.334 106.333 32.001 145
c14 50 30.333 91.667 49 125l25 13c3.33301 0 7 -2 11 -6c0.666992 -3.33301 3.83398 -9.16602 9.50098 -17.499s8.5 -14.5 8.5 -18.5c0 -3.33301 -1.66699 -6.33301 -5 -9l4 -2l8 -85l-33 -447c0 -15.333 0.166992 -31 0.5 -47s1.83301 -31.667 4.5 -47h10
c16 49.333 36 117 60 203c32.667 118.667 52.667 189.334 60 212.001c24 76.667 48.333 143.667 73 201l28 47c12 17.333 24.667 26 38 26c4.66699 0 10 -1 16 -3l10 -20c2.66699 -21.333 4 -44 4 -68c0 -42.667 -7 -97.667 -21 -165c-10.667 -50 -17 -83 -19 -99l-41 -262
c0 -34 3.66699 -67.667 11 -101c1.33301 -5.33301 4.33301 -11 9 -17c2 -2.66699 9 -9.33398 21 -20.001c18.667 0 36 12.333 52 37l39 61c4 -5.33301 6 -10 6 -14c0 -3.33301 -1.16699 -7.16602 -3.5 -11.499s-3.5 -7.5 -3.5 -9.5z" />
    <glyph glyph-name="N" unicode="N" horiz-adv-x="415" 
d="M360 26c-4.66699 -9.33301 -7.67188 -14.667 -9.00488 -16s-3.66602 -2 -6.99902 -2c-2.66699 0 -6 2 -10 6c-12.667 20 -23 48.333 -31 85c-5.33301 24.667 -10 54.667 -14 90l-29.5 254.5c-9 79.667 -17.833 168.167 -26.5 265.5l-9 8
c-18.667 -57.333 -36 -129 -52 -215l-40 -235c-16 -90.667 -32.333 -165.667 -49 -225c-6 -13.333 -13 -24.166 -21 -32.499s-17 -13.166 -27 -14.499c-15.333 0 -30.666 10.333 -45.999 31c-11.333 15.333 -23 37.333 -35 66c-1.33301 6 -3.16602 13.833 -5.49902 23.5
s-3.5 16.834 -3.5 21.501s1 8.66699 3 12c4.66699 2 9.66699 -1.66699 15 -11c4 -20 10.667 -38.333 20 -55s20.333 -30.334 33 -41.001c4 -2 7.66699 -3 11 -3c7.33301 0 13.333 4.66699 18 14l13 27c11.333 46 26.333 120 45 222c22 121.333 36.333 197.666 43 228.999
c17.333 84.667 35.333 156 54 214c6.66699 14 10.667 22 12 24c6 8 13 10.333 21 7c12.667 -17.333 21.334 -41 26.001 -71l7 -74c18 -174.667 40 -352 66 -532l8 -11c14 49.333 26.667 118 38 206c5.33301 43.333 11 87 17 131c0 2 9.66699 63 29 183
c12 75.333 18 137.666 18 186.999c4 0 7.66699 -2.33301 11 -7s5.33301 -8.66699 6 -12l2 -31l-40 -365c-17.333 -138.667 -37.666 -256.667 -60.999 -354z" />
    <glyph glyph-name="O" unicode="O" horiz-adv-x="348" 
d="M235 10c-15.333 -10 -32.668 -15.002 -52.001 -15.002c-32 0 -61.333 15.667 -88 47c-21.333 26 -39.166 57.833 -53.499 95.5s-23.5 75.834 -27.5 114.501s-6 71.667 -6 99c0 72 8.5 138.5 25.5 199.5s40.833 111.167 71.5 150.5c4 -0.666992 6.5 -4.16699 7.5 -10.5
s2.16699 -12.166 3.5 -17.499c-24.667 -64 -42.334 -116 -53.001 -156c-16.667 -62 -25 -121.667 -25 -179c0 -32.667 2.66699 -66.5 8 -101.5s14.333 -71.5 27 -109.5c16.667 -30 33 -52.667 49 -68c19.333 -18.667 38 -26.334 56 -23.001c60 24 106.333 86 139 186
c28.667 87.333 43 186.666 43 297.999c0 40 -2 72.333 -6 97c-6.66699 39.333 -18.667 71.333 -36 96c-10 14 -22 24.333 -36 31s-28.333 10 -43 10c-28 -13.333 -52.333 -39.666 -73 -78.999c-25.333 -47.333 -47.333 -119.666 -66 -216.999
c-2 -0.666992 -4.16699 0.166016 -6.5 2.49902s-5.16602 6.5 -8.49902 12.5c0 76 12.833 143.333 38.5 202s60.5 98.334 104.5 119.001c20.667 0 36.667 -1 48 -3s23 -9 35 -21c16.667 -16 31.5 -40.5 44.5 -73.5s23.167 -80.833 30.5 -143.5c0 -118 -12 -222.333 -36 -313
c-26 -98 -64.333 -174.667 -115 -230z" />
    <glyph glyph-name="P" unicode="P" horiz-adv-x="528" 
d="M318 319l-45.999 -206.001c-23.333 -79.333 -57.333 -119 -102 -119c-9.33301 0 -18.333 1.33301 -27 4c-20 5.33301 -39.833 20.5 -59.5 45.5s-36.167 53.5 -49.5 85.5c-11.333 33.333 -19.833 66.166 -25.5 98.499s-8.5 63.5 -8.5 93.5c0 55.333 9 111.333 27 168
c12.667 40 31.667 85.333 57 136c36 52 74 92 114 120c46.667 33.333 95.334 50 146.001 50c41.333 0 82.666 -11.333 123.999 -34l44 -53c10.667 -18.667 18.5 -39.167 23.5 -61.5s7.5 -44.166 7.5 -65.499c0 -15.333 -1.16699 -31.166 -3.5 -47.499s-5.5 -32.5 -9.5 -48.5
c-20.667 -52 -45 -92 -73 -120c-32.667 -32 -70.334 -48 -113.001 -48c-4 0 -8.66699 0.333008 -14 1s-9.33301 1 -12 1zM365.001 760.999c-82.667 -14 -152 -50.999 -208 -110.999c-62.667 -67.333 -102.334 -157.666 -119.001 -270.999c-2 -22 -3 -46.667 -3 -74
c0 -43.333 4.16699 -84 12.5 -122s23 -71.333 44 -100s46.167 -43 75.5 -43c10 0 19 2 27 6c23.333 28 42 70 56 126c6 24.667 16 76.667 30 156l-8 14c-18 16 -29.667 27.667 -35 35c-7.33301 10 -12.666 21.333 -15.999 34c4 0.666992 17.667 -7.66602 41 -24.999
c11.333 -8 20.333 -11.333 27 -10l44 221c10.667 39.333 18 64 22 74c10.667 28 23 46.333 37 55c2.66699 2 4.83398 1.66699 6.50098 -1s3.16699 -7.66699 4.5 -15c-19.333 -47.333 -36.666 -112 -51.999 -194c-8.66699 -44 -16.334 -85.333 -23.001 -124l1 -28
c8 -1.33301 14 -2 18 -2c13.333 0 26.666 3.33301 39.999 10c7.33301 3.33301 19 11 35 23c35.333 35.333 59.333 68.166 72 98.499s19 61.5 19 93.5c0 27.333 -3.66699 54.666 -11 81.999c-14 31.333 -31.5 54.666 -52.5 69.999s-43.5 23 -67.5 23
c-8 0 -13.667 -0.333008 -17 -1z" />
    <glyph glyph-name="Q" unicode="Q" horiz-adv-x="426" 
d="M197 -22c1.33301 -8.66699 4.5 -18.5 9.5 -29.5s10.833 -21.167 17.5 -30.5c12.667 -11.333 21 -18.666 25 -21.999c9.33301 -6.66699 18 -10 26 -10c4 0 8 1 12 3c11.333 6.66699 21.333 16.334 30 29.001l42 63c2 -8 3 -15.667 3 -23c0 -20.667 -6 -40.334 -18 -59.001
c-11.333 -14.667 -22.333 -29.667 -33 -45c-8 -8.66699 -17.667 -13 -29 -13c-10.667 0 -22.5 4 -35.5 12s-25.5 18 -37.5 30c-4.66699 5.33301 -17.334 30.333 -38.001 75c-14.667 32.667 -31 47.667 -49 45c-26 22 -48.333 49.667 -67 83
c-20.667 36 -34.334 75.333 -41.001 118s-10 85.667 -10 129c0 73.333 10.333 139.166 31 197.499s49.334 105.166 86.001 140.499c6.66699 -7.33301 12.667 -11 18 -11c6.66699 0 13.5 10.333 20.5 31s13.167 32.334 18.5 35.001c14.667 21.333 30.334 38.333 47.001 51
c21.333 16 43 24 65 24c18 0 35.833 -6.5 53.5 -19.5s33.834 -33.833 48.501 -62.5c14 -32.667 23.833 -65 29.5 -97s8.5 -64.333 8.5 -97c0 -32 -2.66699 -68 -8 -108l-16 -101c-22.667 -88 -48.334 -157.667 -77.001 -209c-36.667 -65.333 -80.667 -108.333 -132 -129z
M364 707l-36 42.998c-12 3.33301 -22.333 5 -31 5c-37.333 0 -70.333 -26 -99 -78c-9.33301 -16.667 -29.666 -67 -60.999 -151c-2.66699 -16 -4.66699 -30.167 -6 -42.5s-6.33301 -18.5 -15 -18.5c-4 1.33301 -6.83301 4.66602 -8.5 9.99902s-3.16699 12.333 -4.5 21
l27 144l-19 -22c-22 -47.333 -38.667 -92 -50 -134c-14.667 -54 -22 -108.333 -22 -163c0 -32.667 1.66699 -62 5 -88s10.333 -56.667 21 -92c10.667 -25.333 22.334 -46 35.001 -62c15.333 -19.333 30.666 -29.666 45.999 -30.999c0 9.33301 -0.333008 23.333 -1 42
s-1 32 -1 40v19c0 5.33301 1.33301 14.333 4 27c4.66699 6 8.66699 9 12 9s6.33301 -2.33301 9 -7c2 -13.333 3.33301 -34.666 4 -63.999s3.66699 -53.666 9 -72.999c2.66699 -0.666992 6 -1 10 -1c8 0 15.833 2.16699 23.5 6.5s15.167 8.83301 22.5 13.5
c37.333 38.667 69.666 96.667 96.999 174c24 68.667 42 145.667 54 231c0 16 0.5 37.167 1.5 63.5s1.5 39.833 1.5 40.5c0 27.333 -2 52.333 -6 75s-11.333 43.667 -22 63z" />
    <glyph glyph-name="R" unicode="R" horiz-adv-x="557" 
d="M526 25c-23.333 16.667 -46.999 44 -70.999 82c-10 15.333 -31.333 53 -64 113c-27.333 50.667 -49.666 87.667 -66.999 111c-3.33301 4.66699 -7.66602 7 -12.999 7h-12c-3.33301 -11.333 -14.666 -60.333 -33.999 -147c-22.667 -100.667 -53.334 -164 -92.001 -190h-12
c-21.333 0 -37.5 2.5 -48.5 7.5s-21.167 12.833 -30.5 23.5c-20 22.667 -35.833 53 -47.5 91s-19.834 77 -24.501 117c0 167.333 36.667 300.333 110 399c63.333 85.333 149 139 257 161c30.667 0 54 -3 70 -9c28 -10.667 50.333 -31.334 67 -62.001
c8.66699 -16.667 14.834 -33.167 18.501 -49.5s5.5 -33.5 5.5 -51.5c0 -21.333 -2.16699 -40.666 -6.5 -57.999s-10.833 -38.666 -19.5 -63.999c-17.333 -35.333 -41.333 -67 -72 -95c-20.667 -18.667 -49.334 -40.334 -86.001 -65.001c0.666992 -8 1 -13.667 1 -17
l156 -248c10.667 -10.667 21 -16 31 -16c13.333 0 26 10.667 38 32c19.333 34 29.666 51.667 30.999 53l8 -12l-23 -58c-16 -37.333 -35.667 -56 -59 -56c-4.66699 0 -8.33398 0.333008 -11.001 1zM477.001 735c-13.333 11.333 -26.499 19.332 -39.499 23.999
s-25.833 7 -38.5 7c-20.667 0 -46.667 -7.66699 -78 -23c-40 -20 -65.333 -31.333 -76 -34c-58.667 -42 -106 -97.667 -142 -167c-42.667 -82 -64 -173.667 -64 -275c0 -30.667 2.66699 -65.667 8 -105c9.33301 -28 18.666 -50.667 27.999 -68
c12.667 -23.333 26.334 -38.666 41.001 -45.999c9.33301 -4 18.333 -6 27 -6c12.667 0 23.667 3.66699 33 11c21.333 34 38.666 76 51.999 126c8 30 18.333 80 31 150c-21.333 4.66699 -36.333 9.33398 -45 14.001c-16 8 -29.667 20.667 -41 38
c-6 13.333 -9 26.666 -9 39.999c0 4.66699 0.666992 10.334 2 17.001c6 18.667 17.333 28 34 28c12.667 0 29.667 -5.66699 51 -17c10 -6 20.333 -11.667 31 -17c19.333 88 35.166 151.333 47.499 190s26.5 75.334 42.5 110.001h8
c2.66699 -0.666992 4.83398 -3.16699 6.50098 -7.5s3.16699 -9.5 4.5 -15.5c-16.667 -46.667 -31.667 -93.834 -45 -141.501s-25 -98.167 -35 -151.5c0 -11.333 0.5 -18.666 1.5 -21.999s3.83301 -5.33301 8.5 -6c32 6.66699 61.167 21.167 87.5 43.5
s49.833 51.166 70.5 86.499l21 57.5c7.33301 20.333 11 40.166 11 59.499c0 10.667 -1 21.5 -3 32.5s-5.66699 23.167 -11 36.5zM202.002 422.999l-8 -14.001c0 -2 1 -5 3 -9c14 -16.667 31 -25 51 -25c8 0 15 2 21 6c-7.33301 14 -17.333 24.833 -30 32.5
s-25 10.834 -37 9.50098z" />
    <glyph glyph-name="S" unicode="S" horiz-adv-x="410" 
d="M314 594l-12 15c3.33301 6.66699 15.333 24.334 36 53.001c15.333 21.333 25.666 43 30.999 65c0 9.33301 -2.16699 17 -6.5 23s-9.5 10 -15.5 12c-50.667 0 -94.667 -13 -132 -39c-42 -28.667 -72 -71.667 -90 -129c-2 -5.33301 -3 -11.666 -3 -18.999
c0 -14.667 3.66699 -27.334 11 -38.001c15.333 -22 59.333 -55.667 132 -101c54.667 -34 88.334 -85 101.001 -153c4 -21.333 6 -42 6 -62c0 -45.333 -8.16699 -86 -24.5 -122s-36.833 -63.667 -61.5 -83c-7.33301 -6 -16 -10.667 -26 -14s-19.667 -5 -29 -5
c-21.333 0 -43.5 6.83301 -66.5 20.5s-43.5 31.834 -61.5 54.501c-23.333 30 -42.666 65 -57.999 105c-17.333 44.667 -26 87.667 -26 129v35c0 18.667 1.16699 34 3.5 46s7.83301 21.333 16.5 28l10 -3c0 -12.667 -0.666992 -26.667 -2 -42c-3.33301 -38 -5 -63.333 -5 -76
c6 -37.333 15.333 -72 28 -104s28.667 -58.667 48 -80c17.333 -18.667 35 -33.167 53 -43.5s36 -15.5 54 -15.5c8 0 17 1.66699 27 5c26 14 47.333 37.333 64 70s25 71.667 25 117c-0.666992 8.66699 -1 15.334 -1 20.001v12c-14.667 57.333 -45.667 99.333 -93 126
c-60 33.333 -97.667 61.333 -113 84c-7.33301 7.33301 -13.666 16.166 -18.999 26.499s-10.333 22.166 -15 35.499c-2 13.333 -3 25.666 -3 36.999c0 54 20 100 60 138l60 52c24 10 38.333 15.667 43 17c18 6 34.333 9 49 9c13.333 0 25.166 -1.83301 35.499 -5.5
s21.5 -10.5 33.5 -20.5l13 -27c0 -38.667 -8 -71 -24 -97c-10.667 -17.333 -28.334 -36 -53.001 -56z" />
    <glyph glyph-name="T" unicode="T" horiz-adv-x="467" 
d="M433 662c-4.66699 -2 -14.667 -0.333008 -30 5c-8 2.66699 -14.667 4 -20 4c-8 0 -13.667 -3 -17 -9c-20 -50.667 -36.667 -119 -50 -205l-30 -217c-12.667 -81.333 -30 -147 -52 -197c-7.33301 -12.667 -16.166 -23 -26.499 -31s-21.5 -12 -33.5 -12
c-4 -0 -7.33301 0.333008 -10 1c-17.333 2.66699 -34.333 14.667 -51 36c-13.333 16 -26.833 38.667 -40.5 68s-25 61.166 -34 95.499s-15.167 68.5 -18.5 102.5c3.33301 11.333 9 16.666 17 15.999c14 -66 27.667 -117 41 -153c20 -54.667 44.667 -92.667 74 -114
c5.33301 -2 10.333 -3 15 -3c27.333 0 48 28.333 62 85l17 81c6.66699 32.667 14.667 86.667 24 162s17.333 129.666 24 162.999c12 59.333 27.667 108 47 146l-2 9c-52.667 22 -84 34.667 -94 38c-38 13.333 -70 20 -96 20c-19.333 0 -36.166 -3.16699 -50.499 -9.5
s-27.166 -17.5 -38.499 -33.5c-6.66699 -16.667 -11.834 -31.667 -15.501 -45s-5.5 -29 -5.5 -47c0 -12.667 0.333008 -22.167 1 -28.5s3.16699 -16.666 7.5 -30.999s12.5 -34.166 24.5 -59.499l17 -36c-0.666992 -4 -2.66699 -6 -6 -6c-1.33301 0 -7.33301 2.66699 -18 8
c-17.333 20.667 -30.666 49.5 -39.999 86.5s-14 72.833 -14 107.5c4 40.667 17.333 73.334 40 98.001c19.333 20.667 44.333 35 75 43c34.667 0 73.334 -7.66699 116.001 -23c30 -10.667 68.667 -28 116 -52c19.333 25.333 33.666 42.333 42.999 51c18 16 36.667 24 56 24
c6.66699 0 11.667 -0.333008 15 -1s9.16602 -2.66699 17.499 -6s15.166 -10.833 20.499 -22.5s8 -24.5 8 -38.5c0 -28 -9.66699 -47 -29 -57c-8.66699 -4.66699 -27.334 -9 -56.001 -13zM487 751c-8 4 -15.6689 6 -23.002 6c-13.333 0 -24.833 -4.16699 -34.5 -12.5
s-18.167 -19.833 -25.5 -34.5c9.33301 -4.66699 20.333 -7 33 -7c10.667 0 21.334 2.33301 32.001 7c6.66699 2 11.834 5.66699 15.501 11s5.5 13 5.5 23z" />
    <glyph glyph-name="U" unicode="U" horiz-adv-x="423" 
d="M367 1c-14 11.333 -26.332 28.4902 -36.999 51.4902s-18.667 47.833 -24 74.5s-8.83301 52.667 -10.5 78s-2.5 53 -2.5 83l-65 -166c-28.667 -62.667 -61.667 -100 -99 -112c-10.667 0 -21.334 5.33301 -32.001 16c-3.33301 3.33301 -19 26 -47 68
c-10 26 -17.167 51.333 -21.5 76s-6.5 49.334 -6.5 74.001c0 30.667 3.66699 64.334 11 101.001c4 21.333 11.667 52.333 23 93l94 300c-3.33301 13.333 -8.66602 21.333 -15.999 24c-18.667 -12 -35.834 -27.667 -51.501 -47s-29.834 -42.333 -42.501 -69
c-2.66699 0 -5.66699 -0.166992 -9 -0.5s-6.33301 2.16699 -9 7.5c4 36 17.333 67.333 40 94c18 20.667 41.333 38.334 70 53.001c18 0 32.333 -11.333 43 -34l5 -28c-5.33301 -40 -16.666 -86.333 -33.999 -139c-24 -74 -38 -119 -42 -135l-32 -124
c-10.667 -43.333 -16 -85.333 -16 -126v-37c2 -11.333 3.33301 -19.666 4 -24.999c4.66699 -16 10.334 -30.833 17.001 -44.5s14.667 -24.5 24 -32.5c8.66699 -4.66699 16.667 -7 24 -7c19.333 0 37.666 15.667 54.999 47l23 44
c25.333 48.667 49.666 112.334 72.999 191.001c5.33301 18 24 88.667 56 212c22 84.667 42.667 152.667 62 204c0 4.66699 1.66699 7 5 7h10c8.66699 -6 13 -14.333 13 -25c0 -2.66699 -1.16699 -8.16699 -3.5 -16.5s-3.5 -14.166 -3.5 -17.499l-61 -205
c-22 -84 -33 -161.333 -33 -232c0 -35.333 2.83301 -71.666 8.5 -108.999s14.167 -75.666 25.5 -114.999c6.66699 -9.33301 13 -14 19 -14c4 0 9.5 2 16.5 6s11.167 6 12.5 6c8.66699 4.66699 18.5 18.334 29.5 41.001s21.167 35.334 30.5 38.001l3 -16l-35 -75
c-14.667 -26 -31.667 -39 -51 -39c-5.33301 -0 -9.66602 0.333008 -12.999 1z" />
    <glyph glyph-name="V" unicode="V" horiz-adv-x="325" 
d="M310 335c-28.667 -90 -46.334 -144.335 -53.001 -163.002c-20 -56 -41.333 -104.667 -64 -146l-16 -19c-6.66699 -8 -13 -12 -19 -12c-5.33301 0 -11.166 2.5 -17.499 7.5s-12.333 13.167 -18 24.5s-9.83398 23.666 -12.501 36.999c0 56 0.833008 126.5 2.5 211.5
s2.5 133.167 2.5 144.5c0 54.667 -0.666992 100 -2 136s-4.66602 80.333 -9.99902 133c-5.33301 12.667 -11.666 19 -18.999 19c-4 0 -7.5 -1.33301 -10.5 -4s-6.5 -6.66699 -10.5 -12c-9.33301 -12.667 -18.333 -31.667 -27 -57c-3.33301 -9.33301 -10 -31.666 -20 -66.999
c-4.66699 0.666992 -7.83398 7 -9.50098 19s-2.83398 19 -3.50098 21c8 40 16.667 70.333 26 91c14 32 31.667 48 53 48c4.66699 0 9.66699 -1 15 -3c18.667 -19.333 31 -49 37 -89c3.33301 -46.667 6 -80.334 8 -101.001c0 -54.667 -0.833008 -104.167 -2.5 -148.5
l-5.5 -148c-2 -54.333 -3 -98.166 -3 -131.499c0.666992 -15.333 1.66699 -31.166 3 -47.499s6.33301 -29.166 15 -38.499c17.333 8.66699 33 31.334 47 68.001l34 87c22 64.667 38.333 115.667 49 153c18 61.333 31.5 118.5 40.5 171.5s13.5 111.167 13.5 174.5
c0 9.33301 -1.33301 19.666 -4 30.999c-7.33301 31.333 -11 49.333 -11 54c0 6 1 11 3 15c6.66699 2.66699 13.334 1 20.001 -5c4.66699 -4 8 -8.66699 10 -14c6.66699 -42 10 -83.333 10 -124c0 -52.667 -5.33301 -107.667 -16 -165c-4 -22.667 -15.667 -73 -35 -151z" />
    <glyph glyph-name="W" unicode="W" horiz-adv-x="551" 
d="M539 443c-12.667 -56 -24.6719 -104.336 -36.0049 -145.003c-17.333 -61.333 -32 -108.333 -44 -141c-15.333 -40.667 -35 -82 -59 -124c-8 -8 -14.333 -13.667 -19 -17c-8.66699 -6 -16.667 -9 -24 -9c-6.66699 0 -13.334 2.33301 -20.001 7
c-17.333 14.667 -31.333 36.667 -42 66s-17.667 60 -21 92c0 82 9.33301 174.333 28 277l50 255c-1.33301 6.66699 -2.5 12.167 -3.5 16.5s-3.16699 7.83301 -6.5 10.5l-10 -4c-21.333 -58 -42.666 -128 -63.999 -210c-10.667 -40.667 -27.5 -113 -50.5 -217
s-41.167 -181.333 -54.5 -232c-8.66699 -24.667 -15 -40 -19 -46c-9.33301 -14.667 -20.666 -22 -33.999 -22c-2 0 -6.33301 0.666992 -13 2c-12 5.33301 -22.333 15.166 -31 29.499s-16.667 31.833 -24 52.5c-4.66699 16.667 -8.33398 35.334 -11.001 56.001s-4 38 -4 52
c0 22 1.83301 46.667 5.5 74l10.5 79c4 21.333 13.667 64 29 128c22.667 94.667 34 171.334 34 230.001c-1.33301 5.33301 -3.66602 10.666 -6.99902 15.999s-6.66602 8 -9.99902 8c-14 -10.667 -27 -28 -39 -52c-8.66699 -16.667 -18 -39 -28 -67c-8 -2 -14 4 -18 18
c7.33301 39.333 16.666 70.666 27.999 93.999c16 32 36 48 60 48c4 0 7.33301 -0.333008 10 -1c10 -7.33301 17.833 -19 23.5 -35s8.5 -32.333 8.5 -49c-1.33301 -14 -20 -116.667 -56 -308c-13.333 -70.667 -20 -135 -20 -193c0 -24 1.83301 -46.667 5.5 -68
s10.834 -40.666 21.501 -57.999c6.66699 -4.66699 13.334 -7 20.001 -7c6 0 11 2.33301 15 7l22 49c3.33301 14 17.666 82 42.999 204c17.333 82 33 151.333 47 208c18.667 74 38.334 138.667 59.001 194c10 26 19 43 27 51s17.333 12 28 12
c2.66699 -0.666992 5.83398 -3.33398 9.50098 -8.00098l12.5 -16c2.66699 -18 4 -36.667 4 -56s-2.33301 -42.833 -7 -70.5s-8 -48.5 -10 -62.5l-34 -212.5c-11.333 -73 -17 -144.167 -17 -213.5c0.666992 -8.66699 2.83398 -18.167 6.50098 -28.5s9.5 -23.166 17.5 -38.499
c9.33301 -7.33301 17.666 -11 24.999 -11c10.667 0 21 9 31 27c14.667 26.667 23.334 41.334 26.001 44.001c24.667 60.667 45.334 117 62.001 169c22 69.333 39.167 135.833 51.5 199.5s18.5 127.834 18.5 192.501c-4.66699 30.667 -7.66699 50 -9 58
c-4.66699 22 -10.334 39.333 -17.001 52c8.66699 0.666992 15.334 1 20.001 1c5.33301 0 9.66602 -1.66699 12.999 -5s5 -10.333 5 -21c10 -39.333 15 -78.333 15 -117c0 -31.333 -3.5 -66.166 -10.5 -104.499z" />
    <glyph glyph-name="X" unicode="X" horiz-adv-x="647" 
d="M580 440c-8.66699 -10.667 -18.002 -15.9971 -28.002 -15.9971c-6.66699 0 -14.667 3 -24 9l-14 25c-4.66699 8.66699 -7.66699 16.834 -9 24.501s-2.16602 14.167 -2.49902 19.5s-0.5 9.66602 -0.5 12.999c0 18.667 2.83301 36.167 8.5 52.5s13.5 30.833 23.5 43.5
c2 2 5 3 9 3c7.33301 0 13 -4.66699 17 -14l3 -12c-9.33301 -9.33301 -17 -20 -23 -32s-9 -26.333 -9 -43c0 -8.66699 1 -18.667 3 -30c4.66699 -6.66699 10.667 -10 18 -10c6.66699 0 12.334 2.33301 17.001 7c18.667 23.333 33.334 47.666 44.001 72.999
c14.667 34 22 69.333 22 106c0 26 -4.33301 53 -13 81c-10 12 -20.667 20.833 -32 26.5s-22.333 8.5 -33 8.5c-14.667 0 -31 -5 -49 -15c-10 -6 -23.667 -15.667 -41 -29c-39.333 -44 -70.666 -95.667 -93.999 -155c-27.333 -69.333 -41 -143 -41 -221
c0 -60.667 8.66699 -123.334 26 -188.001c19.333 -58.667 48.666 -95.667 87.999 -111c8 -2 16 -3 24 -3c30 0 58 13.667 84 41c16.667 17.333 36.667 46.666 60 87.999h11c0 -38.667 -12.333 -73.334 -37 -104.001l-38 -44c-16.667 -15.333 -37.667 -23 -63 -23
c-27.333 0 -52.333 9 -75 27c-25.333 20.667 -48 51.667 -68 93c-17.333 36.667 -31.666 79 -42.999 127l-63 -154c-30 -56.667 -65.333 -85 -106 -85c-11.333 0 -23 2 -35 6c-19.333 6.66699 -38.333 21.667 -57 45s-33.667 49.666 -45 78.999
c-8 18.667 -14.833 38 -20.5 58s-8.5 38.667 -8.5 56c0 6.66699 1.66699 10 5 10c0.666992 0 6.66699 -3.33301 18 -10c6 -6.66699 10 -18.5 12 -35.5s5 -28.833 9 -35.5c6 -25.333 16.333 -48.666 31 -69.999c12 -17.333 27.333 -34 46 -50
c13.333 -3.33301 24.333 -5 33 -5c46 0 84.333 37 115 111c9.33301 22.667 22.666 62.334 39.999 119.001l21 120c8.66699 50 13 92.333 13 127c0 24.667 -1.66699 49.834 -5 75.501s-9.33301 52.5 -18 80.5c-13.333 26 -29 45.333 -47 58c-10 2.66699 -20 4 -30 4
c-28 0 -52.667 -13.333 -74 -40c-26 -32.667 -49.333 -90.334 -70 -173.001c-2 -2.66699 -3.66699 -14 -5 -34s-4.66602 -30 -9.99902 -30c-3.33301 0 -7.33301 2.33301 -12 7c0 50.667 7.33301 100 22 148c10.667 34 26.667 71.667 48 113c10 16 23.667 29.5 41 40.5
s35 16.5 53 16.5c17.333 0 33.833 -5.33301 49.5 -16s30.167 -28.667 43.5 -54c9.33301 -18.667 17.5 -40 24.5 -64s11.833 -47 14.5 -69l5 -7c23.333 60 52.166 106.833 86.499 140.5s75.833 56.167 124.5 67.5c20.667 -2.66699 39.667 -10.834 57 -24.501
s31.666 -34.167 42.999 -61.5c6 -27.333 9 -52.666 9 -75.999c0 -42.667 -8.33301 -83 -25 -121c-12.667 -28.667 -30.667 -57 -54 -85z" />
    <glyph glyph-name="Y" unicode="Y" horiz-adv-x="382" 
d="M244 -59c-14.667 -35.333 -26.665 -59.999 -35.998 -73.999c-17.333 -25.333 -37.333 -38 -60 -38c-6 0 -12.667 1 -20 3c-20.667 12 -39.167 30.667 -55.5 56s-28.5 54.666 -36.5 87.999c-2 12 -4.33301 27.667 -7 47s-4 38.333 -4 57c0 25.333 3.33301 47 10 65
c4.66699 0 8.66699 -2.66699 12 -8c4 -44.667 8.33301 -89 13 -133c9.33301 -54.667 28.666 -93 57.999 -115c7.33301 -2.66699 14.666 -4 21.999 -4c23.333 0 43 16 59 48c10 20.667 20 51.667 30 93l96 401l-3 1c-9.33301 -14 -25.333 -50 -48 -108
c-34 -87.333 -70.333 -131 -109 -131c-13.333 0 -27 3.66699 -41 11c-12.667 16 -23.667 35.167 -33 57.5s-14 44.5 -14 66.5c0 60 9 128.333 27 205l48 186c-1.33301 8 -4 14.167 -8 18.5s-7.66699 5.5 -11 3.5c-24.667 -14 -46.5 -32.5 -65.5 -55.5
s-37.167 -51.167 -54.5 -84.5c-5.33301 2.66699 -8 10.667 -8 24c0 7.33301 0.666992 14.333 2 21c10.667 32.667 26.667 61.334 48 86.001c8 9.33301 29 29.333 63 60c12.667 0 22 -0.5 28 -1.5s13 -4.83301 21 -11.5c11.333 -22 17 -46.333 17 -73
c0 -15.333 -1.16699 -28.666 -3.5 -39.999s-6.5 -26 -12.5 -44l-40 -146c-13.333 -50.667 -20 -98.334 -20 -143.001c2 -14 4.33301 -29 7 -45s8 -27.667 16 -35c8.66699 -15.333 18 -23 28 -23c4.66699 0 9.66699 1.16699 15 3.5s10.666 4.83301 15.999 7.5
c28 40.667 54.667 89 80 145c16.667 37.333 39.334 92.666 68.001 165.999c34.667 89.333 57.334 146.333 68.001 171c10 -6.66699 16 -12.334 18 -17.001v-35c-21.333 -65.333 -43 -143.666 -65 -234.999l-56 -249c-22.667 -101.333 -42.334 -182 -59.001 -242z" />
    <glyph glyph-name="Z" unicode="Z" horiz-adv-x="330" 
d="M269 196c-20 -92.667 -43.6621 -166.999 -70.9951 -222.999c-35.333 -72 -78 -119.667 -128 -143c-22 0 -39 11.667 -51 35c-4.66699 9.33301 -8.33398 20.333 -11.001 33s-4 23 -4 31c0 16 3 34 9 54l13 43c17.333 34 38.666 66.333 63.999 97
c20 24 45.667 50.333 77 79l83 71c2 11.333 3 24.333 3 39c0 18 -1.5 33.833 -4.5 47.5s-8.5 28.167 -16.5 43.5c-2.66699 7.33301 -6 11 -10 11c-4.66699 0 -8.33398 -3.66699 -11.001 -11c-26 -50 -47 -86 -63 -108c-28 -38 -57.667 -61 -89 -69
c-8 2.66699 -14.5 5.66699 -19.5 9s-9.33301 9 -13 17s-6.16699 16.167 -7.5 24.5s-2 16.166 -2 23.499c0 20 5 41 15 63c7.33301 14 12.333 24 15 30c17.333 24.667 34 43.667 50 57c21.333 17.333 43.333 26 66 26c15.333 0 30.333 -3.66699 45 -11
c12.667 28 23.834 60.333 33.501 97s16.167 74.667 19.5 114c0 11.333 -1.83301 22.333 -5.5 33s-9.16699 21 -16.5 31c-12 10 -24.667 15 -38 15c-11.333 0 -23 -3.33301 -35 -10c-7.33301 -4.66699 -17 -12 -29 -22c-20.667 -19.333 -40.334 -44.166 -59.001 -74.499
s-35 -63.5 -49 -99.5c-2 -2 -4.66699 -0.666992 -8 4c0 30.667 8 61 24 91c20.667 32 35.334 55.333 44.001 70c29.333 31.333 45.666 48.333 48.999 51c20.667 17.333 41 26 61 26c13.333 0 27.666 -4.33301 42.999 -13l20 -30c5.33301 -18.667 9 -35.834 11 -51.501
s3 -32.167 3 -49.5c0 -24.667 -3 -51 -9 -79c-1.33301 -5.33301 -13 -45.333 -35 -120c10.667 -19.333 20.167 -42.666 28.5 -69.999s14.833 -54 19.5 -80l51 35c0.666992 -2 1.16699 -3.83301 1.5 -5.5s1.16602 -3.83398 2.49902 -6.50098l-42 -41
c-16.667 -16.667 -25 -37.667 -25 -63c0 -8.66699 0.333008 -15.667 1 -21zM73.0049 378.001l-22 -40.999c-8.66699 -16.667 -13 -33.667 -13 -51c0 -8 1.66699 -14.5 5 -19.5s7.33301 -6.83301 12 -5.5c21.333 5.33301 41.333 18.666 60 39.999
c4 4.66699 29.333 44.667 76 120l2 15c-10 4 -19.333 6 -28 6c-16 0 -32.667 -7 -50 -21c-5.33301 -4.66699 -19.333 -19 -42 -43zM239.005 234.002l-117.001 -122.001c-43.333 -50.667 -74 -103.667 -92 -159l-4 -34c0 -13.333 3.66699 -24 11 -32s15.333 -12 24 -12
c3.33301 0 6.5 0.5 9.5 1.5s5.83301 2.5 8.5 4.5c44.667 33.333 81.834 80.333 111.501 141s48.5 131.334 56.5 212.001h-8z" />
    <glyph glyph-name="bracketleft" unicode="[" horiz-adv-x="156" 
d="M29 732v-700h88v-25h-103v750h118v-25h-103z" />
    <glyph glyph-name="backslash" unicode="\" horiz-adv-x="225" 
d="M206 0l-186 755l14 10l186 -755z" />
    <glyph glyph-name="bracketright" unicode="]" horiz-adv-x="164" 
d="M28 7v25h88v700h-103v25h118v-750h-103z" />
    <glyph glyph-name="asciicircum" unicode="^" horiz-adv-x="201" 
d="M161 410l-56 230l-50 -219l-14 8l64 282l70 -291z" />
    <glyph glyph-name="underscore" unicode="_" horiz-adv-x="450" 
d="M24 -53v25h408v-25h-408z" />
    <glyph glyph-name="grave" unicode="`" horiz-adv-x="165" 
d="M21 690l3 50l24 5l87 -190l-9 -20z" />
    <glyph glyph-name="a" unicode="a" horiz-adv-x="255" 
d="M210 84c2.66699 -2.66699 6 -5.33496 10 -8.00195s7.33301 -4.66699 10 -6c2 -3.33301 3.83301 -8.5 5.5 -15.5s2.5 -13.833 2.5 -20.5c0 -9.33301 -1.33301 -14 -4 -14s-5.5 0.333008 -8.5 1s-5.83301 1.66699 -8.5 3c-9.33301 8 -18.5 20.167 -27.5 36.5
s-18.833 42.5 -29.5 78.5c-11.333 -24.667 -20.333 -43.667 -27 -57c-22 -45.333 -44 -68 -66 -68c-9.33301 0 -18.666 3.33301 -27.999 10c-12 18 -20.5 36 -25.5 54s-7.5 36.667 -7.5 56c0 16 2 34.333 6 55l9 47c17.333 49.333 31.333 83 42 101
c19.333 32 43.333 48 72 48c5.33301 0 9.66602 -0.333008 12.999 -1c7.33301 -4.66699 14.666 -11.667 21.999 -21l20 -28c4.66699 2.66699 10.334 11.834 17.001 27.501s14.667 22.834 24 21.501l14 -18c-3.33301 -12 -11 -35 -23 -69
c-17.333 -49.333 -26 -90.333 -26 -123c0 -28 4.66699 -58 14 -90zM173 304.999l-16 22.002c-7.33301 2.66699 -14.333 4 -21 4c-15.333 0 -27.833 -6.33301 -37.5 -19s-24.167 -44 -43.5 -94c0 -8.66699 -1.33301 -19.667 -4 -33c-6 -30.667 -9 -51.334 -9 -62.001
c0 -8 0.5 -15.667 1.5 -23s4.16699 -17.333 9.5 -30c27.333 13.333 51 42.666 71 87.999l52 129z" />
    <glyph glyph-name="b" unicode="b" horiz-adv-x="353" 
d="M330 137c-6 -2.66699 -11.333 -4.66602 -16 -5.99902s-10.667 -2 -18 -2c-4 0 -10.667 0.666992 -20 2c-14.667 -40 -28.667 -69.667 -42 -89c-20 -28 -43.333 -42 -70 -42c-14.667 9.33301 -28.334 23.666 -41.001 42.999s-22.667 41 -30 65
c-4.66699 -4 -18.667 -25 -42 -63c-10 -15.333 -19.333 -26 -28 -32c-4.66699 4.66699 -7 14.667 -7 30c0 10 1.66699 17.667 5 23c6 4 12.333 10.167 19 18.5l15 18.5c17.333 21.333 28.333 55 33 101c2 42.667 4.5 87.667 7.5 135s10.167 83.333 21.5 108
c14 78.667 35 148.834 63 210.501s62 109.167 102 142.5c12 0 23.333 -8 34 -24c3.33301 -15.333 5 -31.666 5 -48.999c0 -20 -3 -41.167 -9 -63.5l-17 -63.5c-12.667 -51.333 -29 -104.333 -49 -159s-40.5 -106.167 -61.5 -154.5l-63.5 -144.5
c6.66699 -33.333 10.667 -52 12 -56c7.33301 -22.667 17.333 -35 30 -37c20 4 37 17.333 51 40c12 18.667 21.333 42.667 28 72c-9.33301 17.333 -16.333 36.666 -21 57.999s-7 41.666 -7 60.999c0 17.333 1.33301 32.333 4 45c5.33301 15.333 9.33301 25.333 12 30
c6 9.33301 13.333 14 22 14c5.33301 0 11 -2 17 -6c10.667 -13.333 18.167 -27.833 22.5 -43.5s6.5 -32.167 6.5 -49.5c0 -13.333 -0.333008 -24 -1 -32c-2.66699 -32 -4 -48.333 -4 -49c4.66699 -5.33301 10.334 -8 17.001 -8s14 2.33301 22 7c3.33301 -12 5 -23 5 -33
c0 -11.333 -2.33301 -17.333 -7 -18zM276 755.001c-38.667 -55.333 -71.668 -125.999 -99.001 -211.999c-23.333 -74.667 -41.666 -160.334 -54.999 -257.001l6 -24l71 170c8 26.667 22.333 65.667 43 117c32 80 48 148.667 48 206h-14zM251.999 215.002l4 -0.000976562
c8 18 12 37.333 12 58c0 5.33301 -0.166992 11.5 -0.5 18.5s-2.83301 16.5 -7.5 28.5c-10 -9.33301 -15 -25.666 -15 -48.999c0 -8 0.666992 -16.667 2 -26s3 -19.333 5 -30z" />
    <glyph glyph-name="c" unicode="c" horiz-adv-x="213" 
d="M64 26c-12.667 10 -23.5029 24.832 -32.5029 44.499s-15.5 40.5 -19.5 62.5l-1 25v31c0 14 0.5 23.833 1.5 29.5s3.5 15.834 7.5 30.501l41 80c16.667 26.667 35.334 40 56.001 40c14 0 30.333 -6.33301 49 -19c4.66699 -4.66699 8 -10.334 10 -17.001s3 -12.667 3 -18
c-0.666992 -12 -1 -21 -1 -27c0 -5.33301 0.333008 -9.33301 1 -12c-3.33301 -12 -5.66602 -20 -6.99902 -24c-5.33301 -13.333 -12.666 -20 -21.999 -20c-5.33301 6 -8 13.667 -8 23c0 6 1.5 14.667 4.5 26s4.5 19 4.5 23c0 13.333 -7.66699 24.333 -23 33
c-23.333 -12 -43.166 -34.833 -59.499 -68.5s-24.5 -71.5 -24.5 -113.5c0 -12 1.16699 -24.167 3.5 -36.5s6.66602 -24.166 12.999 -35.499s13.5 -20 21.5 -26c14 -5.33301 26.667 -8 38 -8c24.667 0 48 10.333 70 31c6.66699 -0.666992 11.167 -5 13.5 -13
s3.5 -15.667 3.5 -23c-12 -12.667 -24.667 -23.167 -38 -31.5s-27.333 -12.5 -42 -12.5c-20.667 0 -41.667 8.66699 -63 26z" />
    <glyph glyph-name="d" unicode="d" horiz-adv-x="345" 
d="M197 146c0 -17.333 4.00098 -34.167 12.001 -50.5s17.667 -27.833 29 -34.5c2.66699 -0.666992 6.66699 -1 12 -1c4 0 7 0.333008 9 1c4 -5.33301 7 -11.333 9 -18s3 -12 3 -16c0 -5.33301 -0.5 -9.5 -1.5 -12.5s-2.83301 -7.5 -5.5 -13.5
c-2.66699 -0.666992 -6.66699 -1 -12 -1c-4 -0 -11.333 1.33301 -22 4c-10.667 8 -20.5 21.167 -29.5 39.5l-25.5 52.5c-4 -4 -13.333 -17 -28 -39c-21.333 -31.333 -41.666 -47 -60.999 -47c-8.66699 0 -17.667 2.33301 -27 7c-16 20.667 -28 44 -36 70
c0 4 -0.333008 8.33301 -1 13c-2.66699 18.667 -4 31.334 -4 38.001c0 4.66699 0.666992 11.667 2 21c9.33301 57.333 21.666 102 36.999 134c21.333 43.333 48.333 65 81 65c6.66699 0 11.667 -0.333008 15 -1c4 -6 8.33301 -8 13 -6
c16.667 94.667 35.667 174.334 57 239.001c28 85.333 61.667 151.666 101 198.999c7.33301 7.33301 15.666 11 24.999 11c2.66699 0 6 -0.666992 10 -2c7.33301 -4.66699 12.333 -10.5 15 -17.5s5.66699 -23.833 9 -50.5c-10.667 -71.333 -26.667 -142 -48 -212
c-16.667 -54.667 -38.667 -117.334 -66 -188.001zM339.001 749.999c-42 -70 -75 -142.334 -99 -217.001c-28.667 -90 -43 -181.333 -43 -274c23.333 44 46.333 97 69 159c20 55.333 39.667 118 59 188c7.33301 24 13.5 47.833 18.5 71.5s7.5 47.834 7.5 72.501h-12z
M154.001 306.998l-10.001 11.001c-27.333 0 -48.666 -21.667 -63.999 -65c-4.66699 -13.333 -10.667 -36 -18 -68c-1.33301 -9.33301 -2.5 -18.833 -3.5 -28.5s-1.5 -17.834 -1.5 -24.501c0 -28 6.33301 -51 19 -69c17.333 2.66699 33.666 15 48.999 37
c4.66699 6.66699 16.334 28.334 35.001 65.001c-1.33301 8.66699 -2 23.667 -2 45c-0.666992 8.66699 -1 17.667 -1 27v18c0 15.333 -1 32.666 -3 51.999z" />
    <glyph glyph-name="e" unicode="e" horiz-adv-x="169" 
d="M66 19c-10 2.66699 -19.002 12.001 -27.002 28.001c-16 32 -24.333 48.333 -25 49c-0.666992 6 -1.16699 12 -1.5 18s-2.16602 18.667 -5.49902 38c0 51.333 8 95.666 24 132.999s38 65 66 83c9.33301 2 17.666 1.16699 24.999 -2.5s14.333 -11.5 21 -23.5
c3.33301 -16.667 5 -30.667 5 -42c0 -26.667 -6.66699 -54.334 -20 -83.001l-33 -65l-40 -61c3.33301 -10.667 7 -18.667 11 -24s10.333 -10.666 19 -15.999c26 0 46 6.66699 60 20c2.66699 -7.33301 4.33398 -13 5.00098 -17c3.33301 -13.333 4.33301 -24 3 -32l-25 -13
c-11.333 -6 -20.666 -9 -27.999 -9c-10.667 -0 -22 6.33301 -34 19zM97.998 324.001c-21.333 -37.333 -33.333 -59.002 -36 -65.002c-12 -26 -18 -52.333 -18 -79c0 -4.66699 0.333008 -9.66699 1 -15s1 -9.66602 1 -12.999l36 59c2 6.66699 8.66699 20.334 20 41.001
c9.33301 16.667 14 33 14 49c0 7.33301 -1 15 -3 23h-15z" />
    <glyph glyph-name="f" unicode="f" horiz-adv-x="222" 
d="M194 509c-12.667 -36.667 -27.3311 -73.666 -43.998 -110.999c-12.667 -28 -30.334 -63.667 -53.001 -107c14 -23.333 22 -36.333 24 -39c8.66699 -14.667 14.667 -29 18 -43c3.33301 -6 6.66602 -9 9.99902 -9c2 0 5 2 9 6s6.66699 6.33301 8 7l15 18l9 -36
c-14.667 -8 -23.667 -13.667 -27 -17c-8.66699 -8.66699 -13 -20 -13 -34c0 -7.33301 0.333008 -13.333 1 -18s2.66699 -13 6 -25c0 -66.667 -5.83301 -127.667 -17.5 -183s-30.167 -101 -55.5 -137c-10.667 -4 -20.667 -6 -30 -6c-12 0 -21.333 4.33301 -28 13
c-12 12 -20 26.167 -24 42.5s-6 36.166 -6 59.499c0 9.33301 0.166992 18.166 0.5 26.499s0.5 16.5 0.5 24.5c0 34.667 3.33301 74.167 10 118.5l20 127.5c2 2.66699 3.83301 14.5 5.5 35.5s4.5 38.833 8.5 53.5l58 270c19.333 89.333 38.333 153 57 191
c16 32.667 36 58 60 76c4.66699 2.66699 9.66699 1.33398 15 -3.99902s9.33301 -12 12 -20c2 -20 3 -38.667 3 -56c0 -30 -3.33301 -60 -10 -90c-1.33301 -5.33301 -15.333 -50 -42 -134zM226.003 772.001c-2 4.66699 -5 6.33398 -9 5.00098
c-22 -33.333 -41.667 -75.333 -59 -126c-14.667 -42.667 -28 -91.334 -40 -146.001c-6.66699 -30 -16.334 -80.667 -29.001 -152c30.667 53.333 57.334 110.833 80.001 172.5s42.667 130.167 60 205.5zM110.003 217.001c-5.33301 20.667 -15.333 33 -30 37
c-2.66699 -4 -3 -9.33301 -1 -16s5 -14.334 9 -23.001c2.66699 -1.33301 6.66699 -4.16602 12 -8.49902s9.33301 -4.83301 12 -1.5zM121.003 156.001c-8 1.33301 -15.334 4.17188 -22.001 8.50488s-18.667 15.166 -36 32.499c-12 -44 -21.167 -88.5 -27.5 -133.5
s-9.5 -90.5 -9.5 -136.5c-2.66699 -4.66699 -4 -11.334 -4 -20.001c0 -4 1.66699 -16.667 5 -38c1.33301 -8.66699 2 -16.667 2 -24c9.33301 -18.667 14.333 -28.334 15 -29.001c4 -4.66699 8.66699 -6.33398 14 -5.00098c18.667 15.333 34 42.666 46 81.999
c8.66699 28.667 16.334 67.667 23.001 117c3.33301 23.333 5 46 5 68c0 15.333 -0.666992 28.5 -2 39.5s-4.33301 23.833 -9 38.5z" />
    <glyph glyph-name="g" unicode="g" horiz-adv-x="262" 
d="M192 47c17.333 5.33301 32.999 17.333 46.999 36c0.666992 -2.66699 1.33398 -6.5 2.00098 -11.5s1 -10.167 1 -15.5c-0.666992 -8 -1 -14.667 -1 -20l-15 -21c-30.667 -4.66699 -48.334 -36.667 -53.001 -96c-6.66699 -81.333 -12.667 -128 -18 -140l-34 -126
c-17.333 -45.333 -40.666 -68 -69.999 -68l-17 2c-7.33301 6.66699 -14.333 16.334 -21 29.001s-10.834 24.167 -12.501 34.5s-2.66699 18.666 -3 24.999s-0.5 13.5 -0.5 21.5c0 68.667 17 130 51 184c23.333 37.333 58.333 75.666 105 114.999
c6 60.667 12.333 121.334 19 182.001c-4 -4.66699 -17.333 -28.667 -40 -72c-16.667 -32 -34 -51.667 -52 -59c-8 2 -16.667 7.33301 -26 16s-16.666 19.334 -21.999 32.001c-0.666992 5.33301 -2 10.166 -4 14.499s-4.66699 8.83301 -8 13.5
c-0.666992 5.33301 -1 14.333 -1 27c0 20.667 2 40 6 58c0.666992 2 2.16699 8.33301 4.5 19s3.5 21 3.5 31c25.333 48 40.333 75.333 45 82c18.667 26.667 39.334 40 62.001 40c10 0 20 -2.33301 30 -7l26 -42c0 0.666992 4.66699 12 14 34c5.33301 13.333 11.333 20 18 20
c4 0 7.66699 -1.33301 11 -4l4 -18c-16.667 -42 -29.334 -90.333 -38.001 -145s-13 -111.667 -13 -171zM176.999 309c-6.66699 12.667 -12.6689 21.6689 -18.002 27.002c-7.33301 8 -14.666 11 -21.999 9c-18 -11.333 -33.333 -29.333 -46 -54
c-8.66699 -16.667 -18.667 -42.334 -30 -77.001c-1.33301 -7.33301 -2.66602 -15.5 -3.99902 -24.5s-2 -17.833 -2 -26.5c0 -11.333 0.333008 -19.833 1 -25.5s3 -13.834 7 -24.501l18 -4c18.667 16 37 42 55 78l44 96zM55.9971 -176.998
c-1.33301 -4.66699 -7.33301 -24.333 -18 -59c-8 -25.333 -12 -46.666 -12 -63.999c0 -22 5 -44.333 15 -67c4 -2 7.66699 -3 11 -3c7.33301 0 14 5 20 15l18 29c18.667 69.333 29 108.666 31 117.999c10 45.333 15 89.333 15 132l-44 -44c-16 -18 -28 -37 -36 -57z" />
    <glyph glyph-name="h" unicode="h" horiz-adv-x="241" 
d="M221 632l-58.001 -150c-7.33301 -18.667 -24.833 -66.834 -52.5 -144.501l-55.5 -153.5l3 -4l52 113c22 40.667 47 65.334 75 74.001c14 -3.33301 25.333 -14.666 34 -33.999c1.33301 -6.66699 2.33301 -14 3 -22s1 -15.667 1 -23
c0 -21.333 -6.66699 -62.666 -20 -123.999c-6.66699 -30.667 -10 -56.334 -10 -77.001c0.666992 -3.33301 1 -8.33301 1 -15c0 -16.667 -3 -27.334 -9 -32.001c-16 25.333 -24 54.666 -24 87.999c2 22.667 5.33301 44 10 64c14 63.333 21.333 98 22 104
c-1.33301 10 -4.66602 16.833 -9.99902 20.5s-10 3.16699 -14 -1.5c-28 -38 -52.667 -84.333 -74 -139c-18 -46.667 -35.333 -104 -52 -172c-3.33301 -5.33301 -7 -5.5 -11 -0.5s-8.33301 12.5 -13 22.5l-8 34v33c0 12.667 1 27 3 43c3.33301 9.33301 6 25.833 8 49.5
s4 40.5 6 50.5c12 104.667 21 175.334 27 212.001c12.667 78.667 28 145 46 199c21.333 64 48 115 80 153c8 0 16.333 -0.166992 25 -0.5s15.667 -7.83301 21 -22.5c8 -19.333 12 -38.333 12 -57c0 -14 -2 -28.5 -6 -43.5zM194.999 759
c-23.333 -26.667 -43.3311 -64.667 -59.998 -114c-12.667 -38 -24.334 -87.333 -35.001 -148c-4.66699 -26 -12.667 -78.333 -24 -157l109 292c1.33301 8 5.16602 22.333 11.499 43s9.5 37.334 9.5 50.001c0 9.33301 -1.66699 20.666 -5 33.999h-6z" />
    <glyph glyph-name="i" unicode="i" horiz-adv-x="130" 
d="M132 377c-3.33301 -2 -7 -3.00195 -11 -3.00195c-11.333 0 -22 6 -32 18c-4 12.667 -6.66699 21.667 -8 27s-2 11.666 -2 18.999c0 6.66699 0.333008 11.334 1 14.001c0 6 3 10.833 9 14.5s9.66699 7.83398 11 12.501c8.66699 2.66699 17 -1 25 -11
c3.33301 -4 7.33301 -11.167 12 -21.5s7 -20.166 7 -29.499c0 -8 -1 -14.833 -3 -20.5s-5 -12.167 -9 -19.5zM73 19.998c-2.66699 -13.333 -8.66699 -20.001 -18 -20.001c-10 0 -20.5 7.33301 -31.5 22s-16.5 30 -16.5 46c10.667 22 25.667 77.333 45 166
c9.33301 43.333 19.333 78 30 104c7.33301 2.66699 14.333 -1.33301 21 -12c0 -28.667 -3.33301 -60 -10 -94c-16 -82 -24 -134 -24 -156v-23.5c0 -6.33301 1.33301 -17.166 4 -32.499z" />
    <glyph glyph-name="j" unicode="j" horiz-adv-x="151" 
d="M148 390c-7.33301 1.33301 -14 4.33301 -20 9s-11 12.667 -15 24c-1.33301 3.33301 -2.33301 7.16602 -3 11.499s-1 7.83301 -1 10.5c0 10 3.33301 16.333 10 19c17.333 6 31.333 -2.33301 42 -25c4 -9.33301 6 -17.333 6 -24c0 -15.333 -6.33301 -23.666 -19 -24.999z
M98 6c0 -15.333 -1.33301 -31.3291 -4 -47.9961s-5.66699 -30 -9 -40l-36 -241c-18.667 -90.667 -48.334 -148 -89.001 -172c-12 5.33301 -20.333 9.66602 -25 12.999c-10 7.33301 -17.667 16.666 -23 27.999c-9.33301 28.667 -14 57 -14 85c0 31.333 7 65.666 21 102.999
l35 88c6.66699 20 28.334 52.667 65.001 98c28.667 36 43 78 43 126c0 1.33301 0.333008 11.333 1 30s2 38 4 58c10 23.333 19 57.333 27 102c6 38 12.333 76 19 114c2 2 6 1.83301 12 -0.5s11.333 -7.5 16 -15.5c0 -34 -4.33301 -74.667 -13 -122
c-20 -108.667 -30 -177.334 -30 -206.001zM35 -136.996c-26.667 -23.333 -48.668 -59.334 -66.001 -108.001c-14 -39.333 -26 -90.666 -36 -153.999c-1.33301 -9.33301 0.333984 -17.833 5.00098 -25.5s10.667 -12.167 18 -13.5c22.667 24.667 41 66 55 124
c5.33301 22 15 75 29 159z" />
    <glyph glyph-name="k" unicode="k" horiz-adv-x="282" 
d="M170 129c9.33301 -14.667 20.0039 -29.001 32.0039 -43.001s23.667 -23.667 35 -29c2.66699 -10.667 4 -18.667 4 -24c0 -12.667 -6 -18.667 -18 -18c-13.333 9.33301 -27.666 23.333 -42.999 42c-10.667 12.667 -23.334 30.334 -38.001 53.001
c-2.66699 2.66699 -5.83398 4.66699 -9.50098 6s-9.5 2 -17.5 2c-10.667 0 -18.667 2.33301 -24 7l-51 -125c-9.33301 2 -15.333 9 -18 21c-2.66699 4.66699 -4 9 -4 13c1.33301 6 2 10.333 2 13c0 4.66699 -2.33301 8.66699 -7 12c0 18 1 35.833 3 53.5
s6.33301 37.167 13 58.5c10.667 33.333 20 78 28 134c20 140.667 32 219 36 235l41 160c21.333 60 50 93.333 86 100c9.33301 -8 16.666 -19.167 21.999 -33.5s7 -27.833 5 -40.5c-8.66699 -61.333 -25.334 -127.333 -50.001 -198c-7.33301 -20.667 -31 -81.667 -71 -183
c-30 -75.333 -50.667 -137.333 -62 -186l3 -5c34.667 67.333 57 109 67 125c26.667 42.667 54.667 73.667 84 93c4.66699 2.66699 9.66699 4 15 4c8.66699 0 17.167 -3.16699 25.5 -9.5s15.5 -15.5 21.5 -27.5c0 -51.333 -12 -95 -36 -131
c-8.66699 -12.667 -33.334 -39 -74.001 -79zM207.004 761.999c-19.333 -27.333 -36.334 -63.667 -51.001 -109c-12 -37.333 -22.333 -81 -31 -131c-6 -35.333 -12.667 -80.333 -20 -135l31 72c24.667 58.667 42 104 52 136c16 51.333 26.667 104 32 158
c-3.33301 6 -7.66602 9 -12.999 9zM223.003 325.998c-40 -41.333 -73.334 -92 -100.001 -152c8.66699 -8.66699 16.667 -13 24 -13c6.66699 0 13.334 4 20.001 12c20.667 24 31.667 37.333 33 40s9.33301 15 24 37c11.333 16.667 17 33 17 49
c0 9.33301 -1.33301 18.333 -4 27h-14z" />
    <glyph glyph-name="l" unicode="l" horiz-adv-x="280" 
d="M253 481l-133.003 -321.002c-0.666992 -2.66699 -1 -7.33398 -1 -14.001c0 -24.667 7.33301 -49 22 -73c7.33301 -10.667 14.333 -16 21 -16c4 0 10 2.66699 18 8s14.333 8 19 8c4 -9.33301 6 -18.666 6 -27.999c0 -7.33301 -1.16699 -14.5 -3.5 -21.5
s-5.16602 -12.833 -8.49902 -17.5c-6 -4 -12.333 -6 -19 -6c-9.33301 0 -19.333 4.33301 -30 13c-20 21.333 -35.667 50.333 -47 87c-8 -6 -16.333 -16.667 -25 -32l-25 -44c-5.33301 -5.33301 -10.333 -8 -15 -8c-5.33301 0 -9.66602 3.66699 -12.999 11s-5 15.333 -5 24
c0 11.333 3 18 9 20c16.667 14.667 30.834 32.167 42.501 52.5s19.5 44.5 23.5 72.5c0 106 11 207.667 33 305c20 88.667 48.667 170.334 86 245.001c17.333 24.667 27.333 38.334 30 41.001c9.33301 8.66699 18.333 13 27 13c8 0 17.333 -4.33301 28 -13h14
c2.66699 -18.667 4 -38.667 4 -60c0 -42.667 -6.33301 -87 -19 -133c-6.66699 -25.333 -19.667 -63 -39 -113zM271.997 770.998c-44.667 -58 -80.499 -131.998 -107.499 -221.998s-40.5 -183 -40.5 -279c32 64 63.167 138.167 93.5 222.5s54.166 165.166 71.499 242.499
c-2 10 -4 17.667 -6 23s-5.66699 9.66602 -11 12.999z" />
    <glyph glyph-name="m" unicode="m" horiz-adv-x="300" 
d="M313 7c-8 5.33301 -14.002 10.5049 -18.002 15.5049s-7.66699 12.167 -11 21.5c-7.33301 24.667 -11 48.334 -11 71.001c0 18.667 6 53 18 103c6.66699 28 10 50 10 66c0 4.66699 -0.333008 9.83398 -1 15.501s-1 10.167 -1 13.5c-4.66699 5.33301 -9.33398 8 -14.001 8
c-3.33301 0 -7 -1.33301 -11 -4s-7.66699 -5.33398 -11 -8.00098c-22 -32.667 -42.333 -78.334 -61 -137.001c-10.667 -34.667 -24.334 -87.334 -41.001 -158.001c-3.33301 -6.66699 -7.33301 -10 -12 -10c-3.33301 0 -6.33301 1.33301 -9 4c-4 1.33301 -6.5 7 -7.5 17
s-1.83301 16.333 -2.5 19c3.33301 17.333 8.66602 42.666 15.999 75.999c12 54.667 18 100.334 18 137.001c0 15.333 -1 31 -3 47c-4 6.66699 -8.33301 10 -13 10c-2 0 -5 -0.833008 -9 -2.5s-6.66699 -2.5 -8 -2.5c-15.333 -24.667 -29.666 -58.334 -42.999 -101.001
c-4.66699 -15.333 -22 -82 -52 -200c-4.66699 -2.66699 -9 -5.33398 -13 -8.00098c-3.33301 0 -6.66602 2.66699 -9.99902 8c-7.33301 15.333 -11 33.333 -11 54c0 13.333 0.666992 23.666 2 30.999s3.33301 14.5 6 21.5s13.334 62.833 32.001 167.5
c6.66699 38.667 16 68 28 88c4 -4 7 -8.33301 9 -13s3 -9 3 -13s-0.5 -9.5 -1.5 -16.5s-1.5 -10.833 -1.5 -11.5c0 -6.66699 1.33301 -13 4 -19c2 1.33301 11 15.333 27 42c12 19.333 24.333 29 37 29c6.66699 0 13.334 -2.33301 20.001 -7
c9.33301 -10 16.666 -25.667 21.999 -47c3.33301 -12.667 6.33301 -31.334 9 -56.001c16.667 30.667 29.334 53.334 38.001 68.001c16.667 27.333 34.667 41 54 41c2.66699 0 7.33398 -0.666992 14.001 -2c10.667 -16 18.167 -31.333 22.5 -46s6.5 -30.334 6.5 -47.001
c0 -17.333 -3 -39 -9 -65c-13.333 -58 -20 -93.667 -20 -107c6 -17.333 12.333 -34.333 19 -51c5.33301 -10.667 8 -20 8 -28c0 -11.333 -6 -16 -18 -14z" />
    <glyph glyph-name="n" unicode="n" horiz-adv-x="195" 
d="M194 67c1.33301 -5.33301 3.99902 -9.99805 7.99902 -13.998c4.66699 -11.333 7 -22.333 7 -33c0 -14.667 -3.33301 -21.334 -10 -20.001c-9.33301 6 -17.5 16.333 -24.5 31s-12.833 36.667 -17.5 66c-0.666992 5.33301 -1 12.666 -1 21.999c0 15.333 6 45.666 18 90.999
c6 22.667 9 41.334 9 56.001c0 12 -0.5 21 -1.5 27s-3.5 14.667 -7.5 26c-27.333 -21.333 -51.666 -66.333 -72.999 -135l-48 -175c-2 -4.66699 -5.33301 -7 -10 -7s-8.33398 2.33301 -11.001 7c-2.66699 11.333 -8 16.333 -16 15c-4 12 -6 24 -6 36c0 10.667 2 19.667 6 27
c12.667 21.333 23.667 54 33 98c25.333 121.333 38 182.333 38 183c3.33301 2.66699 6.5 2.5 9.5 -0.5s5.5 -7.83301 7.5 -14.5v-62l38 51c10 10 20.333 15 31 15c8 0 15.667 -2.33301 23 -7c10.667 -10 17 -26 19 -48l2 -55c-1.33301 -7.33301 -6.16602 -28 -14.499 -62
s-12.5 -60 -12.5 -78c0 -14 1.33301 -27.333 4 -40z" />
    <glyph glyph-name="o" unicode="o" horiz-adv-x="179" 
d="M163 119c-14 -42 -24.335 -68.6689 -31.002 -80.002c-14.667 -26 -33 -39 -55 -39c-11.333 4.66699 -22 14.334 -32 29.001c-7.33301 10.667 -15.666 26 -24.999 46c-6.66699 15.333 -10 35.666 -10 60.999c5.33301 20 8 41.667 8 65l20 62c9.33301 22 22 34 38 36
c0 15.333 3.33301 29.333 10 42s14.667 21.667 24 27c8.66699 2.66699 18.167 -0.166016 28.5 -8.49902s18.5 -20.166 24.5 -35.499c4 -15.333 6.83301 -30.833 8.5 -46.5s2.5 -31.834 2.5 -48.501v-34.5c0 -9 0.666992 -18.167 2 -27.5c5.33301 -3.33301 11 -4 17 -2
c2.66699 -4 4.83398 -8.16699 6.50098 -12.5s2.5 -9.16602 2.5 -14.499c0 -6 -1 -10 -3 -12zM117.998 332.998c-5.33301 -6 -9.33301 -14.668 -12 -26.001s-4 -23.333 -4 -36c0 -17.333 1.66699 -36.666 5 -57.999l20 -33c4.66699 -5.33301 9 -6 13 -2
c0 11.333 1.16699 26.833 3.5 46.5s3.5 32.5 3.5 38.5c0 4 -0.166992 8.83301 -0.5 14.5s-1.5 13.334 -3.5 23.001s-5.33301 17.667 -10 24s-9.66699 9.16602 -15 8.49902zM69.998 256.997c-8 -16 -14.667 -34.166 -20 -54.499s-8 -41.833 -8 -64.5
c0 -6.66699 0.166992 -12.834 0.5 -18.501s1.83301 -18.5 4.5 -38.5c3.33301 -10.667 8.33301 -18.667 15 -24s13.667 -8 21 -8c4 0 7.66699 1 11 3l21.5 37.5c7.66699 13.667 11.5 28.167 11.5 43.5c-12 12.667 -23 30.5 -33 53.5s-18 46.5 -24 70.5z" />
    <glyph glyph-name="p" unicode="p" horiz-adv-x="234" 
d="M141 22c-2 0.666992 -7.66406 7 -16.9971 19c-4.66699 6 -8.33398 9 -11.001 9c-2 0 -4 -1.66699 -6 -5c0 -71.333 -3.83301 -138.833 -11.5 -202.5s-19.5 -127.834 -35.5 -192.501c-6.66699 -14.667 -11.667 -25.334 -15 -32.001c-6.66699 -12.667 -14 -19 -22 -19
c-2.66699 0 -6 1 -10 3c-10 4.66699 -17.333 15.334 -22 32.001l-14 48c0 82.667 8 162 24 238c10.667 50.667 30 118.667 58 204c0 4 2 11.667 6 23c12 33.333 18 50.333 18 51c6 10 10.167 23.167 12.5 39.5s3.5 35.833 3.5 58.5v67v19c0 4 0.333008 10 1 18h19
c1.33301 -6.66699 2.33301 -16.167 3 -28.5s1 -22.166 1 -29.499c0 -12.667 0.166992 -25.5 0.5 -38.5s1.5 -25.167 3.5 -36.5l23 26c10 11.333 19.667 17 29 17c5.33301 0 11.666 -2 18.999 -6c8 -13.333 14.167 -28.666 18.5 -45.999s6.5 -33.333 6.5 -48
c0 -16.667 -1.33301 -33.334 -4 -50.001c-4.66699 -22 -7.66699 -38 -9 -48c-6.66699 -28 -14.334 -48.667 -23.001 -62c-12 -18.667 -27.333 -28 -46 -28zM169.003 273c-16.667 -17.333 -29.333 -35 -38 -53c-11.333 -24 -17 -51 -17 -81c0 -16 2 -34 6 -54
c3.33301 -8 7.5 -14.833 12.5 -20.5s10.167 -8.5 15.5 -8.5c3.33301 0 6 1.33301 8 4c24.667 40 37 92.333 37 157v23c-1.33301 7.33301 -2 12.333 -2 15c0 8 -2.5 13.5 -7.5 16.5s-9.83301 3.5 -14.5 1.5zM1.00391 -269c0 -5.33301 -0.166992 -11 -0.5 -17
s-0.5 -12 -0.5 -18c0 -10.667 1.16699 -20.834 3.5 -30.501s6.16602 -18.167 11.499 -25.5c6.66699 -2.66699 11.834 0 15.501 8s7.5 15.667 11.5 23c13.333 75.333 23.5 147.333 30.5 216s10.5 140 10.5 214c-32.667 -90.667 -54.5 -163.167 -65.5 -217.5
s-16.5 -105.166 -16.5 -152.499z" />
    <glyph glyph-name="q" unicode="q" horiz-adv-x="219" 
d="M161 153c7.33301 -4.66699 14.0029 -6.33301 20.0029 -5c6.66699 -2 10 -6.66699 10 -14v-23c-8 -4.66699 -17 -8 -27 -10c2.66699 -24 7 -50 13 -78c9.33301 -44 14.666 -71 15.999 -81l-6 6c4.66699 -36.667 7 -74.667 7 -114c0 -36.667 -1.5 -70.5 -4.5 -101.5
s-8.16699 -75.833 -15.5 -134.5c-6 -14 -10.667 -24.333 -14 -31c-6.66699 -12 -14.667 -17.667 -24 -17c-6 -2 -12.833 2.33301 -20.5 13s-14.5 22.334 -20.5 35.001c-6 17.333 -10.333 35.166 -13 53.499s-4 35.833 -4 52.5c0 19.333 0.666992 36.666 2 51.999
c4.66699 53.333 7 82.333 7 87c3.33301 34 7.66602 68.333 12.999 103l16 103l-21 -28c-9.33301 -10.667 -18.333 -16 -27 -16c-4.66699 0 -10.667 2 -18 6c-14.667 12 -25 30 -31 54s-9 48 -9 72c0 54 10.667 99.167 32 135.5s50 54.5 86 54.5
c6.66699 -7.33301 12.167 -12.666 16.5 -15.999s8.83301 -5 13.5 -5c7.33301 0 11.333 6.33301 12 19c2 6 4.5 12.333 7.5 19s7.16699 8 12.5 4c3.33301 -2 5.66602 -5.66699 6.99902 -11s1.33301 -9.33301 0 -12c-5.33301 -16.667 -11 -40.5 -17 -71.5zM85.0029 269.001
c-14 -28 -24 -49.667 -30 -65c-10.667 -28.667 -16 -56.334 -16 -83.001c0 -12.667 0.666992 -23.5 2 -32.5s4.33301 -20.167 9 -33.5c18 -4.66699 33 5.33301 45 30l29 64c7.33301 20.667 12.666 36.334 15.999 47.001c6.66699 20 10 38.333 10 55c0 8 -0.333008 14 -1 18
c-4 10 -8.16699 17.167 -12.5 21.5s-9.16602 6.5 -14.499 6.5c-6 0 -13 -4 -21 -12zM148.003 55.001c-4 -30 -10.668 -77.334 -20.001 -142.001c-14.667 -100.667 -22 -184 -22 -250c2 -17.333 4 -32.166 6 -44.499s7 -21.833 15 -28.5c16.667 29.333 27.667 65.5 33 108.5
s8 93.5 8 151.5v15v15v12c0 12 -0.166992 24 -0.5 36s-0.5 24 -0.5 36v9c-2.66699 20 -4.66699 36.667 -6 50s-5.66602 24 -12.999 32z" />
    <glyph glyph-name="r" unicode="r" horiz-adv-x="155" 
d="M113 9c3.33301 -8 7.66699 -13.0039 13 -15.0039c2.66699 -6.66699 2.5 -13.667 -0.5 -21s-9.16699 -9.66602 -18.5 -6.99902c-4.66699 6.66699 -8 11.667 -10 15c-4.66699 6.66699 -7.66699 11.667 -9 15c-6.66699 24.667 -10 48.334 -10 71.001
c0 16.667 2.16699 36.167 6.5 58.5l12.5 64.5c-8 5.33301 -15.333 8 -22 8c-11.333 0 -21 -15.5 -29 -46.5s-17 -46.5 -27 -46.5l-11 -15c-9.33301 2 -14 6 -14 12c0 2.66699 1 5.66699 3 9c10.667 13.333 18.834 27.333 24.501 42s9.5 33 11.5 55l-15 70
c-4.66699 25.333 -7 48 -7 68c0 29.333 6 50.333 18 63c6 0 12.5 -3.33301 19.5 -10s12.167 -14.667 15.5 -24s5.66602 -18.666 6.99902 -27.999s2 -18.333 2 -27c0 -10.667 -0.666992 -21.667 -2 -33c-3.33301 -29.333 -5 -48.333 -5 -57c12 -2 25.333 1 40 9
c23.333 12.667 35.666 19.334 36.999 20.001c3.33301 -5.33301 5 -11.333 5 -18c-11.333 -25.333 -20.666 -53.5 -27.999 -84.5s-11 -61.833 -11 -92.5v-22.5c0 -5.66699 1.33301 -16.5 4 -32.5zM41.001 276.996c0 5.33301 1 14.666 3 27.999s3 24 3 32
c0 6.66699 -1 14.667 -3 24c-3.33301 -2.66699 -6 -7 -8 -13s-3 -12.667 -3 -20c0 -9.33301 0.5 -17.166 1.5 -23.499s3.16699 -15.5 6.5 -27.5z" />
    <glyph glyph-name="s" unicode="s" horiz-adv-x="151" 
d="M138 -7c-5.33301 -6 -11.8311 -9.83594 -19.498 -11.5029s-17.167 -2.5 -28.5 -2.5c-10 4.66699 -20.167 14.167 -30.5 28.5l-29.5 40.5c-4 -3.33301 -7.66699 -7.66602 -11 -12.999l-8 -13c-2 0.666992 -5 5.66699 -9 15c-1.33301 2.66699 -4 7.33398 -8 14.001
c15.333 23.333 23 52.333 23 87c0 10.667 -1 22.667 -3 36c0.666992 2.66699 3.16699 6.33398 7.5 11.001s9.5 6 15.5 4c0 1.33301 6 19 18 53c4.66699 13.333 7 25.666 7 36.999c0 8.66699 -0.833008 16.334 -2.5 23.001s-4.83398 15 -9.50098 25
c-1.33301 6 -2.33301 14.667 -3 26s-1 17.333 -1 18c0 40 8 70 24 90c5.33301 6 12 9 20 9c7.33301 0 14.666 -3 21.999 -9c5.33301 -10 9.5 -21 12.5 -33s4.5 -22.667 4.5 -32c0 -16.667 -2.33301 -33 -7 -49c-14.667 -50 -22 -75.333 -22 -76
c4.66699 -14.667 14.667 -38.667 30 -72c13.333 -29.333 21.666 -53.333 24.999 -72l13 -61c-4 -14 -7.66699 -27.667 -11 -41c-5.33301 -15.333 -11.666 -26 -18.999 -32zM81.002 332.997c0.666992 3.33301 5.33203 18 13.999 44c4 12 6 22 6 30c0 6.66699 -1 14 -3 22
c-7.33301 -3.33301 -13.166 -10.5 -17.499 -21.5s-6.5 -23.167 -6.5 -36.5c0 -15.333 2.33301 -28 7 -38zM83 222.997c-1.33301 -5.33301 -5.16797 -15.667 -11.501 -31s-9.5 -28 -9.5 -38c0 -6 0.333008 -10.667 1 -14c16 -23.333 34.333 -35 55 -35h6
c2.66699 1.33301 4.33398 2 5.00098 2c-2.66699 22.667 -8 44.667 -16 66s-18 38 -30 50zM54.998 101.996c0 -7.33301 0.166992 -14.8311 0.5 -22.498s2.5 -13.834 6.5 -18.501c6.66699 -13.333 13 -23.333 19 -30c8.66699 -9.33301 17 -14 25 -14c2.66699 0 5.66699 1 9 3
c10 4 15 12.333 15 25c0 3.33301 -1 7 -3 11c-24.667 5.33301 -48.667 20.666 -72 45.999z" />
    <glyph glyph-name="t" unicode="t" horiz-adv-x="408" 
d="M272 559l-83.998 -235c-16.667 -44 -35.667 -89.333 -57 -136c1.33301 -4 4.5 -23.5 9.5 -58.5s15.833 -56.833 32.5 -65.5l11 -1c7.33301 -8 11 -18.667 11 -32c0 -18.667 -5.33301 -29 -16 -31c-15.333 6.66699 -30.333 24.334 -45 53.001l-36 75
c-2 11.333 -3.66699 21.666 -5 30.999s-2 21.333 -2 36c0 120.667 10 231 30 331h-96c-2 8 -3 14.333 -3 19c0 7.33301 2.66699 12.333 8 15c9.33301 2.66699 18.666 5.66699 27.999 9l79 17c2 4 15.667 36.667 41 98c28 67.333 61 106 99 116l16 -21
c7.33301 -20 11 -38.333 11 -55c0 -10 -2 -24.333 -6 -43s-6 -33.667 -6 -45c0 -6.66699 0.333008 -11.667 1 -15c6.66699 -4 13.167 -6.66699 19.5 -8s12.833 -2 19.5 -2c8 0 19.667 1.66699 35 5s26.666 5 33.999 5c6.66699 0 14 -1 22 -3s17.667 -8 29 -18l2 -19z
M247.002 736c-15.333 -23.333 -26.334 -43.333 -33.001 -60c-10.667 -25.333 -16 -50.666 -16 -75.999c6 -2 13.167 -2 21.5 0s14.5 2.66699 18.5 2c11.333 14 19.333 33 24 57s7 51 7 81c-3.33301 5.33301 -6.66602 8 -9.99902 8c-2.66699 0 -4.66699 -0.833008 -6 -2.5
s-3.33301 -4.83398 -6 -9.50098zM217.001 543l-38 0.00195312c-11.333 -20.667 -20.666 -50.834 -27.999 -90.501s-14 -77.834 -20 -114.501l5 -22c15.333 25.333 30.666 60.333 45.999 105l38 110z" />
    <glyph glyph-name="u" unicode="u" horiz-adv-x="274" 
d="M223 91c3.33301 -17.333 11.335 -31.3311 24.002 -41.998c2.66699 -6 5.16699 -12.667 7.5 -20s3.5 -13.333 3.5 -18c0 -6.66699 -2.66699 -10.334 -8 -11.001c-4 0.666992 -10 3.66699 -18 9c-9.33301 11.333 -17.5 24.333 -24.5 39s-12.5 31.667 -16.5 51
c-4 -3.33301 -14.667 -21 -32 -53c-14 -26.667 -28.333 -40 -43 -40c-7.33301 0 -14.333 2.33301 -21 7s-12.5 14.334 -17.5 29.001s-9.5 24 -13.5 28l-30 -50c-9.33301 1.33301 -15.166 7.66602 -17.499 18.999s-3.83301 20 -4.5 26c6 6.66699 13.5 18 22.5 34l29.5 52
c0 45.333 4 88 12 128s21.333 69.333 40 88c0.666992 -1.33301 3.16699 -3.33301 7.5 -6s7.16602 -6.33398 8.49902 -11.001l-33 -150c0 -8 -1 -20.333 -3 -37s-3 -29.667 -3 -39c0 -13.333 0.833008 -23.833 2.5 -31.5s5.5 -17.5 11.5 -29.5c16 -4 30.333 8.66699 43 38
l17 39c12.667 22 24.667 61.5 36 118.5s21 94.167 29 111.5c1.33301 -1.33301 4.66602 -3 9.99902 -5s9.33301 -5.66699 12 -11c-0.666992 -5.33301 -6.33398 -34.333 -17.001 -87s-16 -97.334 -16 -134.001v-26c1.33301 -7.33301 2 -12.666 2 -15.999z" />
    <glyph glyph-name="v" unicode="v" horiz-adv-x="194" 
d="M92 3c-3.33301 -2 -6.33984 -3.00391 -9.00684 -3.00391c-4 0 -8.5 1.66699 -13.5 5s-10.5 7.66602 -16.5 12.999c-6 7.33301 -11.667 16 -17 26s-11 21.667 -17 35c-7.33301 11.333 -11 27.666 -11 48.999c0.666992 2.66699 1.83398 6.83398 3.50098 12.501
s2.83398 10.834 3.50098 15.501c0 32 4.16699 63.5 12.5 94.5l24.5 89.5c6.66699 0.666992 14 -5.33301 22 -18c-11.333 -62 -17.666 -97.667 -18.999 -107c-6.66699 -42.667 -10 -80.667 -10 -114c2.66699 -26 10 -42 22 -48c10.667 -3.33301 19.334 3.33398 26.001 20.001
c4.66699 12.667 9.66699 25.334 15 38.001c14 38.667 25.667 78.334 35 119.001s16 83 20 127c2.66699 4.66699 4.83398 8.16699 6.50098 10.5s3.83398 1.5 6.50098 -2.5c2.66699 -6 4.33398 -12 5.00098 -18s1 -13.333 1 -22c0 -11.333 -1 -21.666 -3 -30.999
c-11.333 -76.667 -21 -131 -29 -163c-14 -56 -33.333 -98.667 -58 -128z" />
    <glyph glyph-name="w" unicode="w" horiz-adv-x="317" 
d="M207 3c-2.66699 -2.66699 -5.99805 -4.00195 -9.99805 -4.00195c-7.33301 0 -14.833 4 -22.5 12s-14.5 17.667 -20.5 29c-2.66699 4.66699 -6 14.5 -10 29.5s-8.33301 24.833 -13 29.5c-4.66699 -6 -11 -19.667 -19 -41c-13.333 -34 -27.333 -51 -42 -51
c-6 0 -12 1.66699 -18 5c-10.667 13.333 -19.667 29.5 -27 48.5s-11 38.167 -11 57.5c0 41.333 4.5 80.5 13.5 117.5s21.5 69.5 37.5 97.5c2 -1.33301 4.33301 -2.66602 7 -3.99902c3.33301 -5.33301 5.66602 -7.66602 6.99902 -6.99902c0 -20.667 -7 -60.334 -21 -119.001
c-7.33301 -30.667 -11 -55.334 -11 -74.001c0 -23.333 3.66699 -47 11 -71c14 3.33301 26.667 17.333 38 42l27 65l38 164c2.66699 4.66699 6.5 4.66699 11.5 0l14.5 -14c0 -17.333 -5.33301 -53.333 -16 -108c-5.33301 -27.333 -8 -50 -8 -68c0 -22 3.33301 -46 10 -72
c4.66699 -12 11 -18 19 -18c6 0 10.333 3 13 9c20.667 43.333 37.667 90.5 51 141.5s24.333 107.833 33 170.5c3.33301 0 6.16602 -2.66699 8.49902 -8s4.5 -11.666 6.5 -18.999c0 -70.667 -8 -136.667 -24 -198s-40.333 -108.666 -73 -141.999z" />
    <glyph glyph-name="x" unicode="x" horiz-adv-x="225" 
d="M148 190c-1.33301 -9.33301 -2.00098 -16.998 -2.00098 -22.998c0 -10.667 0.833008 -21.334 2.5 -32.001s5.83398 -27.667 12.501 -51c4 -9.33301 10 -14.666 18 -15.999c8 -9.33301 12 -20.333 12 -33s-4.33301 -19 -13 -19c-8 4 -14 8.66699 -18 14
c-9.33301 4 -18.166 21 -26.499 51s-15.166 45 -20.499 45c-3.33301 0 -7.33301 -3.66699 -12 -11c-22 -44 -35.333 -71 -40 -81c-11.333 -24.667 -22.666 -52.667 -33.999 -84c-10.667 10 -17.5 18 -20.5 24s-3.83301 13.333 -2.5 22c8.66699 29.333 21 58.666 37 87.999
c45.333 84.667 69.666 131.667 72.999 141l-3.5 35.5c-1 9.66699 -4.16699 17.5 -9.5 23.5c-17.333 -6.66699 -34.333 -29 -51 -67l-22 -53c-4.66699 0 -8.33398 0.166992 -11.001 0.5s-5 2.5 -7 6.5c4 38 14.667 73.333 32 106c15.333 29.333 34.666 54 57.999 74
c7.33301 0 14 -3.33301 20 -10s10.333 -15.334 13 -26.001l11 -45c10 4 24.333 19.5 43 46.5s36 40.5 52 40.5l11 -16z" />
    <glyph glyph-name="y" unicode="y" horiz-adv-x="215" 
d="M117 -323c-12.667 -47.333 -24.999 -78.667 -36.999 -94s-26.333 -23 -43 -23c-4.66699 0 -8.33398 0.333008 -11.001 1c-7.33301 2.66699 -13.5 9.5 -18.5 20.5l-14.5 32.5c0 89.333 21.667 184.333 65 285l63 143c0 7.33301 0.666992 18.333 2 33s2 26 2 34
c0 9.33301 -0.333008 16.333 -1 21c-3.33301 -5.33301 -12.666 -25 -27.999 -59c-10.667 -24 -21.667 -39.667 -33 -47c-20.667 2 -36.334 18.333 -47.001 49c-4.66699 18.667 -8.33398 36 -11.001 52s-4 28.667 -4 38c5.33301 16 9.5 33 12.5 51s4.5 36 4.5 54
c0.666992 2 4.33398 17.333 11.001 46c4.66699 20.667 11.667 31 21 31c2.66699 0 6.66699 -1 12 -3c4 -5.33301 6 -10.333 6 -15c0 -2.66699 -0.833008 -6.33398 -2.5 -11.001s-2.5 -7.66699 -2.5 -9c-9.33301 -39.333 -15.5 -70.333 -18.5 -93s-4.5 -45 -4.5 -67
c0 -14.667 1 -30 3 -46c2.66699 -7.33301 6.66699 -11 12 -11c4.66699 0 8 1.66699 10 5c16.667 30.667 34.667 74 54 130l46 135c2.66699 0 6 -2.66699 10 -8c1.33301 -1.33301 4.33301 -6 9 -14c-10 -70 -16 -116.5 -18 -139.5s-3 -48.5 -3 -76.5
c4.66699 -1.33301 9.33398 0.666992 14.001 6c7.33301 7.33301 11.666 11.333 12.999 12c4 -3.33301 6.5 -8.16602 7.5 -14.499s1.5 -14.5 1.5 -24.5c-25.333 -19.333 -42 -56.666 -50 -111.999c-2.66699 -16.667 -5.5 -64.334 -8.5 -143.001s-10.833 -135 -23.5 -169z
M49.001 -223.001c-6 -18.667 -11.999 -38.833 -17.999 -60.5s-9 -42.167 -9 -61.5c0 -16.667 2.33301 -33 7 -49c4 -4 7.33301 -6 10 -6s7 4 13 12c3.33301 4.66699 6.33301 7.33398 9 8.00098c15.333 47.333 27.166 97.166 35.499 149.499s12.5 107.833 12.5 166.5z" />
    <glyph glyph-name="z" unicode="z" horiz-adv-x="234" 
d="M196 -5c0 -7.33301 0.669922 -19.832 2.00293 -37.499s2 -26.834 2 -27.501c0 -60 -10 -120.333 -30 -181c-7.33301 -22 -28 -72 -62 -150l-26 -35c-12 -12.667 -24 -19 -36 -19c-6.66699 0 -13 1.66699 -19 5c-17.333 15.333 -26 38.666 -26 69.999
c0 55.333 8.66699 108.333 26 159c12.667 37.333 32.667 80 60 128l68 120c0 10 -3.33301 20 -10 30c-2.66699 4 -9.33398 11.667 -20.001 23c-12 0 -27 -9.66699 -45 -29s-34.333 -27.333 -49 -24c-2.66699 6 -5 11.667 -7 17s-2.33301 10.333 -1 15
c6 7.33301 27.667 26.666 65 57.999c49.333 42 74 91.333 74 148c0 7.33301 -2.5 15 -7.5 23s-10.5 12 -16.5 12c-25.333 -6 -49 -25.333 -71 -58l-57 -86c-2 -0.666992 -4.5 1 -7.5 5s-5.83301 8.33301 -8.5 13l-1 13c18.667 36 37.667 66.333 57 91
c22 27.333 45.667 49 71 65c5.33301 1.33301 9.33301 2 12 2c9.33301 0 18.666 -4 27.999 -12s17.333 -19 24 -33c6.66699 -17.333 10 -34 10 -50c0 -24 -6.66699 -48.333 -20 -73l-35 -60c2.66699 -8.66699 8.5 -18.5 17.5 -29.5s14.833 -18.833 17.5 -23.5l33 22
c3.33301 0 6.66602 -1.33301 9.99902 -4c2 -6 3 -11.333 3 -16c0 -7.33301 -4.16699 -17.666 -12.5 -30.999s-12.5 -26.666 -12.5 -39.999zM41.0029 -303.999c-4.66699 -16 -7.66699 -28 -9 -36s-2 -17 -2 -27c0 -15.333 2.66699 -29.333 8 -42
c2.66699 -2 5.66699 -1.83301 9 0.5s7.33301 4.83301 12 7.5c34.667 50.667 60.667 103 78 157c20.667 64 31 134.333 31 211c-28 -44 -51.667 -85.333 -71 -124c-24 -48 -42.667 -97 -56 -147z" />
    <glyph glyph-name="braceleft" unicode="{" horiz-adv-x="237" 
d="M99 7c-6 12.667 -11.499 30.5 -16.499 53.5s-8.33301 41 -10 54s-3.33398 51 -5.00098 114s-7.5 99.833 -17.5 110.5c-3.33301 3.33301 -10.333 5 -21 5c-3.33301 0 -10.666 -0.333008 -21.999 -1s-21 -1 -29 -1c4 5.33301 13.333 16.333 28 33s23.5 32.5 26.5 47.5
s6.16699 60.833 9.5 137.5c1.33301 32 4 58.333 8 79c8.66699 43.333 22.334 76.666 41.001 99.999c16.667 20.667 40.667 36.667 72 48l4 -24c-28.667 -10 -51 -24.833 -67 -44.5s-28 -48.834 -36 -87.501l-18 -220c-2 -10.667 -4.33301 -18.5 -7 -23.5
s-7.33398 -11.5 -14.001 -19.5c16.667 0 27.667 -2.33301 33 -7c10.667 -10.667 17.667 -50.167 21 -118.5s5.33301 -104.833 6 -109.5c3.33301 -23.333 7 -44.166 11 -62.499s9 -34.166 15 -47.499c14.667 -30.667 30 -51 46 -61s40.667 -15 74 -15v-25
c-36.667 0 -63.834 5.66699 -81.501 17s-34.5 34 -50.5 68z" />
    <glyph glyph-name="bar" unicode="|" horiz-adv-x="114" 
d="M65 30v725h15v-725h-15z" />
    <glyph glyph-name="braceright" unicode="}" horiz-adv-x="237" 
d="M160 334c-10.667 -12 -16.502 -47.834 -17.502 -107.501s-2.16699 -94.5 -3.5 -104.5c-6 -39.333 -10.667 -65.833 -14 -79.5s-8.33301 -27.167 -15 -40.5c-16 -33.333 -33 -55.833 -51 -67.5s-45 -17.5 -81 -17.5v25c33.333 0 58 5 74 15s31.333 30.333 46 61
c6 11.333 11 26.666 15 45.999s7.66699 40.666 11 63.999c0 2 2 37.833 6 107.5s11 109.834 21 120.501c3.33301 3.33301 7.5 5.33301 12.5 6s11.833 1 20.5 1c-4.66699 6 -8.66699 12.167 -12 18.5s-6.5 16.333 -9.5 30s-5.66699 47.667 -8 102s-5.5 91.833 -9.5 112.5
c-7.33301 39.333 -19 68.5 -35 87.5s-38.333 33.833 -67 44.5l3 24c31.333 -11.333 56 -27.833 74 -49.5s31.333 -54.5 40 -98.5l18 -220c2.66699 -11.333 8.33398 -22.666 17.001 -33.999c14 -15.333 26.333 -29.666 37 -42.999c-7.33301 0 -17 0.333008 -29 1s-20 1 -24 1
c-9.33301 0 -15.666 -1.66699 -18.999 -5z" />
    <glyph glyph-name="asciitilde" unicode="~" horiz-adv-x="282" 
d="M198 345c-12.667 0 -31.666 7.66602 -56.999 22.999c-13.333 8 -25.333 12 -36 12c-18 0 -32.333 -6.33301 -43 -19c-8 -9.33301 -16 -25.666 -24 -48.999l-16 16c10 26.667 20 46 30 58c14 16 31.667 24 53 24c12 0 23.667 -3.33301 35 -10
c27.333 -16.667 46.666 -25 57.999 -25c8 0 16.667 5.33301 26 16c7.33301 8 13.333 17.333 18 28l14 -18c-6 -13.333 -13.667 -25.333 -23 -36c-12 -13.333 -23.667 -20 -35 -20z" />
    <glyph glyph-name="nonbreakingspace" unicode="&#xa0;" horiz-adv-x="200" 
 />
    <glyph glyph-name="exclamdown" unicode="&#xa1;" horiz-adv-x="190" 
d="M178 711c-6.66699 -4 -13 -1 -19 9s-8.33301 20 -7 30c0 5.33301 1.16699 10.833 3.5 16.5s3.83301 9.5 4.5 11.5l21 -4c5.33301 -12.667 8 -24.667 8 -36c0 -13.333 -3.66699 -22.333 -11 -27zM40 -21c-6 -3.33301 -11.833 -1.16699 -17.5 6.5s-7.5 16.5 -5.5 26.5
c10 44.667 25.667 120.5 47 227.5l43.5 221.5l41.5 219c3.33301 2 6.33301 1.66699 9 -1s5 -6.66699 7 -12l5 -33c-12 -79.333 -24.5 -153.833 -37.5 -223.5s-27.5 -141.5 -43.5 -215.5c-8.66699 -41.333 -25 -113.333 -49 -216z" />
    <glyph glyph-name="cent" unicode="&#xa2;" horiz-adv-x="165" 
d="M106 564c-4.66699 -38.667 -8.66895 -75.6689 -12.002 -111.002s-5 -67.666 -5 -96.999c4 -7.33301 7.33301 -11 10 -11c2 0 4.83301 2.33301 8.5 7s6.5 7.33398 8.5 8.00098l20 51c2.66699 -10 4 -20 4 -30c0 -12.667 -2.33301 -25.334 -7 -38.001
c-1.33301 -4 -6 -14.333 -14 -31c-21.333 4 -34 -7 -38 -33c-1.33301 -8.66699 -2 -24 -2 -46c0 -18.667 -0.5 -33.667 -1.5 -45s-3.5 -20.666 -7.5 -27.999c-4.66699 14 -7 29 -7 45c0 11.333 0.833008 26.166 2.5 44.499s2.5 28.5 2.5 30.5c0 16 -2.33301 30.167 -7 42.5
s-13.667 24.833 -27 37.5c-14.667 39.333 -22 78.333 -22 117c0 24 3.33301 47.667 10 71c14 21.333 23.667 35 29 41c12.667 12.667 26.334 18.334 41.001 17.001l8 70.5c2 17.667 6 32.167 12 43.5c2 -8 3 -16 3 -24c0 -8.66699 -1.33301 -20.667 -4 -36
s-4 -26.333 -4 -33c0 -10 1.16699 -18.167 3.5 -24.5s7.5 -12.833 15.5 -19.5c2.66699 0 5.83398 -3.33301 9.50098 -10s6.83398 -11 9.50098 -13c3.33301 -12 3.66602 -19.333 0.999023 -22c-4 -0.666992 -10.5 4 -19.5 14s-15.833 14 -20.5 12zM45.998 405.998
c0.666992 -1.33301 4.00098 -10.3359 10.001 -27.0029c4 -11.333 9 -16.333 15 -15c0 21.333 1 46.333 3 75c4.66699 66.667 7 108.334 7 125.001c-14.667 -4.66699 -24.834 -15.667 -30.501 -33s-8.5 -39.666 -8.5 -66.999c0 -9.33301 0.166992 -16.666 0.5 -21.999
s1.5 -17.333 3.5 -36z" />
    <glyph glyph-name="sterling" unicode="&#xa3;" horiz-adv-x="330" 
d="M108 258c-2 -20 -5.66797 -38.3291 -11.001 -54.9961c10 7.33301 19.333 12.833 28 16.5s18 5.5 28 5.5c7.33301 0 19 -11.667 35 -35s32.333 -35 49 -35c12 0 23 5 33 15c7.33301 7.33301 19 27 35 59l14 -18c-14.667 -30.667 -25 -50 -31 -58
c-14 -18.667 -31 -28 -51 -28c-14 0 -27 7.33301 -39 22c-26.667 32 -41.667 48 -45 48c-19.333 0 -41 -11 -65 -33c-12 -10.667 -29.667 -30.334 -53 -59.001l-10 24l41 53c12.667 21.333 20.334 46.166 23.001 74.499s5 60 7 95s3 65.167 3 90.5h-63v30h64
c0 90 6.33301 157.333 19 202c16.667 58.667 45 88 85 88c10.667 0 16 2 16 6c0 1.33301 -1 3.33301 -3 6c4.66699 -4.66699 9.66699 -9.33398 15 -14.001l-8 -26l-11 9c1.33301 -7.33301 -1.66699 -11 -9 -11c-34.667 0 -59 -26 -73 -78c-10.667 -40 -16 -100.667 -16 -182
h86v-30h-86v-24c0 -60.667 -2.33301 -113.334 -7 -158.001z" />
    <glyph glyph-name="yen" unicode="&#xa5;" horiz-adv-x="405" 
d="M269 40l139.001 0.00195312v-30h-146l-18 -69c-14.667 -35.333 -26.667 -60 -36 -74c-17.333 -25.333 -37.333 -38 -60 -38c-6 0 -12.667 1 -20 3c-20.667 12 -39.167 30.667 -55.5 56s-28.5 54.666 -36.5 87.999c-2 12 -4.33301 27.667 -7 47s-4 38.333 -4 57
c0 25.333 3.33301 47 10 65c4.66699 0 8.66699 -2.66699 12 -8c4 -44.667 8.33301 -89 13 -133c9.33301 -54.667 28.666 -93 57.999 -115c7.33301 -2.66699 14.666 -4 21.999 -4c20.667 0 38.667 13.667 54 41c10.667 19.333 21 47.333 31 84h-135v30h142l12 50h-154v30h161
l74 307l-3 1c-9.33301 -14 -25.333 -50 -48 -108c-34 -87.333 -70.333 -131 -109 -131c-13.333 0 -27 3.66699 -41 11c-12.667 16 -23.667 35.167 -33 57.5s-14 44.5 -14 66.5c0 60 9 128.333 27 205l48 186c-1.33301 8 -4 14.167 -8 18.5s-7.66699 5.5 -11 3.5
c-24.667 -14 -46.5 -32.5 -65.5 -55.5s-37.167 -51.167 -54.5 -84.5c-5.33301 2.66699 -8 10.667 -8 24c0 7.33301 0.666992 14.333 2 21c10.667 32.667 26.667 61.334 48 86.001c8 9.33301 29 29.333 63 60c12.667 0 22 -0.5 28 -1.5s13 -4.83301 21 -11.5
c11.333 -22 17 -46.333 17 -73c0 -15.333 -1.16699 -28.666 -3.5 -39.999s-6.5 -26 -12.5 -44l-40 -146c-13.333 -50.667 -20 -98.334 -20 -143.001c2 -14 4.33301 -29 7 -45s8 -27.667 16 -35c8.66699 -15.333 18 -23 28 -23c4.66699 0 9.66699 1.16699 15 3.5
s10.666 4.83301 15.999 7.5c28 40.667 54.667 89 80 145c16.667 37.333 39.334 92.666 68.001 165.999c34.667 89.333 57.334 146.333 68.001 171c10 -6.66699 16 -12.334 18 -17.001v-35c-16 -48.667 -32.667 -106.667 -50 -174c-11.333 -45.333 -26 -107.333 -44 -186
l-42 -187h120v-30h-127z" />
    <glyph glyph-name="brokenbar" unicode="&#xa6;" horiz-adv-x="133" 
d="M32 275h69v-275h-69v275zM32 725h69v-275h-69v275z" />
    <glyph glyph-name="section" unicode="&#xa7;" horiz-adv-x="267" 
d="M41 15l8 19.9971c16 -18.667 40 -28 72 -28c24.667 0 45 6 61 18c20 14.667 30 36.334 30 65.001c0 65.333 -14 123.333 -42 174l-80 126c-28.667 53.333 -43 113.333 -43 180l1 36l-1 29c0 46.667 9.66699 82 29 106s45 36 77 36c28 0 52 -6.66699 72 -20
c25.333 -16.667 38 -42.334 38 -77.001c0 -22 -2.33301 -40.333 -7 -55l-16 -37l-12 14c8 18.667 12.333 29 13 31c4.66699 14 7 29.667 7 47c0 28.667 -11 48.667 -33 60c-15.333 8 -36 12 -62 12c-31.333 0 -55.333 -12.333 -72 -37l7 -6
c-12.667 -36.667 -19.334 -56.667 -20.001 -60c-2.66699 -12 -4 -26.333 -4 -43c4 -35.333 15.333 -66.666 34 -93.999c4.66699 -7.33301 22.334 -28 53.001 -62c34 -37.333 60.333 -76.666 79 -117.999c26 -56.667 39 -119 39 -187c0 -52 -14.667 -93 -44 -123
c-26 -26.667 -58 -40 -96 -40h-8h-7c-17.333 2.66699 -31.833 6.33398 -43.5 11.001s-21.5 12 -29.5 22zM254 144.997c0 64 -11.999 121.998 -35.999 173.998c-17.333 37.333 -42.333 74.333 -75 111c-27.333 30.667 -41.666 46.667 -42.999 48
c-16.667 20.667 -29.334 42.334 -38.001 65.001c0 -60 14 -114.333 42 -163l80 -121c28.667 -50.667 43 -107 43 -169c0 -17.333 -3 -32.666 -9 -45.999c11.333 12 20.166 26.333 26.499 43s9.5 36 9.5 58z" />
    <glyph glyph-name="dieresis" unicode="&#xa8;" horiz-adv-x="185" 
d="M50 628c6.66699 -7.33301 9.99902 -18.667 9.99902 -34c0 -8 -1.66699 -16.333 -5 -25s-9.66602 -13 -18.999 -13c-5.33301 0 -10 2 -14 6c-6.66699 7.33301 -10 18.666 -10 33.999c0 8.66699 1.66699 17.334 5 26.001s9.66602 13 18.999 13
c4.66699 0 9.33398 -2.33301 14.001 -7zM164.999 624.999c6.66699 -8.66699 9.99902 -19.999 9.99902 -33.999c0 -8.66699 -1.66699 -17.167 -5 -25.5s-9.66602 -12.5 -18.999 -12.5c-5.33301 0 -10 2 -14 6c-6.66699 8.66699 -10 20 -10 34
c0 9.33301 1.33301 16.666 4 21.999c5.33301 11.333 12.333 17 21 17c4.66699 0 9 -2.33301 13 -7z" />
    <glyph glyph-name="copyright" unicode="&#xa9;" horiz-adv-x="177" 
d="M132 330c-15.333 -18 -30.999 -26.999 -46.999 -26.999c-24.667 0 -44.667 17.333 -60 52c-10 23.333 -15 48.666 -15 75.999c0 42.667 10.667 76.667 32 102c14 16 29.333 24 46 24c25.333 0 45.666 -17.667 60.999 -53c8.66699 -21.333 13 -45.333 13 -72
c0 -42.667 -10 -76.667 -30 -102zM50.001 513.001c-16.667 -20.667 -25.001 -48.667 -25.001 -84c0 -22 4 -42 12 -60c12 -27.333 28.333 -41 49 -41c14 0 26.333 7.33301 37 22c16 21.333 24 50 24 86c0 20.667 -3.33301 38.667 -10 54c-12 28.667 -28.667 43 -50 43
c-13.333 0 -25.666 -6.66699 -36.999 -20zM86 347.001c-14 0 -23.668 3.5 -29.001 10.5s-8 21.167 -8 42.5c0 24.667 4 47.5 12 68.5s18 31.5 30 31.5c5.33301 0 10.333 -1.16699 15 -3.5s9.33398 -5.5 14.001 -9.5l-7 -22c-8 6.66699 -15.333 10 -22 10
c-8 0 -14.5 -8 -19.5 -24s-7.5 -33 -7.5 -51c0 -12 1.5 -19.667 4.5 -23s8.83301 -5 17.5 -5c7.33301 0 13.166 2.66699 17.499 8l13.5 17l8 -22c-5.33301 -6.66699 -10.666 -13 -15.999 -19s-13 -9 -23 -9z" />
    <glyph glyph-name="ordfeminine" unicode="&#xaa;" horiz-adv-x="129" 
d="M105 442l10 -6.99805c2 -3.33301 3.33301 -8.33301 4 -15s0 -10 -2 -10l-8 2c-5.33301 4 -10.166 10 -14.499 18s-9.16602 21.333 -14.499 40c-8.66699 -18 -15.334 -31 -20.001 -39c-8.66699 -15.333 -17.667 -23 -27 -23c-4 0 -8.33301 1.33301 -13 4
c-5.33301 8 -9.5 17 -12.5 27s-4.5 19 -4.5 27c0 7.33301 0.833008 15.666 2.5 24.999s3.5 18.333 5.5 27c10.667 32.667 20.667 53.667 30 63s20.333 13 33 11c3.33301 -2 7 -5.33301 11 -10c1.33301 -1.33301 4.66602 -6 9.99902 -14
c2.66699 1.33301 5.66699 5.83301 9 13.5s7.33301 11.167 12 10.5l7 -9l-16 -46c-6 -18.667 -9 -35.334 -9 -50.001c0 -14 2.33301 -29 7 -45zM86 553.002l-7.00098 10.998c-5.33301 1.33301 -8.66602 2 -9.99902 2c-10 0 -18.333 -6 -25 -18
c-2 -3.33301 -7.33301 -16.333 -16 -39c-0.666992 -5.33301 -1.83398 -13.166 -3.50098 -23.499s-2.5 -18.166 -2.5 -23.499c0 -9.33301 1.66699 -18.333 5 -27c14.667 7.33301 26.334 21.833 35.001 43.5l26 65.5z" />
    <glyph glyph-name="guillemotleft" unicode="&#xab;" horiz-adv-x="205" 
d="M190 5l-42.999 63l-95 234c9.33301 10.667 16.666 26.834 21.999 48.501s9.33301 37.167 12 46.5l33 122c13.333 46.667 26 87.334 38 122.001l10 -10c-8 -24 -20 -64.167 -36 -120.5s-26.833 -95.833 -32.5 -118.5l-12.5 -50c-4.66699 -18 -10 -32.333 -16 -43
c11.333 -20.667 25.333 -56.334 42 -107.001s31 -87.334 43 -110.001c4 -7.33301 11.5 -18.333 22.5 -33s18.167 -24.667 21.5 -30zM145.001 -4l-42.999 63l-95 234c9.33301 10.667 16.666 26.834 21.999 48.501s9.33301 37.167 12 46.5l33 122
c13.333 46.667 26 87.334 38 122.001l10 -10c-8 -24 -20 -64.167 -36 -120.5s-26.833 -95.833 -32.5 -118.5l-12.5 -50c-4.66699 -18 -10 -32.333 -16 -43c11.333 -20.667 25.333 -56.334 42 -107.001s31 -87.334 43 -110.001c4 -7.33301 11.5 -18.333 22.5 -33
s18.167 -24.667 21.5 -30z" />
    <glyph glyph-name="minus" unicode="&#xad;" horiz-adv-x="360" 
d="M24 202v116h312v-116h-312z" />
    <glyph glyph-name="registered" unicode="&#xae;" horiz-adv-x="177" 
d="M132 330c-15.333 -18 -30.999 -26.999 -46.999 -26.999c-24.667 0 -44.667 17.333 -60 52c-10 23.333 -15 48.666 -15 75.999c0 42.667 10.667 76.667 32 102c14 16 29.333 24 46 24c25.333 0 45.666 -17.667 60.999 -53c8.66699 -21.333 13 -45.333 13 -72
c0 -42.667 -10 -76.667 -30 -102zM50.001 513.001c-16.667 -20.667 -25.001 -48.667 -25.001 -84c0 -22 4 -42 12 -60c12 -27.333 28.333 -41 49 -41c14 0 26.333 7.33301 37 22c16 21.333 24 50 24 86c0 20.667 -3.33301 38.667 -10 54c-12 28.667 -28.667 43 -50 43
c-13.333 0 -25.666 -6.66699 -36.999 -20zM114 345.001c-7.33301 6 -15.333 18.6689 -24 38.002s-13 37 -13 53c0 7.33301 3.5 13.833 10.5 19.5s10.5 14.167 10.5 25.5c0 15.333 -4 23 -12 23c-14 0 -25 -8.33301 -33 -25l-12 14c10 24 25 36 45 36c18 0 27 -16 27 -48
c0 -12 -3.5 -20.833 -10.5 -26.5s-10.5 -11.834 -10.5 -18.501c0 -14 3 -27.333 9 -40s12.667 -22.334 20 -29.001zM68 367.003v115h15v-115h-15z" />
    <glyph glyph-name="macron" unicode="&#xaf;" horiz-adv-x="130" 
d="M11 377v20h102v-20h-102z" />
    <glyph glyph-name="degree" unicode="&#xb0;" horiz-adv-x="201" 
d="M61 516c-14 21.333 -21 47.667 -21 79c0 27.333 6.33301 52.333 19 75s28 34 46 34c16 0 30.833 -10.333 44.5 -31s20.5 -46.667 20.5 -78c0 -27.333 -6.33301 -52.333 -19 -75s-28 -34 -46 -34c-16 0 -30.667 10 -44 30zM139 656.001c-10 14.667 -21.333 22 -34 22
c-14.667 0 -26.667 -8.16699 -36 -24.5s-14 -35.5 -14 -57.5c0 -14 1 -25.5 3 -34.5s6.33301 -18.167 13 -27.5c10 -14.667 21.333 -22 34 -22c14.667 0 26.667 8.16699 36 24.5s14 35.5 14 57.5c0 14 -1 25.5 -3 34.5s-6.33301 18.167 -13 27.5z" />
    <glyph glyph-name="plusminus" unicode="&#xb1;" horiz-adv-x="139" 
d="M22 281v25h91v-25h-91zM113 420v-25h-40v-74h-15v74h-36v25h36v75h15v-75h40z" />
    <glyph glyph-name="twosuperior" unicode="&#xb2;" horiz-adv-x="240" 
d="M13 252c0 38.667 11.335 73.999 34.002 105.999c10.667 15.333 33.334 39 68.001 71c11.333 10.667 19.666 24.834 24.999 42.501s8 37.167 8 58.5c0 49.333 -15.667 74 -47 74c-14 0 -26.833 -10.333 -38.5 -31s-19.834 -45.334 -24.501 -74.001l-5 -5l-17 107
c28 19.333 58.667 29 92 29c27.333 0 51 -8.33301 71 -25c25.333 -20.667 38 -50.334 38 -89.001c0 -33.333 -9.66699 -60.666 -29 -81.999c-14.667 -16.667 -34.334 -29 -59.001 -37c-18.667 -6 -33 -13 -43 -21c-16 -12.667 -25 -30 -27 -52h92
c16 0 29.833 4.33301 41.5 13s21.167 23.334 28.5 44.001h6l-27 -129h-187z" />
    <glyph glyph-name="threesuperior" unicode="&#xb3;" horiz-adv-x="240" 
d="M23 604c15.333 7.33301 26.6689 12.332 34.002 14.999c19.333 7.33301 38.666 11 57.999 11c26.667 0 49 -5.33301 67 -16c26 -15.333 39 -40.666 39 -75.999c0 -28.667 -9.33301 -50.334 -28 -65.001c-13.333 -10.667 -31 -17.667 -53 -21
c22.667 -4 42.334 -12.667 59.001 -26c22 -18 33 -41.667 33 -71c0 -40.667 -13 -70.667 -39 -90c-20 -14.667 -45 -22 -75 -22c-20 0 -39 2.5 -57 7.5s-35.667 13.167 -53 24.5l21 110l7 -5c0 -32 6.83301 -58.5 20.5 -79.5s31.167 -31.5 52.5 -31.5
c16.667 0 29.667 7.83301 39 23.5s14 35.834 14 60.501c0 26 -5.16699 46.5 -15.5 61.5s-22.833 22.5 -37.5 22.5c-6.66699 0 -15.334 -2.66699 -26.001 -8v41c9.33301 -4.66699 18 -7 26 -7c13.333 0 23.666 7.5 30.999 22.5s11 32.833 11 53.5s-4 36.667 -12 48
s-18.667 17 -32 17c-15.333 0 -29 -9.66699 -41 -29s-19.333 -41.333 -22 -66l-6 -4z" />
    <glyph glyph-name="acute" unicode="&#xb4;" horiz-adv-x="135" 
d="M16 535l-9 20l87 190l24 -5l3 -50z" />
    <glyph glyph-name="cedilla" unicode="&#xb8;" horiz-adv-x="99" 
d="M47 0h15.002l-12 -38c3.33301 2 8 3 14 3c7.33301 0 13.666 -3.5 18.999 -10.5s8 -18.167 8 -33.5c0 -17.333 -4.16699 -30 -12.5 -38s-17.833 -12 -28.5 -12c-12.667 0 -24.334 3.33301 -35.001 10l5 21c10.667 -4 19 -6 25 -6s10.833 1.5 14.5 4.5
s5.5 9.16699 5.5 18.5c0 6.66699 -1.66699 12 -5 16s-7 6 -11 6c-4.66699 0 -9 -1 -13 -3l-4 5z" />
    <glyph glyph-name="onesuperior" unicode="&#xb9;" horiz-adv-x="240" 
d="M151 331c0 -22 2.66895 -38.168 8.00195 -48.501s15.666 -16.166 30.999 -17.499v-15l-70 2l-70 -2v15c16 1.33301 26.5 7 31.5 17s7.5 26.333 7.5 49v208c0 18 -2.33301 30.5 -7 37.5s-13.334 11.167 -26.001 12.5v15c35.333 8 67 16.667 95 26v-299z" />
    <glyph glyph-name="ordmasculine" unicode="&#xba;" horiz-adv-x="93" 
d="M82 515c-7.33301 -21.333 -12.668 -34.6689 -16.001 -40.002c-7.33301 -13.333 -16.666 -20 -27.999 -20c-5.33301 2.66699 -10.333 7.33398 -15 14.001s-9 14.667 -13 24c-0.666992 2 -1.5 6.16699 -2.5 12.5s-1.83301 12.166 -2.5 17.499
c2.66699 8.66699 4 19.667 4 33l11 31.5c4 11 10 16.833 18 17.5c0 16.667 5.66699 28 17 34c4 1.33301 8.83301 -0.166992 14.5 -4.5s9.66699 -9.66602 12 -15.999s3.83301 -13.666 4.5 -21.999s1 -15.5 1 -21.5c0 -16 0.333008 -28 1 -36
c2.66699 -2 5.66699 -2.33301 9 -1c2.66699 -4 4 -7.66699 4 -11s-0.333008 -6.33301 -1 -9zM58.998 621.997c-2.66699 -3.33301 -4.66602 -7.66895 -5.99902 -13.002s-2 -11.666 -2 -18.999c0 -9.33301 1 -18.666 3 -27.999c3.33301 -6.66699 6.16602 -12 8.49902 -16
s4.83301 -4.66699 7.5 -2c1.33301 13.333 3 27 5 41c0 6.66699 -1.16699 14.5 -3.5 23.5s-6.5 13.5 -12.5 13.5zM34.999 583.994c-9.33301 -17.333 -14.0029 -38.333 -14.0029 -63v-12c1.33301 -6 2 -10.333 2 -13c2.66699 -7.33301 6.33398 -12.333 11.001 -15
s9 -2.66699 13 0c4.66699 8 8.5 15 11.5 21s4.83301 12.667 5.5 20c-5.33301 5.33301 -10.666 14 -15.999 26s-9.66602 24 -12.999 36z" />
    <glyph glyph-name="guillemotright" unicode="&#xbb;" horiz-adv-x="205" 
d="M106 65c-4 -7.33301 -11.001 -17.667 -21.001 -31c-12 -16 -19.667 -26.667 -23 -32l-8 14l43 63l86 217c-6 10 -11.167 23.5 -15.5 40.5l-12.5 49.5c-26 96.667 -39.667 147.667 -41 153c-6 20 -15.667 49.667 -29 89l11 10c8 -24 20 -64.333 36 -121l34 -123
c4 -16.667 8.5 -34 13.5 -52s11.833 -32.333 20.5 -43c-13.333 -22.667 -26.333 -51.667 -39 -87c-31.333 -87.333 -49.666 -136.333 -54.999 -147zM60.999 73.999c-4 -7.33301 -11.001 -17.667 -21.001 -31c-12 -16 -19.667 -26.667 -23 -32l-8 14l43 63l86 217
c-6 10 -11.167 23.5 -15.5 40.5l-12.5 49.5c-26 96.667 -39.667 147.667 -41 153c-6 20 -15.667 49.667 -29 89l11 10c8 -24 20 -64.333 36 -121l34 -123c4 -16.667 8.5 -34 13.5 -52s11.833 -32.333 20.5 -43c-13.333 -22.667 -26.333 -51.667 -39 -87
c-31.333 -87.333 -49.666 -136.333 -54.999 -147z" />
    <glyph glyph-name="onequarter" unicode="&#xbc;" horiz-adv-x="600" 
d="M172 331c0 -22 2.66699 -38.168 8 -48.501s15.666 -16.166 30.999 -17.499v-15l-69 2l-70 -2v15c15.333 1.33301 25.666 7.16602 30.999 17.499s8 26.5 8 48.5v208c0 30 -11 46.667 -33 50v15c24.667 5.33301 41.834 9.33301 51.501 12s23.834 7.33398 42.501 14.001
v-299zM451 629.999l-261 -645h-40l260 645h41zM294 117.999l147.999 251h26v-238c28 0 49.667 19.667 65 59h6l-22 -107c-17.333 4 -33.666 6 -48.999 6c0 -27.333 2.16699 -46.5 6.5 -57.5s13.5 -17.167 27.5 -18.5v-15l-65 2l-64 -2v15
c12.667 1.33301 21.5 7.83301 26.5 19.5s7.5 30.5 7.5 56.5h-118zM406.999 125.999v146l-87 -146h87z" />
    <glyph glyph-name="onehalf" unicode="&#xbd;" horiz-adv-x="600" 
d="M172 331c0 -22 2.66699 -38.168 8 -48.501s15.666 -16.166 30.999 -17.499v-15l-69 2l-70 -2v15c15.333 1.33301 25.666 7.16602 30.999 17.499s8 26.5 8 48.5v208c0 30 -11 46.667 -33 50v15c24.667 5.33301 41.834 9.33301 51.501 12s23.834 7.33398 42.501 14.001
v-299zM430 629.999l-261 -645h-40l260 645h41zM332 -0.000976562c0 38.667 11.3359 73.998 34.0029 105.998c11.333 16.667 33.666 40.334 66.999 71.001c11.333 10 19.666 24 24.999 42s8 37.667 8 59c0 49.333 -15.667 74 -47 74c-14 0 -26.667 -10 -38 -30
s-19.666 -45 -24.999 -75l-4 -5l-18 107c29.333 19.333 60.333 29 93 29c26.667 0 50 -8.33301 70 -25c26 -21.333 39 -51 39 -89c0 -33.333 -9.66699 -60.666 -29 -81.999c-14.667 -16.667 -33.334 -28.667 -56.001 -36s-38.667 -14.666 -48 -21.999
c-16.667 -12.667 -25 -30 -25 -52h91c16.667 0 30.667 4.16699 42 12.5s20.666 23.166 27.999 44.499h7l-27 -129h-187z" />
    <glyph glyph-name="threequarters" unicode="&#xbe;" horiz-adv-x="600" 
d="M64 604c19.333 9.33301 35.334 16 48.001 20s27 6 43 6c27.333 0 50 -5.33301 68 -16c26 -15.333 39 -40.666 39 -75.999c0 -28.667 -9.33301 -50.334 -28 -65.001c-13.333 -10.667 -31 -17.667 -53 -21c22 -4 41.333 -12.667 58 -26c22 -18 33 -41.667 33 -71
c0 -40.667 -13 -70.667 -39 -90c-20 -14.667 -45 -22 -75 -22c-19.333 0 -38 2.5 -56 7.5s-35.667 13.167 -53 24.5l21 110l7 -5c0 -32 6.83301 -58.5 20.5 -79.5s31.167 -31.5 52.5 -31.5c16.667 0 29.667 7.83301 39 23.5s14 35.834 14 60.501
c0 25.333 -5.5 45.666 -16.5 60.999s-23.5 23 -37.5 23c-6 0 -14.333 -2.66699 -25 -8v41c9.33301 -4.66699 17.666 -7 24.999 -7c13.333 0 23.833 7.5 31.5 22.5s11.5 32.833 11.5 53.5s-4 36.667 -12 48s-18.667 17 -32 17c-15.333 0 -29 -9.66699 -41 -29
s-19.333 -41.333 -22 -66l-6 -4zM472.001 630l-261 -645h-40l260 645h41zM306.001 118l147.999 251h26v-238c28 0 49.667 19.667 65 59h6l-22 -107c-17.333 4 -33.666 6 -48.999 6c0 -27.333 2.16699 -46.5 6.5 -57.5s13.5 -17.167 27.5 -18.5v-15l-65 2l-64 -2v15
c12.667 1.33301 21.5 7.83301 26.5 19.5s7.5 30.5 7.5 56.5h-118zM419 126v146l-87 -146h87z" />
    <glyph glyph-name="questiondown" unicode="&#xbf;" horiz-adv-x="323" 
d="M244 711c-4 0.666992 -8.16699 3.66797 -12.5 9.00098s-7 12.333 -8 21s-1.5 15.667 -1.5 21c0 14.667 4 25 12 31c4.66699 2 9.5 0.666992 14.5 -4s8.33301 -10.834 10 -18.501s2.5 -14.167 2.5 -19.5c0 -6.66699 -2 -13.5 -6 -20.5zM205 24.001
c-12.667 -8.66699 -26.001 -15.8359 -40.001 -21.5029s-28.667 -8.5 -44 -8.5c-18.667 0 -35.334 5 -50.001 15c-18 12 -33 30.667 -45 56c-14 34.667 -21 67.667 -21 99c0 44.667 15.667 91.334 47 140.001l45 67c29.333 36 54.333 74 75 114c24.667 48 42 98 52 150
c2 2 4.16699 2 6.5 0s5.83301 -7.33301 10.5 -16c0 -31.333 -4.33301 -62 -13 -92s-26 -66.667 -52 -110c-52 -68 -81 -106.667 -87 -116c-31.333 -50 -50.333 -102.667 -57 -158c4 -29.333 7.66699 -49.666 11 -60.999c7.33301 -22.667 17.666 -37.667 30.999 -45
c16 -5.33301 30.667 -8 44 -8c38.667 0 72.667 18.667 102 56c26 33.333 45 78 57 134c-1.33301 10.667 -3.66602 19.167 -6.99902 25.5s-7.66602 8.83301 -12.999 7.5c-13.333 0 -26.333 -6 -39 -18c-2 -2 -12.333 -13.667 -31 -35c-4 9.33301 -6 17 -6 23
c0 9.33301 4.33301 19.666 13 30.999c6.66699 8 10.334 13 11.001 15l22 17c8 6 16 9 24 9l11 -2c7.33301 -8 13.833 -16.667 19.5 -26s10.5 -20.666 14.5 -33.999c2 -13.333 3 -25.666 3 -36.999c0 -40 -10.333 -75.333 -31 -106c-12 -17.333 -33 -39 -63 -65z" />
    <glyph glyph-name="Agrave" unicode="&#xc0;" horiz-adv-x="534" 
d="M523 95l-35.9951 -66.0078c-9.33301 -12.667 -20 -19 -32 -19c-6.66699 0 -13 1.33301 -19 4c-15.333 12 -27.666 33.667 -36.999 65c-5.33301 19.333 -11 47.666 -17 84.999c-0.666992 6 -1 12.333 -1 19v15c0 16.667 1.33301 37 4 61c6 54 9 89 9 105
c-10.667 2 -21.667 3.66699 -33 5s-23 2 -35 2c-24.667 0 -44 -4.66699 -58 -14c-43.333 -110 -69 -173.333 -77 -190c-32.667 -67.333 -68.334 -114 -107.001 -140c-10 -7.33301 -21.667 -11 -35 -11c-16.667 0 -33.834 6.16699 -51.501 18.5s-35.834 29.833 -54.501 52.5
c-12 17.333 -21.667 32.666 -29 45.999c-10.667 18.667 -18.334 36.667 -23.001 54c0.666992 0.666992 2.16699 4.66699 4.5 12s5.83301 10 10.5 8c21.333 -42 41.333 -74.333 60 -97c24 -30 48 -47 72 -51c2.66699 -0.666992 6.66699 -1 12 -1c14 0 26.333 5 37 15
c3.33301 3.33301 18 24.333 44 63c19.333 38 34.666 70 45.999 96c15.333 34.667 30 71 44 109l-3 10l-39 2c-0.666992 3.33301 -1 6.33301 -1 9v6c0 18.667 8.66699 30.334 26 35.001c14.667 2.66699 29.667 5.66699 45 9l53 147c21.333 56.667 41 102.334 59 137.001
c22.667 44 49 82 79 114c12.667 0 23 -1.83301 31 -5.5s15 -12.834 21 -27.501c4.66699 -23.333 7 -48 7 -74c0 -33.333 -4.5 -71.333 -13.5 -114l-25.5 -120l-7 -24c-2.66699 -9.33301 -4 -16.666 -4 -21.999c0 -6.66699 0.833008 -12 2.5 -16s5.16699 -7.66699 10.5 -11
c0.666992 -1.33301 3 -2.66602 7 -3.99902c3.33301 -6.66699 5 -11.667 5 -15c0 -8.66699 -3.66699 -13 -11 -13c-4.66699 2.66699 -9.33398 4 -14.001 4c-12 0 -19.667 -15.5 -23 -46.5s-7 -50.167 -11 -57.5c-1.33301 -11.333 -3 -27.166 -5 -47.499
s-3 -36.166 -3 -47.499c0 -19.333 1 -36.166 3 -50.499s6.66699 -31.166 14 -50.499c9.33301 -11.333 17.666 -17 24.999 -17c6 0 12.5 3.33301 19.5 10l20.5 19l25.5 51.5c5.66699 11 11.834 18.833 18.501 23.5c2.66699 -5.33301 4 -10.666 4 -15.999
s-2.33301 -12.666 -7 -21.999s-7 -16.666 -7 -21.999zM369.005 1054.99l3 50l24 5l87 -190l-9 -20zM467.005 769.992l-14.998 3.99902c-24 -29.333 -46.667 -68.666 -68 -117.999c-2.66699 -6.66699 -31.334 -86.334 -86.001 -239.001c12.667 0 28.167 -0.833008 46.5 -2.5
s28.5 -2.5 30.5 -2.5c10 0 20.667 1 32 3c16.667 66.667 29 117.334 37 152.001c15.333 64 25.666 118 30.999 162z" />
    <glyph glyph-name="Aacute" unicode="&#xc1;" horiz-adv-x="534" 
d="M523 95l-35.9951 -66.0078c-9.33301 -12.667 -20 -19 -32 -19c-6.66699 0 -13 1.33301 -19 4c-15.333 12 -27.666 33.667 -36.999 65c-5.33301 19.333 -11 47.666 -17 84.999c-0.666992 6 -1 12.333 -1 19v15c0 16.667 1.33301 37 4 61c6 54 9 89 9 105
c-10.667 2 -21.667 3.66699 -33 5s-23 2 -35 2c-24.667 0 -44 -4.66699 -58 -14c-43.333 -110 -69 -173.333 -77 -190c-32.667 -67.333 -68.334 -114 -107.001 -140c-10 -7.33301 -21.667 -11 -35 -11c-16.667 0 -33.834 6.16699 -51.501 18.5s-35.834 29.833 -54.501 52.5
c-12 17.333 -21.667 32.666 -29 45.999c-10.667 18.667 -18.334 36.667 -23.001 54c0.666992 0.666992 2.16699 4.66699 4.5 12s5.83301 10 10.5 8c21.333 -42 41.333 -74.333 60 -97c24 -30 48 -47 72 -51c2.66699 -0.666992 6.66699 -1 12 -1c14 0 26.333 5 37 15
c3.33301 3.33301 18 24.333 44 63c19.333 38 34.666 70 45.999 96c15.333 34.667 30 71 44 109l-3 10l-39 2c-0.666992 3.33301 -1 6.33301 -1 9v6c0 18.667 8.66699 30.334 26 35.001c14.667 2.66699 29.667 5.66699 45 9l53 147c21.333 56.667 41 102.334 59 137.001
c22.667 44 49 82 79 114c12.667 0 23 -1.83301 31 -5.5s15 -12.834 21 -27.501c4.66699 -23.333 7 -48 7 -74c0 -33.333 -4.5 -71.333 -13.5 -114l-25.5 -120l-7 -24c-2.66699 -9.33301 -4 -16.666 -4 -21.999c0 -6.66699 0.833008 -12 2.5 -16s5.16699 -7.66699 10.5 -11
c0.666992 -1.33301 3 -2.66602 7 -3.99902c3.33301 -6.66699 5 -11.667 5 -15c0 -8.66699 -3.66699 -13 -11 -13c-4.66699 2.66699 -9.33398 4 -14.001 4c-12 0 -19.667 -15.5 -23 -46.5s-7 -50.167 -11 -57.5c-1.33301 -11.333 -3 -27.166 -5 -47.499
s-3 -36.166 -3 -47.499c0 -19.333 1 -36.166 3 -50.499s6.66699 -31.166 14 -50.499c9.33301 -11.333 17.666 -17 24.999 -17c6 0 12.5 3.33301 19.5 10l20.5 19l25.5 51.5c5.66699 11 11.834 18.833 18.501 23.5c2.66699 -5.33301 4 -10.666 4 -15.999
s-2.33301 -12.666 -7 -21.999s-7 -16.666 -7 -21.999zM385.005 854.992l-9 20l87 190l24 -5l3 -50zM467.005 769.992l-14.998 3.99902c-24 -29.333 -46.667 -68.666 -68 -117.999c-2.66699 -6.66699 -31.334 -86.334 -86.001 -239.001c12.667 0 28.167 -0.833008 46.5 -2.5
s28.5 -2.5 30.5 -2.5c10 0 20.667 1 32 3c16.667 66.667 29 117.334 37 152.001c15.333 64 25.666 118 30.999 162z" />
    <glyph glyph-name="Acircumflex" unicode="&#xc2;" horiz-adv-x="534" 
d="M523 95l-35.9951 -66.0078c-9.33301 -12.667 -20 -19 -32 -19c-6.66699 0 -13 1.33301 -19 4c-15.333 12 -27.666 33.667 -36.999 65c-5.33301 19.333 -11 47.666 -17 84.999c-0.666992 6 -1 12.333 -1 19v15c0 16.667 1.33301 37 4 61c6 54 9 89 9 105
c-10.667 2 -21.667 3.66699 -33 5s-23 2 -35 2c-24.667 0 -44 -4.66699 -58 -14c-43.333 -110 -69 -173.333 -77 -190c-32.667 -67.333 -68.334 -114 -107.001 -140c-10 -7.33301 -21.667 -11 -35 -11c-16.667 0 -33.834 6.16699 -51.501 18.5s-35.834 29.833 -54.501 52.5
c-12 17.333 -21.667 32.666 -29 45.999c-10.667 18.667 -18.334 36.667 -23.001 54c0.666992 0.666992 2.16699 4.66699 4.5 12s5.83301 10 10.5 8c21.333 -42 41.333 -74.333 60 -97c24 -30 48 -47 72 -51c2.66699 -0.666992 6.66699 -1 12 -1c14 0 26.333 5 37 15
c3.33301 3.33301 18 24.333 44 63c19.333 38 34.666 70 45.999 96c15.333 34.667 30 71 44 109l-3 10l-39 2c-0.666992 3.33301 -1 6.33301 -1 9v6c0 18.667 8.66699 30.334 26 35.001c14.667 2.66699 29.667 5.66699 45 9l53 147c21.333 56.667 41 102.334 59 137.001
c22.667 44 49 82 79 114c12.667 0 23 -1.83301 31 -5.5s15 -12.834 21 -27.501c4.66699 -23.333 7 -48 7 -74c0 -33.333 -4.5 -71.333 -13.5 -114l-25.5 -120l-7 -24c-2.66699 -9.33301 -4 -16.666 -4 -21.999c0 -6.66699 0.833008 -12 2.5 -16s5.16699 -7.66699 10.5 -11
c0.666992 -1.33301 3 -2.66602 7 -3.99902c3.33301 -6.66699 5 -11.667 5 -15c0 -8.66699 -3.66699 -13 -11 -13c-4.66699 2.66699 -9.33398 4 -14.001 4c-12 0 -19.667 -15.5 -23 -46.5s-7 -50.167 -11 -57.5c-1.33301 -11.333 -3 -27.166 -5 -47.499
s-3 -36.166 -3 -47.499c0 -19.333 1 -36.166 3 -50.499s6.66699 -31.166 14 -50.499c9.33301 -11.333 17.666 -17 24.999 -17c6 0 12.5 3.33301 19.5 10l20.5 19l25.5 51.5c5.66699 11 11.834 18.833 18.501 23.5c2.66699 -5.33301 4 -10.666 4 -15.999
s-2.33301 -12.666 -7 -21.999s-7 -16.666 -7 -21.999zM478.005 916.992c-4 16 -7.66895 32 -11.002 48c-5.33301 22 -10.666 38.333 -15.999 49c-3.33301 -20 -8.16602 -38.167 -14.499 -54.5s-14.5 -32.833 -24.5 -49.5l-9 14c10 16 18.333 33.833 25 53.5
s11.667 44.5 15 74.5c10 -12.667 19.667 -33.667 29 -63c6.66699 -22 12 -44 16 -66zM467.003 769.992l-14.998 3.99902c-24 -29.333 -46.667 -68.666 -68 -117.999c-2.66699 -6.66699 -31.334 -86.334 -86.001 -239.001c12.667 0 28.167 -0.833008 46.5 -2.5
s28.5 -2.5 30.5 -2.5c10 0 20.667 1 32 3c16.667 66.667 29 117.334 37 152.001c15.333 64 25.666 118 30.999 162z" />
    <glyph glyph-name="Atilde" unicode="&#xc3;" horiz-adv-x="564" 
d="M403 943l45.001 -0.000976562l44 12c12.667 5.33301 22.667 16.333 30 33v-15c-7.33301 -24 -14.333 -40 -21 -48s-19 -15 -37 -21h-55c-10.667 -3.33301 -19.5 -10.166 -26.5 -20.499s-13.167 -24.5 -18.5 -42.5c5.33301 38.667 8.66602 60.667 9.99902 66
c5.33301 19.333 15 31.333 29 36zM523.001 94.999l-35.9951 -66.0078c-9.33301 -12.667 -20 -19 -32 -19c-6.66699 0 -13 1.33301 -19 4c-15.333 12 -27.666 33.667 -36.999 65c-5.33301 19.333 -11 47.666 -17 84.999c-0.666992 6 -1 12.333 -1 19v15
c0 16.667 1.33301 37 4 61c6 54 9 89 9 105c-10.667 2 -21.667 3.66699 -33 5s-23 2 -35 2c-24.667 0 -44 -4.66699 -58 -14c-43.333 -110 -69 -173.333 -77 -190c-32.667 -67.333 -68.334 -114 -107.001 -140c-10 -7.33301 -21.667 -11 -35 -11
c-16.667 0 -33.834 6.16699 -51.501 18.5s-35.834 29.833 -54.501 52.5c-12 17.333 -21.667 32.666 -29 45.999c-10.667 18.667 -18.334 36.667 -23.001 54c0.666992 0.666992 2.16699 4.66699 4.5 12s5.83301 10 10.5 8c21.333 -42 41.333 -74.333 60 -97
c24 -30 48 -47 72 -51c2.66699 -0.666992 6.66699 -1 12 -1c14 0 26.333 5 37 15c3.33301 3.33301 18 24.333 44 63c19.333 38 34.666 70 45.999 96c15.333 34.667 30 71 44 109l-3 10l-39 2c-0.666992 3.33301 -1 6.33301 -1 9v6c0 18.667 8.66699 30.334 26 35.001
c14.667 2.66699 29.667 5.66699 45 9l53 147c21.333 56.667 41 102.334 59 137.001c22.667 44 49 82 79 114c12.667 0 23 -1.83301 31 -5.5s15 -12.834 21 -27.501c4.66699 -23.333 7 -48 7 -74c0 -33.333 -4.5 -71.333 -13.5 -114l-25.5 -120l-7 -24
c-2.66699 -9.33301 -4 -16.666 -4 -21.999c0 -6.66699 0.833008 -12 2.5 -16s5.16699 -7.66699 10.5 -11c0.666992 -1.33301 3 -2.66602 7 -3.99902c3.33301 -6.66699 5 -11.667 5 -15c0 -8.66699 -3.66699 -13 -11 -13c-4.66699 2.66699 -9.33398 4 -14.001 4
c-12 0 -19.667 -15.5 -23 -46.5s-7 -50.167 -11 -57.5c-1.33301 -11.333 -3 -27.166 -5 -47.499s-3 -36.166 -3 -47.499c0 -19.333 1 -36.166 3 -50.499s6.66699 -31.166 14 -50.499c9.33301 -11.333 17.666 -17 24.999 -17c6 0 12.5 3.33301 19.5 10l20.5 19l25.5 51.5
c5.66699 11 11.834 18.833 18.501 23.5c2.66699 -5.33301 4 -10.666 4 -15.999s-2.33301 -12.666 -7 -21.999s-7 -16.666 -7 -21.999zM467.006 769.991l-14.998 3.99902c-24 -29.333 -46.667 -68.666 -68 -117.999c-2.66699 -6.66699 -31.334 -86.334 -86.001 -239.001
c12.667 0 28.167 -0.833008 46.5 -2.5s28.5 -2.5 30.5 -2.5c10 0 20.667 1 32 3c16.667 66.667 29 117.334 37 152.001c15.333 64 25.666 118 30.999 162z" />
    <glyph glyph-name="Adieresis" unicode="&#xc4;" horiz-adv-x="534" 
d="M523 95l-35.9951 -66.0078c-9.33301 -12.667 -20 -19 -32 -19c-6.66699 0 -13 1.33301 -19 4c-15.333 12 -27.666 33.667 -36.999 65c-5.33301 19.333 -11 47.666 -17 84.999c-0.666992 6 -1 12.333 -1 19v15c0 16.667 1.33301 37 4 61c6 54 9 89 9 105
c-10.667 2 -21.667 3.66699 -33 5s-23 2 -35 2c-24.667 0 -44 -4.66699 -58 -14c-43.333 -110 -69 -173.333 -77 -190c-32.667 -67.333 -68.334 -114 -107.001 -140c-10 -7.33301 -21.667 -11 -35 -11c-16.667 0 -33.834 6.16699 -51.501 18.5s-35.834 29.833 -54.501 52.5
c-12 17.333 -21.667 32.666 -29 45.999c-10.667 18.667 -18.334 36.667 -23.001 54c0.666992 0.666992 2.16699 4.66699 4.5 12s5.83301 10 10.5 8c21.333 -42 41.333 -74.333 60 -97c24 -30 48 -47 72 -51c2.66699 -0.666992 6.66699 -1 12 -1c14 0 26.333 5 37 15
c3.33301 3.33301 18 24.333 44 63c19.333 38 34.666 70 45.999 96c15.333 34.667 30 71 44 109l-3 10l-39 2c-0.666992 3.33301 -1 6.33301 -1 9v6c0 18.667 8.66699 30.334 26 35.001c14.667 2.66699 29.667 5.66699 45 9l53 147c21.333 56.667 41 102.334 59 137.001
c22.667 44 49 82 79 114c12.667 0 23 -1.83301 31 -5.5s15 -12.834 21 -27.501c4.66699 -23.333 7 -48 7 -74c0 -33.333 -4.5 -71.333 -13.5 -114l-25.5 -120l-7 -24c-2.66699 -9.33301 -4 -16.666 -4 -21.999c0 -6.66699 0.833008 -12 2.5 -16s5.16699 -7.66699 10.5 -11
c0.666992 -1.33301 3 -2.66602 7 -3.99902c3.33301 -6.66699 5 -11.667 5 -15c0 -8.66699 -3.66699 -13 -11 -13c-4.66699 2.66699 -9.33398 4 -14.001 4c-12 0 -19.667 -15.5 -23 -46.5s-7 -50.167 -11 -57.5c-1.33301 -11.333 -3 -27.166 -5 -47.499
s-3 -36.166 -3 -47.499c0 -19.333 1 -36.166 3 -50.499s6.66699 -31.166 14 -50.499c9.33301 -11.333 17.666 -17 24.999 -17c6 0 12.5 3.33301 19.5 10l20.5 19l25.5 51.5c5.66699 11 11.834 18.833 18.501 23.5c2.66699 -5.33301 4 -10.666 4 -15.999
s-2.33301 -12.666 -7 -21.999s-7 -16.666 -7 -21.999zM392.005 997.992c6.66699 -8.66699 9.99902 -19.999 9.99902 -33.999c0 -8.66699 -1.66699 -17.167 -5 -25.5s-9.66602 -12.5 -18.999 -12.5c-5.33301 0 -10 2 -14 6c-6.66699 7.33301 -10 18.666 -10 33.999
c0 8.66699 1.33301 16 4 22c5.33301 11.333 12.333 17 21 17c4.66699 0 9 -2.33301 13 -7zM507.004 994.993c6.66699 -8.66699 9.99902 -19.999 9.99902 -33.999c0 -8.66699 -1.66699 -17.167 -5 -25.5s-9.66602 -12.5 -18.999 -12.5c-5.33301 0 -10 2 -14 6
c-6.66699 8.66699 -10 20 -10 34c0 9.33301 1.33301 16.666 4 21.999c5.33301 11.333 12.333 17 21 17c4.66699 0 9 -2.33301 13 -7zM467.003 769.994l-14.998 3.99902c-24 -29.333 -46.667 -68.666 -68 -117.999c-2.66699 -6.66699 -31.334 -86.334 -86.001 -239.001
c12.667 0 28.167 -0.833008 46.5 -2.5s28.5 -2.5 30.5 -2.5c10 0 20.667 1 32 3c16.667 66.667 29 117.334 37 152.001c15.333 64 25.666 118 30.999 162z" />
    <glyph glyph-name="Aring" unicode="&#xc5;" horiz-adv-x="534" 
d="M523 95l-35.9951 -66.0078c-9.33301 -12.667 -20 -19 -32 -19c-6.66699 0 -13 1.33301 -19 4c-15.333 12 -27.666 33.667 -36.999 65c-5.33301 19.333 -11 47.666 -17 84.999c-0.666992 6 -1 12.333 -1 19v15c0 16.667 1.33301 37 4 61c6 54 9 89 9 105
c-10.667 2 -21.667 3.66699 -33 5s-23 2 -35 2c-24.667 0 -44 -4.66699 -58 -14c-43.333 -110 -69 -173.333 -77 -190c-32.667 -67.333 -68.334 -114 -107.001 -140c-10 -7.33301 -21.667 -11 -35 -11c-16.667 0 -33.834 6.16699 -51.501 18.5s-35.834 29.833 -54.501 52.5
c-12 17.333 -21.667 32.666 -29 45.999c-10.667 18.667 -18.334 36.667 -23.001 54c0.666992 0.666992 2.16699 4.66699 4.5 12s5.83301 10 10.5 8c21.333 -42 41.333 -74.333 60 -97c24 -30 48 -47 72 -51c2.66699 -0.666992 6.66699 -1 12 -1c14 0 26.333 5 37 15
c3.33301 3.33301 18 24.333 44 63c19.333 38 34.666 70 45.999 96c15.333 34.667 30 71 44 109l-3 10l-39 2c-0.666992 3.33301 -1 6.33301 -1 9v6c0 18.667 8.66699 30.334 26 35.001c14.667 2.66699 29.667 5.66699 45 9l53 147c21.333 56.667 41 102.334 59 137.001
c22.667 44 49 82 79 114c12.667 0 23 -1.83301 31 -5.5s15 -12.834 21 -27.501c4.66699 -23.333 7 -48 7 -74c0 -33.333 -4.5 -71.333 -13.5 -114l-25.5 -120l-7 -24c-2.66699 -9.33301 -4 -16.666 -4 -21.999c0 -6.66699 0.833008 -12 2.5 -16s5.16699 -7.66699 10.5 -11
c0.666992 -1.33301 3 -2.66602 7 -3.99902c3.33301 -6.66699 5 -11.667 5 -15c0 -8.66699 -3.66699 -13 -11 -13c-4.66699 2.66699 -9.33398 4 -14.001 4c-12 0 -19.667 -15.5 -23 -46.5s-7 -50.167 -11 -57.5c-1.33301 -11.333 -3 -27.166 -5 -47.499
s-3 -36.166 -3 -47.499c0 -19.333 1 -36.166 3 -50.499s6.66699 -31.166 14 -50.499c9.33301 -11.333 17.666 -17 24.999 -17c6 0 12.5 3.33301 19.5 10l20.5 19l25.5 51.5c5.66699 11 11.834 18.833 18.501 23.5c2.66699 -5.33301 4 -10.666 4 -15.999
s-2.33301 -12.666 -7 -21.999s-7 -16.666 -7 -21.999zM494.005 998.992c0 -18 -3.33203 -32.667 -9.99902 -44s-15.334 -17 -26.001 -17s-19.5 5.83301 -26.5 17.5s-10.5 26.167 -10.5 43.5s3.5 31.833 10.5 43.5s15.833 17.5 26.5 17.5c10 0 18.5 -6 25.5 -18
s10.5 -26.333 10.5 -43zM467.006 769.992l-14.998 3.99902c-24 -29.333 -46.667 -68.666 -68 -117.999c-2.66699 -6.66699 -31.334 -86.334 -86.001 -239.001c12.667 0 28.167 -0.833008 46.5 -2.5s28.5 -2.5 30.5 -2.5c10 0 20.667 1 32 3
c16.667 66.667 29 117.334 37 152.001c15.333 64 25.666 118 30.999 162zM436.008 998.991c0 -10.667 2 -19.5 6 -26.5s9.33301 -10.5 16 -10.5c8 0 14 5.33301 18 16c2 5.33301 3 12.333 3 21c0 10 -2 18.667 -6 26s-9 11 -15 11c-6.66699 0 -12 -3.33301 -16 -10
s-6 -15.667 -6 -27z" />
    <glyph glyph-name="AE" unicode="&#xc6;" horiz-adv-x="852" 
d="M523 95l-35.9971 -66.0029c-9.33301 -12.667 -20 -19 -32 -19c-6.66699 0 -13 1.33301 -19 4c-15.333 12 -27.666 33.667 -36.999 65c-5.33301 19.333 -11 47.666 -17 84.999c-0.666992 6 -1 12.333 -1 19v15c0 16.667 1.33301 37 4 61c6 54 9 89 9 105
c-10.667 2 -21.667 3.66699 -33 5s-23 2 -35 2c-24.667 0 -44 -4.66699 -58 -14c-43.333 -110 -69 -173.333 -77 -190c-32.667 -67.333 -68.334 -114 -107.001 -140c-10 -7.33301 -21.667 -11 -35 -11c-16.667 0 -33.834 6.16699 -51.501 18.5s-35.834 29.833 -54.501 52.5
c-12 17.333 -21.667 32.666 -29 45.999c-10.667 18.667 -18.334 36.667 -23.001 54c0.666992 0.666992 2.16699 4.66699 4.5 12s5.83301 10 10.5 8c21.333 -42 41.333 -74.333 60 -97c24 -30 48 -47 72 -51c2.66699 -0.666992 6.66699 -1 12 -1c14 0 26.333 5 37 15
c3.33301 3.33301 18 24.333 44 63c19.333 38 34.666 70 45.999 96c15.333 34.667 30 71 44 109l-3 10l-39 2c-0.666992 3.33301 -1 6.33301 -1 9v6c0 18.667 8.66699 30.334 26 35.001c14.667 2.66699 29.667 5.66699 45 9l53 147c21.333 56.667 41 102.334 59 137.001
c22.667 44 49 82 79 114c12.667 0 23 -1.83301 31 -5.5s15 -12.834 21 -27.501c4.66699 -23.333 7 -48 7 -74c0 -33.333 -4.5 -71.333 -13.5 -114l-25.5 -120l-7 -24c-2.66699 -9.33301 -4 -16.666 -4 -21.999c0 -6.66699 0.833008 -12 2.5 -16s5.16699 -7.66699 10.5 -11
c0.666992 -1.33301 3 -2.66602 7 -3.99902c3.33301 -6.66699 5 -11.667 5 -15c0 -8.66699 -3.66699 -13 -11 -13c-4.66699 2.66699 -9.33398 4 -14.001 4c-12 0 -19.667 -15.5 -23 -46.5s-7 -50.167 -11 -57.5c-1.33301 -11.333 -3 -27.166 -5 -47.499
s-3 -36.166 -3 -47.499c0 -19.333 1 -36.166 3 -50.499s6.66699 -31.166 14 -50.499c9.33301 -11.333 17.666 -17 24.999 -17c6 0 12.5 3.33301 19.5 10l20.5 19l30 59c-12.667 32 -19 62.333 -19 91c0 113.333 26.667 192 80 236c-4.66699 23.333 -7 46.666 -7 69.999
c0 52.667 12.333 101.334 37 146.001c20.667 37.333 46.667 67.333 78 90c22 8 34.667 12.667 38 14c16 5.33301 30.333 8 43 8c16.667 0 31.167 -3.66699 43.5 -11s24.833 -20.666 37.5 -39.999c2 -13.333 3 -25.333 3 -36c0 -28.667 -6.66699 -53 -20 -73
c-10.667 -16 -26 -30 -46 -42c-12 0 -21 4 -27 12c3.33301 4.66699 14.333 16.667 33 36c26 26.667 39 55 39 85c-8.66699 18 -17.667 29 -27 33c-57.333 0 -105 -19.667 -143 -59c-42 -44 -63 -105.667 -63 -185c0.666992 -6 1.83398 -11.833 3.50098 -17.5
s4.5 -8.16699 8.5 -7.5c16.667 5.33301 29 9 37 11s18 3 30 3c12.667 0 24.834 -2.16699 36.501 -6.5s23.167 -11.833 34.5 -22.5c14.667 -16.667 22 -36.334 22 -59.001c0 -13.333 -2.5 -23.666 -7.5 -30.999s-12.167 -14.333 -21.5 -21c-9.33301 -4 -19 -6 -29 -6
c-18.667 0 -38 6.66699 -58 20s-38.333 31 -55 53c-22.667 -11.333 -40.167 -33.833 -52.5 -67.5s-18.5 -71.834 -18.5 -114.501c0 -30.667 4.66699 -62.334 14 -95.001s22.333 -58.334 39 -77.001c11.333 -12 23.833 -21.167 37.5 -27.5s26.5 -9.5 38.5 -9.5
c14.667 0 29.5 3.5 44.5 10.5s28.167 15.833 39.5 26.5l87 113c3.33301 -4 5 -9 5 -15c0 -3.33301 -1.16699 -8.5 -3.5 -15.5s-3.5 -11.5 -3.5 -13.5c-21.333 -46 -43.333 -81 -66 -105c-29.333 -30.667 -60.666 -46 -93.999 -46c-24 0 -49 8.66699 -75 26
c-24.667 26.667 -45.667 58 -63 94c-4 -8 -6 -14.333 -6 -19zM467.003 769.997l-14.998 3.99902c-24 -29.333 -46.667 -68.666 -68 -117.999c-2.66699 -6.66699 -31.334 -86.334 -86.001 -239.001c12.667 0 28.167 -0.833008 46.5 -2.5s28.5 -2.5 30.5 -2.5
c10 0 20.667 1 32 3c16.667 66.667 29 117.334 37 152.001c15.333 64 25.666 118 30.999 162zM660.005 465.996c-1.33301 -1.33301 -7.33105 -4 -17.998 -8s-16 -10 -16 -18c11.333 -16 24.666 -27.167 39.999 -33.5s31 -9.5 47 -9.5h15
c9.33301 5.33301 15.333 15.333 18 30c-8.66699 16 -18.334 26.5 -29.001 31.5s-23.667 7.5 -39 7.5h-18z" />
    <glyph glyph-name="Ccedilla" unicode="&#xc7;" horiz-adv-x="372" 
d="M118 34c-23.333 20.667 -44.1611 48.5039 -62.4941 83.5039s-31.833 72.167 -40.5 111.5c-5.33301 23.333 -9 45 -11 65s-3 42.333 -3 67c0 53.333 7 106.333 21 159c10.667 39.333 26.667 82.666 48 129.999c27.333 48 52.666 83.667 75.999 107c32 32 65.667 48 101 48
c23.333 0 48.333 -7.33301 75 -22l30 -38c8 -17.333 13.667 -34.166 17 -50.499s5 -32.833 5 -49.5c0 -30.667 -5.66699 -61.667 -17 -93c-4.66699 -14 -16 -39 -34 -75l-27 -35c-11.333 -14.667 -22.333 -22 -33 -22c-8.66699 0 -17.667 4.33301 -27 13
c-6.66699 9.33301 -12.334 22.5 -17.001 39.5s-7 32.5 -7 46.5c3.33301 25.333 8.83301 46.5 16.5 63.5s18.5 27.5 32.5 31.5c6 -8.66699 10 -13 12 -13c0 -9.33301 -2 -17.333 -6 -24c-13.333 -22.667 -20.5 -36 -21.5 -40l-3.5 -14.5
c-1.33301 -5.66699 -2 -10.834 -2 -15.501c0 -8.66699 1.66699 -17.334 5 -26.001c6 -8 12.333 -12 19 -12c4.66699 0 9.5 2.66699 14.5 8l14.5 16c24 42 39.5 73.5 46.5 94.5s10.5 44.5 10.5 70.5c0 12.667 -1 25.5 -3 38.5s-5.33301 27.5 -10 43.5
c-10.667 13.333 -21.834 23 -33.501 29s-23.5 9 -35.5 9c-12.667 0 -26.5 -3.5 -41.5 -10.5s-32.167 -19.833 -51.5 -38.5c-40.667 -50 -72.334 -103 -95.001 -159c-28 -68.667 -42 -141.334 -42 -218.001c0 -32 2 -63.333 6 -94s11 -64.334 21 -101.001
c19.333 -43.333 43 -75 71 -95c15.333 -7.33301 30.666 -11 45.999 -11c28.667 0 57 15 85 45c9.33301 10 31 39.667 65 89c1.33301 -10.667 2 -18.334 2 -23.001c0 -18.667 -4.66699 -38 -14 -58c-4 -8.66699 -12 -22.167 -24 -40.5s-27.167 -32.666 -45.5 -42.999
s-37.166 -15.5 -56.499 -15.5c-12 0 -24 2 -36 6l-9 -29c3.33301 2 8 3 14 3c7.33301 0 13.666 -3.5 18.999 -10.5s8 -18.167 8 -33.5c0 -17.333 -4.16699 -30 -12.5 -38s-17.833 -12 -28.5 -12c-12.667 0 -24.334 3.33301 -35.001 10l5 21c10.667 -4 19 -6 25 -6
s10.833 1.5 14.5 4.5s5.5 9.16699 5.5 18.5c0 6.66699 -1.66699 12 -5 16s-7 6 -11 6c-4.66699 0 -9 -1 -13 -3l-4 5l14 53c-10.667 4.66699 -19.667 10.667 -27 18z" />
    <glyph glyph-name="Egrave" unicode="&#xc8;" horiz-adv-x="354" 
d="M294 598c-12.667 0 -21.6709 4 -27.0039 12c3.33301 4.66699 14.333 16.667 33 36c26 26.667 39 55 39 85c-8.66699 18 -18 29 -28 33c-57.333 0 -104.666 -19.667 -141.999 -59c-42 -44 -63 -105.667 -63 -185c0.666992 -6 1.83398 -11.833 3.50098 -17.5
s4.5 -8.16699 8.5 -7.5c16.667 5.33301 29 9 37 11s18 3 30 3c12.667 0 24.834 -2.16699 36.501 -6.5s23.167 -11.833 34.5 -22.5c14.667 -16.667 22 -36.334 22 -59.001c0 -13.333 -2.5 -23.666 -7.5 -30.999s-12.5 -14.333 -22.5 -21c-9.33301 -4 -18.666 -6 -27.999 -6
c-18.667 0 -38.167 6.5 -58.5 19.5s-38.5 30.833 -54.5 53.5c-22 -11.333 -39.5 -34 -52.5 -68s-19.5 -72 -19.5 -114c0 -31.333 4.66699 -63.166 14 -95.499s22.666 -57.833 39.999 -76.5c11.333 -12 23.833 -21.167 37.5 -27.5s26.5 -9.5 38.5 -9.5
c15.333 0 30 3.33301 44 10s27 15.667 39 27l56.5 67c12.333 15.333 22.833 30.666 31.5 45.999c3.33301 -4 5 -9 5 -15c0 -3.33301 -1.16699 -8.5 -3.5 -15.5s-3.5 -11.5 -3.5 -13.5c-21.333 -46 -43.333 -81 -66 -105c-29.333 -30.667 -60.666 -46 -93.999 -46
c-24 0 -49 8.66699 -75 26c-26 29.333 -46.667 59.333 -62 90c-20 40.667 -30 80.667 -30 120c0 113.333 26.667 192 80 236c-4.66699 23.333 -7 46.666 -7 69.999c0 53.333 12 102 36 146c20 36.667 46 66.667 78 90c24 8.66699 41.333 14.5 52 17.5s20.667 4.5 30 4.5
c16.667 0 31.167 -3.66699 43.5 -11s24.833 -20.666 37.5 -39.999c2 -13.333 3 -25.333 3 -36c0 -28 -7 -52.333 -21 -73c-10.667 -16 -25.667 -30 -45 -42zM119.996 1005l3 50l24 5l87 -190l-9 -20zM166.996 472c-1.33301 -1.33301 -7.33105 -4 -17.998 -8s-16 -10 -16 -18
c11.333 -16 24.666 -27.167 39.999 -33.5s31 -9.5 47 -9.5h15c9.33301 5.33301 15.333 15.333 18 30c-8.66699 16 -18.334 26.5 -29.001 31.5s-23.667 7.5 -39 7.5h-18z" />
    <glyph glyph-name="Eacute" unicode="&#xc9;" horiz-adv-x="354" 
d="M294 598c-12.667 0 -21.6709 4 -27.0039 12c3.33301 4.66699 14.333 16.667 33 36c26 26.667 39 55 39 85c-8.66699 18 -18 29 -28 33c-57.333 0 -104.666 -19.667 -141.999 -59c-42 -44 -63 -105.667 -63 -185c0.666992 -6 1.83398 -11.833 3.50098 -17.5
s4.5 -8.16699 8.5 -7.5c16.667 5.33301 29 9 37 11s18 3 30 3c12.667 0 24.834 -2.16699 36.501 -6.5s23.167 -11.833 34.5 -22.5c14.667 -16.667 22 -36.334 22 -59.001c0 -13.333 -2.5 -23.666 -7.5 -30.999s-12.5 -14.333 -22.5 -21c-9.33301 -4 -18.666 -6 -27.999 -6
c-18.667 0 -38.167 6.5 -58.5 19.5s-38.5 30.833 -54.5 53.5c-22 -11.333 -39.5 -34 -52.5 -68s-19.5 -72 -19.5 -114c0 -31.333 4.66699 -63.166 14 -95.499s22.666 -57.833 39.999 -76.5c11.333 -12 23.833 -21.167 37.5 -27.5s26.5 -9.5 38.5 -9.5
c15.333 0 30 3.33301 44 10s27 15.667 39 27l56.5 67c12.333 15.333 22.833 30.666 31.5 45.999c3.33301 -4 5 -9 5 -15c0 -3.33301 -1.16699 -8.5 -3.5 -15.5s-3.5 -11.5 -3.5 -13.5c-21.333 -46 -43.333 -81 -66 -105c-29.333 -30.667 -60.666 -46 -93.999 -46
c-24 0 -49 8.66699 -75 26c-26 29.333 -46.667 59.333 -62 90c-20 40.667 -30 80.667 -30 120c0 113.333 26.667 192 80 236c-4.66699 23.333 -7 46.666 -7 69.999c0 53.333 12 102 36 146c20 36.667 46 66.667 78 90c24 8.66699 41.333 14.5 52 17.5s20.667 4.5 30 4.5
c16.667 0 31.167 -3.66699 43.5 -11s24.833 -20.666 37.5 -39.999c2 -13.333 3 -25.333 3 -36c0 -28 -7 -52.333 -21 -73c-10.667 -16 -25.667 -30 -45 -42zM150.996 855l-9 20l87 190l24 -5l3 -50zM166.996 472c-1.33301 -1.33301 -7.33105 -4 -17.998 -8s-16 -10 -16 -18
c11.333 -16 24.666 -27.167 39.999 -33.5s31 -9.5 47 -9.5h15c9.33301 5.33301 15.333 15.333 18 30c-8.66699 16 -18.334 26.5 -29.001 31.5s-23.667 7.5 -39 7.5h-18z" />
    <glyph glyph-name="Ecircumflex" unicode="&#xca;" horiz-adv-x="354" 
d="M294 598c-12.667 0 -21.6709 4 -27.0039 12c3.33301 4.66699 14.333 16.667 33 36c26 26.667 39 55 39 85c-8.66699 18 -18 29 -28 33c-57.333 0 -104.666 -19.667 -141.999 -59c-42 -44 -63 -105.667 -63 -185c0.666992 -6 1.83398 -11.833 3.50098 -17.5
s4.5 -8.16699 8.5 -7.5c16.667 5.33301 29 9 37 11s18 3 30 3c12.667 0 24.834 -2.16699 36.501 -6.5s23.167 -11.833 34.5 -22.5c14.667 -16.667 22 -36.334 22 -59.001c0 -13.333 -2.5 -23.666 -7.5 -30.999s-12.5 -14.333 -22.5 -21c-9.33301 -4 -18.666 -6 -27.999 -6
c-18.667 0 -38.167 6.5 -58.5 19.5s-38.5 30.833 -54.5 53.5c-22 -11.333 -39.5 -34 -52.5 -68s-19.5 -72 -19.5 -114c0 -31.333 4.66699 -63.166 14 -95.499s22.666 -57.833 39.999 -76.5c11.333 -12 23.833 -21.167 37.5 -27.5s26.5 -9.5 38.5 -9.5
c15.333 0 30 3.33301 44 10s27 15.667 39 27l56.5 67c12.333 15.333 22.833 30.666 31.5 45.999c3.33301 -4 5 -9 5 -15c0 -3.33301 -1.16699 -8.5 -3.5 -15.5s-3.5 -11.5 -3.5 -13.5c-21.333 -46 -43.333 -81 -66 -105c-29.333 -30.667 -60.666 -46 -93.999 -46
c-24 0 -49 8.66699 -75 26c-26 29.333 -46.667 59.333 -62 90c-20 40.667 -30 80.667 -30 120c0 113.333 26.667 192 80 236c-4.66699 23.333 -7 46.666 -7 69.999c0 53.333 12 102 36 146c20 36.667 46 66.667 78 90c24 8.66699 41.333 14.5 52 17.5s20.667 4.5 30 4.5
c16.667 0 31.167 -3.66699 43.5 -11s24.833 -20.666 37.5 -39.999c2 -13.333 3 -25.333 3 -36c0 -28 -7 -52.333 -21 -73c-10.667 -16 -25.667 -30 -45 -42zM234.996 882c-4 16 -7.66895 32 -11.002 48c-5.33301 22 -10.666 38.333 -15.999 49
c-3.33301 -20 -8.16602 -38.167 -14.499 -54.5s-14.5 -32.833 -24.5 -49.5l-9 14c10 16 18.333 33.833 25 53.5s11.667 44.5 15 74.5c10 -12.667 19.667 -33.667 29 -63c6.66699 -22 12 -44 16 -66zM166.994 472c-1.33301 -1.33301 -7.33105 -4 -17.998 -8s-16 -10 -16 -18
c11.333 -16 24.666 -27.167 39.999 -33.5s31 -9.5 47 -9.5h15c9.33301 5.33301 15.333 15.333 18 30c-8.66699 16 -18.334 26.5 -29.001 31.5s-23.667 7.5 -39 7.5h-18z" />
    <glyph glyph-name="Edieresis" unicode="&#xcb;" horiz-adv-x="354" 
d="M294 598c-12.667 0 -21.6709 4 -27.0039 12c3.33301 4.66699 14.333 16.667 33 36c26 26.667 39 55 39 85c-8.66699 18 -18 29 -28 33c-57.333 0 -104.666 -19.667 -141.999 -59c-42 -44 -63 -105.667 -63 -185c0.666992 -6 1.83398 -11.833 3.50098 -17.5
s4.5 -8.16699 8.5 -7.5c16.667 5.33301 29 9 37 11s18 3 30 3c12.667 0 24.834 -2.16699 36.501 -6.5s23.167 -11.833 34.5 -22.5c14.667 -16.667 22 -36.334 22 -59.001c0 -13.333 -2.5 -23.666 -7.5 -30.999s-12.5 -14.333 -22.5 -21c-9.33301 -4 -18.666 -6 -27.999 -6
c-18.667 0 -38.167 6.5 -58.5 19.5s-38.5 30.833 -54.5 53.5c-22 -11.333 -39.5 -34 -52.5 -68s-19.5 -72 -19.5 -114c0 -31.333 4.66699 -63.166 14 -95.499s22.666 -57.833 39.999 -76.5c11.333 -12 23.833 -21.167 37.5 -27.5s26.5 -9.5 38.5 -9.5
c15.333 0 30 3.33301 44 10s27 15.667 39 27l56.5 67c12.333 15.333 22.833 30.666 31.5 45.999c3.33301 -4 5 -9 5 -15c0 -3.33301 -1.16699 -8.5 -3.5 -15.5s-3.5 -11.5 -3.5 -13.5c-21.333 -46 -43.333 -81 -66 -105c-29.333 -30.667 -60.666 -46 -93.999 -46
c-24 0 -49 8.66699 -75 26c-26 29.333 -46.667 59.333 -62 90c-20 40.667 -30 80.667 -30 120c0 113.333 26.667 192 80 236c-4.66699 23.333 -7 46.666 -7 69.999c0 53.333 12 102 36 146c20 36.667 46 66.667 78 90c24 8.66699 41.333 14.5 52 17.5s20.667 4.5 30 4.5
c16.667 0 31.167 -3.66699 43.5 -11s24.833 -20.666 37.5 -39.999c2 -13.333 3 -25.333 3 -36c0 -28 -7 -52.333 -21 -73c-10.667 -16 -25.667 -30 -45 -42zM181.996 968c6.66699 -8.66699 9.99902 -19.999 9.99902 -33.999c0 -8.66699 -1.66699 -17.167 -5 -25.5
s-9.66602 -12.5 -18.999 -12.5c-5.33301 0 -10 2 -14 6c-6.66699 7.33301 -10 18.666 -10 33.999c0 8.66699 1.33301 16 4 22c5.33301 11.333 12.333 17 21 17c4.66699 0 9 -2.33301 13 -7zM296.995 965.001c6.66699 -8.66699 9.99902 -19.999 9.99902 -33.999
c0 -8.66699 -1.66699 -17.167 -5 -25.5s-9.66602 -12.5 -18.999 -12.5c-5.33301 0 -10 2 -14 6c-6.66699 8.66699 -10 20 -10 34c0 9.33301 1.33301 16.666 4 21.999c5.33301 11.333 12.333 17 21 17c4.66699 0 9 -2.33301 13 -7zM166.994 472.002
c-1.33301 -1.33301 -7.33105 -4 -17.998 -8s-16 -10 -16 -18c11.333 -16 24.666 -27.167 39.999 -33.5s31 -9.5 47 -9.5h15c9.33301 5.33301 15.333 15.333 18 30c-8.66699 16 -18.334 26.5 -29.001 31.5s-23.667 7.5 -39 7.5h-18z" />
    <glyph glyph-name="Igrave" unicode="&#xcc;" horiz-adv-x="318" 
d="M257 613c-10 -44 -20.3398 -109.997 -31.0068 -197.997c-14.667 -116 -23.667 -185 -27 -207c-12.667 -74.667 -28.667 -137 -48 -187c-12 -14.667 -18.667 -22.667 -20 -24c-8.66699 -8 -17.667 -12 -27 -12c-5.33301 0 -10.666 1.33301 -15.999 4
c-16 2 -33 16.667 -51 44c-12.667 18.667 -26 45 -40 79c-9.33301 40.667 -14.666 63.667 -15.999 69c-3.33301 16 -5 29.333 -5 40c0 18 3.66699 31 11 39h5c4 -39.333 11.833 -77.5 23.5 -114.5s26.834 -66.5 45.501 -88.5c6 -6.66699 12.5 -12.334 19.5 -17.001
s13.5 -7 19.5 -7c6.66699 0 12.667 3 18 9c20 40 36.333 98.333 49 175l28.5 189.5c9.66699 62.333 16.834 106.5 21.501 132.5c8 45.333 16.667 86.666 26 123.999c-24 -12 -47.167 -28.833 -69.5 -50.5s-41.166 -46.834 -56.499 -75.501
c-8 -15.333 -12 -33.666 -12 -54.999c0 -29.333 6.33301 -60 19 -92c0.666992 -9.33301 6 -22 16 -38s15 -26.667 15 -32c0 -4.66699 -2 -8.66699 -6 -12c-10.667 4 -20.667 16 -30 36c-9.33301 24 -16.333 41 -21 51c-11.333 35.333 -17 69.333 -17 102
c0 21.333 2.66699 40.666 8 57.999c14.667 34.667 38.667 65.667 72 93c88.667 72.667 136.334 114 143.001 124c0.666992 0.666992 3.83398 3 9.50098 7s9.83398 6 12.501 6s5.66699 -1 9 -3l4 -18c-22.667 -16 -40.334 -34.667 -53.001 -56
c-15.333 -26 -25 -57.667 -29 -95zM107.993 1025l3 50l24 5l87 -190l-9 -20z" />
    <glyph glyph-name="Iacute" unicode="&#xcd;" horiz-adv-x="318" 
d="M257 613c-10 -44 -20.3398 -109.997 -31.0068 -197.997c-14.667 -116 -23.667 -185 -27 -207c-12.667 -74.667 -28.667 -137 -48 -187c-12 -14.667 -18.667 -22.667 -20 -24c-8.66699 -8 -17.667 -12 -27 -12c-5.33301 0 -10.666 1.33301 -15.999 4
c-16 2 -33 16.667 -51 44c-12.667 18.667 -26 45 -40 79c-9.33301 40.667 -14.666 63.667 -15.999 69c-3.33301 16 -5 29.333 -5 40c0 18 3.66699 31 11 39h5c4 -39.333 11.833 -77.5 23.5 -114.5s26.834 -66.5 45.501 -88.5c6 -6.66699 12.5 -12.334 19.5 -17.001
s13.5 -7 19.5 -7c6.66699 0 12.667 3 18 9c20 40 36.333 98.333 49 175l28.5 189.5c9.66699 62.333 16.834 106.5 21.501 132.5c8 45.333 16.667 86.666 26 123.999c-24 -12 -47.167 -28.833 -69.5 -50.5s-41.166 -46.834 -56.499 -75.501
c-8 -15.333 -12 -33.666 -12 -54.999c0 -29.333 6.33301 -60 19 -92c0.666992 -9.33301 6 -22 16 -38s15 -26.667 15 -32c0 -4.66699 -2 -8.66699 -6 -12c-10.667 4 -20.667 16 -30 36c-9.33301 24 -16.333 41 -21 51c-11.333 35.333 -17 69.333 -17 102
c0 21.333 2.66699 40.666 8 57.999c14.667 34.667 38.667 65.667 72 93c88.667 72.667 136.334 114 143.001 124c0.666992 0.666992 3.83398 3 9.50098 7s9.83398 6 12.501 6s5.66699 -1 9 -3l4 -18c-22.667 -16 -40.334 -34.667 -53.001 -56
c-15.333 -26 -25 -57.667 -29 -95zM150.993 810.003l-9 20l87 190l24 -5l3 -50z" />
    <glyph glyph-name="Icircumflex" unicode="&#xce;" horiz-adv-x="318" 
d="M257 613c-10 -44 -20.3398 -109.997 -31.0068 -197.997c-14.667 -116 -23.667 -185 -27 -207c-12.667 -74.667 -28.667 -137 -48 -187c-12 -14.667 -18.667 -22.667 -20 -24c-8.66699 -8 -17.667 -12 -27 -12c-5.33301 0 -10.666 1.33301 -15.999 4
c-16 2 -33 16.667 -51 44c-12.667 18.667 -26 45 -40 79c-9.33301 40.667 -14.666 63.667 -15.999 69c-3.33301 16 -5 29.333 -5 40c0 18 3.66699 31 11 39h5c4 -39.333 11.833 -77.5 23.5 -114.5s26.834 -66.5 45.501 -88.5c6 -6.66699 12.5 -12.334 19.5 -17.001
s13.5 -7 19.5 -7c6.66699 0 12.667 3 18 9c20 40 36.333 98.333 49 175l28.5 189.5c9.66699 62.333 16.834 106.5 21.501 132.5c8 45.333 16.667 86.666 26 123.999c-24 -12 -47.167 -28.833 -69.5 -50.5s-41.166 -46.834 -56.499 -75.501
c-8 -15.333 -12 -33.666 -12 -54.999c0 -29.333 6.33301 -60 19 -92c0.666992 -9.33301 6 -22 16 -38s15 -26.667 15 -32c0 -4.66699 -2 -8.66699 -6 -12c-10.667 4 -20.667 16 -30 36c-9.33301 24 -16.333 41 -21 51c-11.333 35.333 -17 69.333 -17 102
c0 21.333 2.66699 40.666 8 57.999c14.667 34.667 38.667 65.667 72 93c88.667 72.667 136.334 114 143.001 124c0.666992 0.666992 3.83398 3 9.50098 7s9.83398 6 12.501 6s5.66699 -1 9 -3l4 -18c-22.667 -16 -40.334 -34.667 -53.001 -56
c-15.333 -26 -25 -57.667 -29 -95zM198.993 862.003c-4 16 -7.66895 32 -11.002 48c-5.33301 22 -10.666 38.333 -15.999 49c-3.33301 -20 -8.16602 -38.167 -14.499 -54.5s-14.5 -32.833 -24.5 -49.5l-9 14c10 16 18.333 33.833 25 53.5s11.667 44.5 15 74.5
c10 -12.667 19.667 -33.667 29 -63c6.66699 -22 12 -44 16 -66z" />
    <glyph glyph-name="Idieresis" unicode="&#xcf;" horiz-adv-x="318" 
d="M257 613c-10 -44 -20.3398 -109.997 -31.0068 -197.997c-14.667 -116 -23.667 -185 -27 -207c-12.667 -74.667 -28.667 -137 -48 -187c-12 -14.667 -18.667 -22.667 -20 -24c-8.66699 -8 -17.667 -12 -27 -12c-5.33301 0 -10.666 1.33301 -15.999 4
c-16 2 -33 16.667 -51 44c-12.667 18.667 -26 45 -40 79c-9.33301 40.667 -14.666 63.667 -15.999 69c-3.33301 16 -5 29.333 -5 40c0 18 3.66699 31 11 39h5c4 -39.333 11.833 -77.5 23.5 -114.5s26.834 -66.5 45.501 -88.5c6 -6.66699 12.5 -12.334 19.5 -17.001
s13.5 -7 19.5 -7c6.66699 0 12.667 3 18 9c20 40 36.333 98.333 49 175l28.5 189.5c9.66699 62.333 16.834 106.5 21.501 132.5c8 45.333 16.667 86.666 26 123.999c-24 -12 -47.167 -28.833 -69.5 -50.5s-41.166 -46.834 -56.499 -75.501
c-8 -15.333 -12 -33.666 -12 -54.999c0 -29.333 6.33301 -60 19 -92c0.666992 -9.33301 6 -22 16 -38s15 -26.667 15 -32c0 -4.66699 -2 -8.66699 -6 -12c-10.667 4 -20.667 16 -30 36c-9.33301 24 -16.333 41 -21 51c-11.333 35.333 -17 69.333 -17 102
c0 21.333 2.66699 40.666 8 57.999c14.667 34.667 38.667 65.667 72 93c88.667 72.667 136.334 114 143.001 124c0.666992 0.666992 3.83398 3 9.50098 7s9.83398 6 12.501 6s5.66699 -1 9 -3l4 -18c-22.667 -16 -40.334 -34.667 -53.001 -56
c-15.333 -26 -25 -57.667 -29 -95zM118.993 913.003c6.66699 -8.66699 9.99902 -19.999 9.99902 -33.999c0 -8.66699 -1.66699 -17.167 -5 -25.5s-9.66602 -12.5 -18.999 -12.5c-5.33301 0 -10 2 -14 6c-6.66699 7.33301 -10 18.666 -10 33.999c0 8.66699 1.33301 16 4 22
c5.33301 11.333 12.333 17 21 17c4.66699 0 9 -2.33301 13 -7zM233.992 910.004c6.66699 -8.66699 9.99902 -19.999 9.99902 -33.999c0 -8.66699 -1.66699 -17.167 -5 -25.5s-9.66602 -12.5 -18.999 -12.5c-5.33301 0 -10 2 -14 6c-6.66699 8.66699 -10 20 -10 34
c0 9.33301 1.33301 16.666 4 21.999c5.33301 11.333 12.333 17 21 17c4.66699 0 9 -2.33301 13 -7z" />
    <glyph glyph-name="Eth" unicode="&#xd0;" horiz-adv-x="478" 
d="M55 516c0 36 -2.16504 62.333 -6.49805 79s-12.5 27.667 -24.5 33v16c9.33301 0 25.166 -0.666992 47.499 -2s34.166 -2 35.499 -2h137c51.333 0 97 -24.333 137 -73c49.333 -60 74 -142.333 74 -247s-24.667 -187 -74 -247c-40 -48.667 -85.667 -73 -137 -73h-120
c-12.667 -0 -34.5 -0.666992 -65.5 -2s-47.833 -2 -50.5 -2v20c20 2 33.333 20 40 54c4.66699 23.333 7 63.333 7 120v131h-48v37h48v158zM160.002 358h83.999v-37h-84v-131c0 -70 3.83301 -113.833 11.5 -131.5s24.834 -26.5 51.501 -26.5c40.667 0 71 33.333 91 100
c15.333 51.333 23 114 23 188c0 99.333 -8.66699 170 -26 212c-20.667 50.667 -57.667 76 -111 76h-40v-250z" />
    <glyph glyph-name="Ntilde" unicode="&#xd1;" horiz-adv-x="468" 
d="M360 26c-4.66699 -9.33301 -7.67188 -14.667 -9.00488 -16s-3.66602 -2 -6.99902 -2c-2.66699 0 -6 2 -10 6c-12.667 20 -23 48.333 -31 85c-5.33301 24.667 -10 54.667 -14 90l-29.5 254.5c-9 79.667 -17.833 168.167 -26.5 265.5l-9 8
c-18.667 -57.333 -36 -129 -52 -215l-40 -235c-16 -90.667 -32.333 -165.667 -49 -225c-6 -13.333 -13 -24.166 -21 -32.499s-17 -13.166 -27 -14.499c-15.333 0 -30.666 10.333 -45.999 31c-11.333 15.333 -23 37.333 -35 66c-1.33301 6 -3.16602 13.833 -5.49902 23.5
s-3.5 16.834 -3.5 21.501s1 8.66699 3 12c4.66699 2 9.66699 -1.66699 15 -11c4 -20 10.667 -38.333 20 -55s20.333 -30.334 33 -41.001c4 -2 7.66699 -3 11 -3c7.33301 0 13.333 4.66699 18 14l13 27c11.333 46 26.333 120 45 222c22 121.333 36.333 197.666 43 228.999
c17.333 84.667 35.333 156 54 214c6.66699 14 10.667 22 12 24c6 8 13 10.333 21 7c12.667 -17.333 21.334 -41 26.001 -71l7 -74c18 -174.667 40 -352 66 -532l8 -11c14 49.333 26.667 118 38 206c5.33301 43.333 11 87 17 131c0 2 9.66699 63 29 183
c12 75.333 18 137.666 18 186.999c4 0 7.66699 -2.33301 11 -7s5.33301 -8.66699 6 -12l2 -31l-40 -365c-17.333 -138.667 -37.666 -256.667 -60.999 -354zM231.995 992.999l45.001 -0.000976562l44 12c12.667 5.33301 22.667 16.333 30 33v-15
c-7.33301 -24 -14.333 -40 -21 -48s-19 -15 -37 -21h-55c-10.667 -3.33301 -19.5 -10.166 -26.5 -20.499s-13.167 -24.5 -18.5 -42.5c5.33301 38.667 8.66602 60.667 9.99902 66c5.33301 19.333 15 31.333 29 36z" />
    <glyph glyph-name="Ograve" unicode="&#xd2;" horiz-adv-x="399" 
d="M235 10c-15.333 -10 -32.668 -15.002 -52.001 -15.002c-32 0 -61.333 15.667 -88 47c-21.333 26 -39.166 57.833 -53.499 95.5s-23.5 75.834 -27.5 114.501s-6 71.667 -6 99c0 72 8.5 138.5 25.5 199.5s40.833 111.167 71.5 150.5c4 -0.666992 6.5 -4.16699 7.5 -10.5
s2.16699 -12.166 3.5 -17.499c-24.667 -64 -42.334 -116 -53.001 -156c-16.667 -62 -25 -121.667 -25 -179c0 -32.667 2.66699 -66.5 8 -101.5s14.333 -71.5 27 -109.5c16.667 -30 33 -52.667 49 -68c19.333 -18.667 38 -26.334 56 -23.001c60 24 106.333 86 139 186
c28.667 87.333 43 186.666 43 297.999c0 40 -2 72.333 -6 97c-6.66699 39.333 -18.667 71.333 -36 96c-10 14 -22 24.333 -36 31s-28.333 10 -43 10c-28 -13.333 -52.333 -39.666 -73 -78.999c-25.333 -47.333 -47.333 -119.666 -66 -216.999
c-2 -0.666992 -4.16699 0.166016 -6.5 2.49902s-5.16602 6.5 -8.49902 12.5c0 76 12.833 143.333 38.5 202s60.5 98.334 104.5 119.001c20.667 0 36.667 -1 48 -3s23 -9 35 -21c16.667 -16 31.5 -40.5 44.5 -73.5s23.167 -80.833 30.5 -143.5c0 -118 -12 -222.333 -36 -313
c-26 -98 -64.333 -174.667 -115 -230zM134.998 1020l3 50l24 5l87 -190l-9 -20z" />
    <glyph glyph-name="Oacute" unicode="&#xd3;" horiz-adv-x="399" 
d="M235 10c-15.333 -10 -32.668 -15.002 -52.001 -15.002c-32 0 -61.333 15.667 -88 47c-21.333 26 -39.166 57.833 -53.499 95.5s-23.5 75.834 -27.5 114.501s-6 71.667 -6 99c0 72 8.5 138.5 25.5 199.5s40.833 111.167 71.5 150.5c4 -0.666992 6.5 -4.16699 7.5 -10.5
s2.16699 -12.166 3.5 -17.499c-24.667 -64 -42.334 -116 -53.001 -156c-16.667 -62 -25 -121.667 -25 -179c0 -32.667 2.66699 -66.5 8 -101.5s14.333 -71.5 27 -109.5c16.667 -30 33 -52.667 49 -68c19.333 -18.667 38 -26.334 56 -23.001c60 24 106.333 86 139 186
c28.667 87.333 43 186.666 43 297.999c0 40 -2 72.333 -6 97c-6.66699 39.333 -18.667 71.333 -36 96c-10 14 -22 24.333 -36 31s-28.333 10 -43 10c-28 -13.333 -52.333 -39.666 -73 -78.999c-25.333 -47.333 -47.333 -119.666 -66 -216.999
c-2 -0.666992 -4.16699 0.166016 -6.5 2.49902s-5.16602 6.5 -8.49902 12.5c0 76 12.833 143.333 38.5 202s60.5 98.334 104.5 119.001c20.667 0 36.667 -1 48 -3s23 -9 35 -21c16.667 -16 31.5 -40.5 44.5 -73.5s23.167 -80.833 30.5 -143.5c0 -118 -12 -222.333 -36 -313
c-26 -98 -64.333 -174.667 -115 -230zM174.998 844.998l-9 20l87 190l24 -5l3 -50z" />
    <glyph glyph-name="Ocircumflex" unicode="&#xd4;" horiz-adv-x="399" 
d="M235 10c-15.333 -10 -32.668 -15.002 -52.001 -15.002c-32 0 -61.333 15.667 -88 47c-21.333 26 -39.166 57.833 -53.499 95.5s-23.5 75.834 -27.5 114.501s-6 71.667 -6 99c0 72 8.5 138.5 25.5 199.5s40.833 111.167 71.5 150.5c4 -0.666992 6.5 -4.16699 7.5 -10.5
s2.16699 -12.166 3.5 -17.499c-24.667 -64 -42.334 -116 -53.001 -156c-16.667 -62 -25 -121.667 -25 -179c0 -32.667 2.66699 -66.5 8 -101.5s14.333 -71.5 27 -109.5c16.667 -30 33 -52.667 49 -68c19.333 -18.667 38 -26.334 56 -23.001c60 24 106.333 86 139 186
c28.667 87.333 43 186.666 43 297.999c0 40 -2 72.333 -6 97c-6.66699 39.333 -18.667 71.333 -36 96c-10 14 -22 24.333 -36 31s-28.333 10 -43 10c-28 -13.333 -52.333 -39.666 -73 -78.999c-25.333 -47.333 -47.333 -119.666 -66 -216.999
c-2 -0.666992 -4.16699 0.166016 -6.5 2.49902s-5.16602 6.5 -8.49902 12.5c0 76 12.833 143.333 38.5 202s60.5 98.334 104.5 119.001c20.667 0 36.667 -1 48 -3s23 -9 35 -21c16.667 -16 31.5 -40.5 44.5 -73.5s23.167 -80.833 30.5 -143.5c0 -118 -12 -222.333 -36 -313
c-26 -98 -64.333 -174.667 -115 -230zM270.998 971.998c-4 16 -7.66895 32 -11.002 48c-5.33301 22 -10.666 38.333 -15.999 49c-3.33301 -20 -8.16602 -38.167 -14.499 -54.5s-14.5 -32.833 -24.5 -49.5l-9 14c10 16 18.333 33.833 25 53.5s11.667 44.5 15 74.5
c10 -12.667 19.667 -33.667 29 -63c6.66699 -22 12 -44 16 -66z" />
    <glyph glyph-name="Otilde" unicode="&#xd5;" horiz-adv-x="402" 
d="M178 928l45.001 -0.000976562l44 12c12.667 5.33301 22.667 16.333 30 33v-15c-7.33301 -24 -14.333 -40 -21 -48s-19 -15 -37 -21h-55c-10.667 -3.33301 -19.5 -10.166 -26.5 -20.499s-13.167 -24.5 -18.5 -42.5c5.33301 38.667 8.66602 60.667 9.99902 66
c5.33301 19.333 15 31.333 29 36zM235.001 9.99902c-15.333 -10 -32.668 -15.002 -52.001 -15.002c-32 0 -61.333 15.667 -88 47c-21.333 26 -39.166 57.833 -53.499 95.5s-23.5 75.834 -27.5 114.501s-6 71.667 -6 99c0 72 8.5 138.5 25.5 199.5s40.833 111.167 71.5 150.5
c4 -0.666992 6.5 -4.16699 7.5 -10.5s2.16699 -12.166 3.5 -17.499c-24.667 -64 -42.334 -116 -53.001 -156c-16.667 -62 -25 -121.667 -25 -179c0 -32.667 2.66699 -66.5 8 -101.5s14.333 -71.5 27 -109.5c16.667 -30 33 -52.667 49 -68
c19.333 -18.667 38 -26.334 56 -23.001c60 24 106.333 86 139 186c28.667 87.333 43 186.666 43 297.999c0 40 -2 72.333 -6 97c-6.66699 39.333 -18.667 71.333 -36 96c-10 14 -22 24.333 -36 31s-28.333 10 -43 10c-28 -13.333 -52.333 -39.666 -73 -78.999
c-25.333 -47.333 -47.333 -119.666 -66 -216.999c-2 -0.666992 -4.16699 0.166016 -6.5 2.49902s-5.16602 6.5 -8.49902 12.5c0 76 12.833 143.333 38.5 202s60.5 98.334 104.5 119.001c20.667 0 36.667 -1 48 -3s23 -9 35 -21c16.667 -16 31.5 -40.5 44.5 -73.5
s23.167 -80.833 30.5 -143.5c0 -118 -12 -222.333 -36 -313c-26 -98 -64.333 -174.667 -115 -230z" />
    <glyph glyph-name="Odieresis" unicode="&#xd6;" horiz-adv-x="399" 
d="M235 10c-15.333 -10 -32.668 -15.002 -52.001 -15.002c-32 0 -61.333 15.667 -88 47c-21.333 26 -39.166 57.833 -53.499 95.5s-23.5 75.834 -27.5 114.501s-6 71.667 -6 99c0 72 8.5 138.5 25.5 199.5s40.833 111.167 71.5 150.5c4 -0.666992 6.5 -4.16699 7.5 -10.5
s2.16699 -12.166 3.5 -17.499c-24.667 -64 -42.334 -116 -53.001 -156c-16.667 -62 -25 -121.667 -25 -179c0 -32.667 2.66699 -66.5 8 -101.5s14.333 -71.5 27 -109.5c16.667 -30 33 -52.667 49 -68c19.333 -18.667 38 -26.334 56 -23.001c60 24 106.333 86 139 186
c28.667 87.333 43 186.666 43 297.999c0 40 -2 72.333 -6 97c-6.66699 39.333 -18.667 71.333 -36 96c-10 14 -22 24.333 -36 31s-28.333 10 -43 10c-28 -13.333 -52.333 -39.666 -73 -78.999c-25.333 -47.333 -47.333 -119.666 -66 -216.999
c-2 -0.666992 -4.16699 0.166016 -6.5 2.49902s-5.16602 6.5 -8.49902 12.5c0 76 12.833 143.333 38.5 202s60.5 98.334 104.5 119.001c20.667 0 36.667 -1 48 -3s23 -9 35 -21c16.667 -16 31.5 -40.5 44.5 -73.5s23.167 -80.833 30.5 -143.5c0 -118 -12 -222.333 -36 -313
c-26 -98 -64.333 -174.667 -115 -230zM175.998 972.998c6.66699 -8.66699 9.99902 -19.999 9.99902 -33.999c0 -8.66699 -1.66699 -17.167 -5 -25.5s-9.66602 -12.5 -18.999 -12.5c-5.33301 0 -10 2 -14 6c-6.66699 7.33301 -10 18.666 -10 33.999
c0 8.66699 1.33301 16 4 22c5.33301 11.333 12.333 17 21 17c4.66699 0 9 -2.33301 13 -7zM290.997 969.999c6.66699 -8.66699 9.99902 -19.999 9.99902 -33.999c0 -8.66699 -1.66699 -17.167 -5 -25.5s-9.66602 -12.5 -18.999 -12.5c-5.33301 0 -10 2 -14 6
c-6.66699 8.66699 -10 20 -10 34c0 9.33301 1.33301 16.666 4 21.999c5.33301 11.333 12.333 17 21 17c4.66699 0 9 -2.33301 13 -7z" />
    <glyph glyph-name="multiply" unicode="&#xd7;" horiz-adv-x="360" 
d="M24 437l50 81l106 -176l106 176l50 -81l-107 -177l107 -178l-50 -80l-106 176l-106 -176l-50 80l107 178z" />
    <glyph glyph-name="Oslash" unicode="&#xd8;" horiz-adv-x="399" 
d="M377 916l20 -22.001l-60 -157c13.333 -22.667 24.333 -52 33 -88c6.66699 -26.667 12 -58.667 16 -96c0 -118 -12 -222.333 -36 -313c-26 -98 -64.333 -174.667 -115 -230c-15.333 -10 -32 -15 -50 -15c-33.333 0 -63.333 15.667 -90 47l-15 20l-37 -98l-20 22l39 104
c-26.667 48.667 -42.5 96.667 -47.5 144s-7.5 86.666 -7.5 117.999c0 70.667 8.83301 136.667 26.5 198s41.5 111.666 71.5 150.999c4 -0.666992 6.5 -4.16699 7.5 -10.5s2.16699 -12.166 3.5 -17.499c-24.667 -64 -42.334 -116 -53.001 -156
c-16.667 -62 -25 -121.667 -25 -179c0 -32.667 2.66699 -66.5 8 -101.5s14.333 -71.5 27 -109.5l2 -4l230 605c-9.33301 10 -19.5 16.833 -30.5 20.5s-22.833 5.5 -35.5 5.5c-28 -13.333 -52.333 -39.666 -73 -78.999c-25.333 -47.333 -47.333 -119.666 -66 -216.999
c-2 -0.666992 -4.16699 0.166016 -6.5 2.49902s-5.16602 6.5 -8.49902 12.5c0 76 12.833 143.333 38.5 202s60.5 98.334 104.5 119.001c20.667 0 36.667 -1 48 -3s23 -9 35 -21l8 -7zM93 94.999c13.333 -20 25.334 -34.333 36.001 -43c13.333 -11.333 26.666 -17 39.999 -17
c4 0 7 0.333008 9 1c60 24 106.333 86 139 186c28.667 87.333 43 186.666 43 297.999c0 46 -3 83.333 -9 112s-14.667 52.334 -26 71.001z" />
    <glyph glyph-name="Ugrave" unicode="&#xd9;" horiz-adv-x="438" 
d="M367 1c-14 11.333 -26.332 28.4902 -36.999 51.4902s-18.667 47.833 -24 74.5s-8.83301 52.667 -10.5 78s-2.5 53 -2.5 83l-65 -166c-28.667 -62.667 -61.667 -100 -99 -112c-10.667 0 -21.334 5.33301 -32.001 16c-3.33301 3.33301 -19 26 -47 68
c-10 26 -17.167 51.333 -21.5 76s-6.5 49.334 -6.5 74.001c0 30.667 3.66699 64.334 11 101.001c4 21.333 11.667 52.333 23 93l94 300c-3.33301 13.333 -8.66602 21.333 -15.999 24c-18.667 -12 -35.834 -27.667 -51.501 -47s-29.834 -42.333 -42.501 -69
c-2.66699 0 -5.66699 -0.166992 -9 -0.5s-6.33301 2.16699 -9 7.5c4 36 17.333 67.333 40 94c18 20.667 41.333 38.334 70 53.001c18 0 32.333 -11.333 43 -34l5 -28c-5.33301 -40 -16.666 -86.333 -33.999 -139c-24 -74 -38 -119 -42 -135l-32 -124
c-10.667 -43.333 -16 -85.333 -16 -126v-37c2 -11.333 3.33301 -19.666 4 -24.999c4.66699 -16 10.334 -30.833 17.001 -44.5s14.667 -24.5 24 -32.5c8.66699 -4.66699 16.667 -7 24 -7c19.333 0 37.666 15.667 54.999 47l23 44
c25.333 48.667 49.666 112.334 72.999 191.001c5.33301 18 24 88.667 56 212c22 84.667 42.667 152.667 62 204c0 4.66699 1.66699 7 5 7h10c8.66699 -6 13 -14.333 13 -25c0 -2.66699 -1.16699 -8.16699 -3.5 -16.5s-3.5 -14.166 -3.5 -17.499l-61 -205
c-22 -84 -33 -161.333 -33 -232c0 -35.333 2.83301 -71.666 8.5 -108.999s14.167 -75.666 25.5 -114.999c6.66699 -9.33301 13 -14 19 -14c4 0 9.5 2 16.5 6s11.167 6 12.5 6c8.66699 4.66699 18.5 18.334 29.5 41.001s21.167 35.334 30.5 38.001l3 -16l-35 -75
c-14.667 -26 -31.667 -39 -51 -39c-5.33301 -0 -9.66602 0.333008 -12.999 1zM174.001 1014.99l3 50l24 5l87 -190l-9 -20z" />
    <glyph glyph-name="Uacute" unicode="&#xda;" horiz-adv-x="438" 
d="M367 1c-14 11.333 -26.332 28.4902 -36.999 51.4902s-18.667 47.833 -24 74.5s-8.83301 52.667 -10.5 78s-2.5 53 -2.5 83l-65 -166c-28.667 -62.667 -61.667 -100 -99 -112c-10.667 0 -21.334 5.33301 -32.001 16c-3.33301 3.33301 -19 26 -47 68
c-10 26 -17.167 51.333 -21.5 76s-6.5 49.334 -6.5 74.001c0 30.667 3.66699 64.334 11 101.001c4 21.333 11.667 52.333 23 93l94 300c-3.33301 13.333 -8.66602 21.333 -15.999 24c-18.667 -12 -35.834 -27.667 -51.501 -47s-29.834 -42.333 -42.501 -69
c-2.66699 0 -5.66699 -0.166992 -9 -0.5s-6.33301 2.16699 -9 7.5c4 36 17.333 67.333 40 94c18 20.667 41.333 38.334 70 53.001c18 0 32.333 -11.333 43 -34l5 -28c-5.33301 -40 -16.666 -86.333 -33.999 -139c-24 -74 -38 -119 -42 -135l-32 -124
c-10.667 -43.333 -16 -85.333 -16 -126v-37c2 -11.333 3.33301 -19.666 4 -24.999c4.66699 -16 10.334 -30.833 17.001 -44.5s14.667 -24.5 24 -32.5c8.66699 -4.66699 16.667 -7 24 -7c19.333 0 37.666 15.667 54.999 47l23 44
c25.333 48.667 49.666 112.334 72.999 191.001c5.33301 18 24 88.667 56 212c22 84.667 42.667 152.667 62 204c0 4.66699 1.66699 7 5 7h10c8.66699 -6 13 -14.333 13 -25c0 -2.66699 -1.16699 -8.16699 -3.5 -16.5s-3.5 -14.166 -3.5 -17.499l-61 -205
c-22 -84 -33 -161.333 -33 -232c0 -35.333 2.83301 -71.666 8.5 -108.999s14.167 -75.666 25.5 -114.999c6.66699 -9.33301 13 -14 19 -14c4 0 9.5 2 16.5 6s11.167 6 12.5 6c8.66699 4.66699 18.5 18.334 29.5 41.001s21.167 35.334 30.5 38.001l3 -16l-35 -75
c-14.667 -26 -31.667 -39 -51 -39c-5.33301 -0 -9.66602 0.333008 -12.999 1zM208.001 894.99l-9 20l87 190l24 -5l3 -50z" />
    <glyph glyph-name="Ucircumflex" unicode="&#xdb;" horiz-adv-x="438" 
d="M367 1c-14 11.333 -26.332 28.4902 -36.999 51.4902s-18.667 47.833 -24 74.5s-8.83301 52.667 -10.5 78s-2.5 53 -2.5 83l-65 -166c-28.667 -62.667 -61.667 -100 -99 -112c-10.667 0 -21.334 5.33301 -32.001 16c-3.33301 3.33301 -19 26 -47 68
c-10 26 -17.167 51.333 -21.5 76s-6.5 49.334 -6.5 74.001c0 30.667 3.66699 64.334 11 101.001c4 21.333 11.667 52.333 23 93l94 300c-3.33301 13.333 -8.66602 21.333 -15.999 24c-18.667 -12 -35.834 -27.667 -51.501 -47s-29.834 -42.333 -42.501 -69
c-2.66699 0 -5.66699 -0.166992 -9 -0.5s-6.33301 2.16699 -9 7.5c4 36 17.333 67.333 40 94c18 20.667 41.333 38.334 70 53.001c18 0 32.333 -11.333 43 -34l5 -28c-5.33301 -40 -16.666 -86.333 -33.999 -139c-24 -74 -38 -119 -42 -135l-32 -124
c-10.667 -43.333 -16 -85.333 -16 -126v-37c2 -11.333 3.33301 -19.666 4 -24.999c4.66699 -16 10.334 -30.833 17.001 -44.5s14.667 -24.5 24 -32.5c8.66699 -4.66699 16.667 -7 24 -7c19.333 0 37.666 15.667 54.999 47l23 44
c25.333 48.667 49.666 112.334 72.999 191.001c5.33301 18 24 88.667 56 212c22 84.667 42.667 152.667 62 204c0 4.66699 1.66699 7 5 7h10c8.66699 -6 13 -14.333 13 -25c0 -2.66699 -1.16699 -8.16699 -3.5 -16.5s-3.5 -14.166 -3.5 -17.499l-61 -205
c-22 -84 -33 -161.333 -33 -232c0 -35.333 2.83301 -71.666 8.5 -108.999s14.167 -75.666 25.5 -114.999c6.66699 -9.33301 13 -14 19 -14c4 0 9.5 2 16.5 6s11.167 6 12.5 6c8.66699 4.66699 18.5 18.334 29.5 41.001s21.167 35.334 30.5 38.001l3 -16l-35 -75
c-14.667 -26 -31.667 -39 -51 -39c-5.33301 -0 -9.66602 0.333008 -12.999 1zM292.001 916.99c-4 16 -7.66895 32 -11.002 48c-5.33301 22 -10.666 38.333 -15.999 49c-3.33301 -20 -8.16602 -38.167 -14.499 -54.5s-14.5 -32.833 -24.5 -49.5l-9 14
c10 16 18.333 33.833 25 53.5s11.667 44.5 15 74.5c10 -12.667 19.667 -33.667 29 -63c6.66699 -22 12 -44 16 -66z" />
    <glyph glyph-name="Udieresis" unicode="&#xdc;" horiz-adv-x="438" 
d="M367 1c-14 11.333 -26.332 28.4902 -36.999 51.4902s-18.667 47.833 -24 74.5s-8.83301 52.667 -10.5 78s-2.5 53 -2.5 83l-65 -166c-28.667 -62.667 -61.667 -100 -99 -112c-10.667 0 -21.334 5.33301 -32.001 16c-3.33301 3.33301 -19 26 -47 68
c-10 26 -17.167 51.333 -21.5 76s-6.5 49.334 -6.5 74.001c0 30.667 3.66699 64.334 11 101.001c4 21.333 11.667 52.333 23 93l94 300c-3.33301 13.333 -8.66602 21.333 -15.999 24c-18.667 -12 -35.834 -27.667 -51.501 -47s-29.834 -42.333 -42.501 -69
c-2.66699 0 -5.66699 -0.166992 -9 -0.5s-6.33301 2.16699 -9 7.5c4 36 17.333 67.333 40 94c18 20.667 41.333 38.334 70 53.001c18 0 32.333 -11.333 43 -34l5 -28c-5.33301 -40 -16.666 -86.333 -33.999 -139c-24 -74 -38 -119 -42 -135l-32 -124
c-10.667 -43.333 -16 -85.333 -16 -126v-37c2 -11.333 3.33301 -19.666 4 -24.999c4.66699 -16 10.334 -30.833 17.001 -44.5s14.667 -24.5 24 -32.5c8.66699 -4.66699 16.667 -7 24 -7c19.333 0 37.666 15.667 54.999 47l23 44
c25.333 48.667 49.666 112.334 72.999 191.001c5.33301 18 24 88.667 56 212c22 84.667 42.667 152.667 62 204c0 4.66699 1.66699 7 5 7h10c8.66699 -6 13 -14.333 13 -25c0 -2.66699 -1.16699 -8.16699 -3.5 -16.5s-3.5 -14.166 -3.5 -17.499l-61 -205
c-22 -84 -33 -161.333 -33 -232c0 -35.333 2.83301 -71.666 8.5 -108.999s14.167 -75.666 25.5 -114.999c6.66699 -9.33301 13 -14 19 -14c4 0 9.5 2 16.5 6s11.167 6 12.5 6c8.66699 4.66699 18.5 18.334 29.5 41.001s21.167 35.334 30.5 38.001l3 -16l-35 -75
c-14.667 -26 -31.667 -39 -51 -39c-5.33301 -0 -9.66602 0.333008 -12.999 1zM182.001 1017.99c6.66699 -8.66699 9.99902 -19.999 9.99902 -33.999c0 -8.66699 -1.66699 -17.167 -5 -25.5s-9.66602 -12.5 -18.999 -12.5c-5.33301 0 -10 2 -14 6
c-6.66699 7.33301 -10 18.666 -10 33.999c0 8.66699 1.33301 16 4 22c5.33301 11.333 12.333 17 21 17c4.66699 0 9 -2.33301 13 -7zM297 1014.99c6.66699 -8.66699 9.99902 -19.999 9.99902 -33.999c0 -8.66699 -1.66699 -17.167 -5 -25.5s-9.66602 -12.5 -18.999 -12.5
c-5.33301 0 -10 2 -14 6c-6.66699 8.66699 -10 20 -10 34c0 9.33301 1.33301 16.666 4 21.999c5.33301 11.333 12.333 17 21 17c4.66699 0 9 -2.33301 13 -7z" />
    <glyph glyph-name="Yacute" unicode="&#xdd;" horiz-adv-x="432" 
d="M244 -59c-14.667 -35.333 -26.665 -59.999 -35.998 -73.999c-17.333 -25.333 -37.333 -38 -60 -38c-6 0 -12.667 1 -20 3c-20.667 12 -39.167 30.667 -55.5 56s-28.5 54.666 -36.5 87.999c-2 12 -4.33301 27.667 -7 47s-4 38.333 -4 57c0 25.333 3.33301 47 10 65
c4.66699 0 8.66699 -2.66699 12 -8c4 -44.667 8.33301 -89 13 -133c9.33301 -54.667 28.666 -93 57.999 -115c7.33301 -2.66699 14.666 -4 21.999 -4c23.333 0 43 16 59 48c10 20.667 20 51.667 30 93l96 401l-3 1c-9.33301 -14 -25.333 -50 -48 -108
c-34 -87.333 -70.333 -131 -109 -131c-13.333 0 -27 3.66699 -41 11c-12.667 16 -23.667 35.167 -33 57.5s-14 44.5 -14 66.5c0 60 9 128.333 27 205l48 186c-1.33301 8 -4 14.167 -8 18.5s-7.66699 5.5 -11 3.5c-24.667 -14 -46.5 -32.5 -65.5 -55.5
s-37.167 -51.167 -54.5 -84.5c-5.33301 2.66699 -8 10.667 -8 24c0 7.33301 0.666992 14.333 2 21c10.667 32.667 26.667 61.334 48 86.001c8 9.33301 29 29.333 63 60c12.667 0 22 -0.5 28 -1.5s13 -4.83301 21 -11.5c11.333 -22 17 -46.333 17 -73
c0 -15.333 -1.16699 -28.666 -3.5 -39.999s-6.5 -26 -12.5 -44l-40 -146c-13.333 -50.667 -20 -98.334 -20 -143.001c2 -14 4.33301 -29 7 -45s8 -27.667 16 -35c8.66699 -15.333 18 -23 28 -23c4.66699 0 9.66699 1.16699 15 3.5s10.666 4.83301 15.999 7.5
c28 40.667 54.667 89 80 145c16.667 37.333 39.334 92.666 68.001 165.999c34.667 89.333 57.334 146.333 68.001 171c10 -6.66699 16 -12.334 18 -17.001v-35c-21.333 -65.333 -43 -143.666 -65 -234.999l-56 -249c-22.667 -101.333 -42.334 -182 -59.001 -242z
M218.002 791.001l-9 20l87 190l24 -5l3 -50z" />
    <glyph glyph-name="Thorn" unicode="&#xde;" horiz-adv-x="422" 
d="M56 516c0 66 -10.001 103.335 -30.001 112.002v16c8.66699 0 24.167 -0.666992 46.5 -2s34.5 -2 36.5 -2c8.66699 0 24.334 0.666992 47.001 2s35 2 37 2v-16c-11.333 -4.66699 -19.333 -15.834 -24 -33.501s-7 -43.167 -7 -76.5h61c54.667 0 99 -14 133 -42
c37.333 -30.667 56 -73.667 56 -129c0 -54.667 -18.667 -97.334 -56 -128.001c-34.667 -28.667 -79 -43 -133 -43h-61c0 -52 2.83301 -91.167 8.5 -117.5s18.167 -40.5 37.5 -42.5v-20c-11.333 0 -28 0.666992 -50 2s-38.333 2 -49 2s-27 -0.666992 -49 -2
s-38.667 -2 -50 -2v20c15.333 1.33301 26.833 12.833 34.5 34.5s11.5 68.167 11.5 139.5v326zM161.999 208.002h23c74.667 0 112 46.333 112 139c0 47.333 -8.83301 82.333 -26.5 105s-46.167 34 -85.5 34h-23v-278z" />
    <glyph glyph-name="germandbls" unicode="&#xdf;" horiz-adv-x="369" 
d="M228 122c-18.667 0 -33.6709 2.83691 -45.0039 8.50391s-20.333 16.167 -27 31.5l12 16c5.33301 -12 12.833 -20.167 22.5 -24.5s22.167 -6.5 37.5 -6.5c34.667 0 61.334 8 80.001 24c24 20.667 36 53.667 36 99s-4.66699 81.666 -14 108.999
s-23.666 50.666 -42.999 69.999l-60 37c-36 22.667 -54 39 -54 49c0 8 5 19.333 15 34l20 29c14 26.667 22.333 44 25 52c8 22 12 47 12 75c0 13.333 -1.66699 22 -5 26s-9.33301 6 -18 6c-51.333 0 -88 -28.667 -110 -86c-19.333 -50 -29 -125.333 -29 -226v-390h-15v390
c0 108.667 10.667 190 32 244c24.667 62 65.334 93 122.001 93c14 0 23.833 -4 29.5 -12s8.5 -23 8.5 -45c0 -26 -2.16699 -47.5 -6.5 -64.5s-16.166 -43.167 -35.499 -78.5c-7.33301 -8.66699 -13 -15.667 -17 -21c-8.66699 -10.667 -13 -19.334 -13 -26.001
s11.5 -16 34.5 -28s47.167 -24 72.5 -36c21.333 -21.333 37.333 -47.333 48 -78s16 -71.667 16 -123c0 -52.667 -13 -91.334 -39 -116.001c-22 -21.333 -52.667 -32 -92 -32z" />
    <glyph glyph-name="agrave" unicode="&#xe0;" horiz-adv-x="257" 
d="M210 84c2.66699 -2.66699 6 -5.33496 10 -8.00195s7.33301 -4.66699 10 -6c2 -3.33301 3.83301 -8.5 5.5 -15.5s2.5 -13.833 2.5 -20.5c0 -9.33301 -1.33301 -14 -4 -14s-5.5 0.333008 -8.5 1s-5.83301 1.66699 -8.5 3c-9.33301 8 -18.5 20.167 -27.5 36.5
s-18.833 42.5 -29.5 78.5c-11.333 -24.667 -20.333 -43.667 -27 -57c-22 -45.333 -44 -68 -66 -68c-9.33301 0 -18.666 3.33301 -27.999 10c-12 18 -20.5 36 -25.5 54s-7.5 36.667 -7.5 56c0 16 2 34.333 6 55l9 47c17.333 49.333 31.333 83 42 101
c19.333 32 43.333 48 72 48c5.33301 0 9.66602 -0.333008 12.999 -1c7.33301 -4.66699 14.666 -11.667 21.999 -21l20 -28c4.66699 2.66699 10.334 11.834 17.001 27.501s14.667 22.834 24 21.501l14 -18c-3.33301 -12 -11 -35 -23 -69
c-17.333 -49.333 -26 -90.333 -26 -123c0 -28 4.66699 -58 14 -90zM66 609.999l3 50l24 5l87 -190l-9 -20zM173 304.999l-16 22.002c-7.33301 2.66699 -14.333 4 -21 4c-15.333 0 -27.833 -6.33301 -37.5 -19s-24.167 -44 -43.5 -94c0 -8.66699 -1.33301 -19.667 -4 -33
c-6 -30.667 -9 -51.334 -9 -62.001c0 -8 0.5 -15.667 1.5 -23s4.16699 -17.333 9.5 -30c27.333 13.333 51 42.666 71 87.999l52 129z" />
    <glyph glyph-name="aacute" unicode="&#xe1;" horiz-adv-x="257" 
d="M210 84c2.66699 -2.66699 6 -5.33496 10 -8.00195s7.33301 -4.66699 10 -6c2 -3.33301 3.83301 -8.5 5.5 -15.5s2.5 -13.833 2.5 -20.5c0 -9.33301 -1.33301 -14 -4 -14s-5.5 0.333008 -8.5 1s-5.83301 1.66699 -8.5 3c-9.33301 8 -18.5 20.167 -27.5 36.5
s-18.833 42.5 -29.5 78.5c-11.333 -24.667 -20.333 -43.667 -27 -57c-22 -45.333 -44 -68 -66 -68c-9.33301 0 -18.666 3.33301 -27.999 10c-12 18 -20.5 36 -25.5 54s-7.5 36.667 -7.5 56c0 16 2 34.333 6 55l9 47c17.333 49.333 31.333 83 42 101
c19.333 32 43.333 48 72 48c5.33301 0 9.66602 -0.333008 12.999 -1c7.33301 -4.66699 14.666 -11.667 21.999 -21l20 -28c4.66699 2.66699 10.334 11.834 17.001 27.501s14.667 22.834 24 21.501l14 -18c-3.33301 -12 -11 -35 -23 -69
c-17.333 -49.333 -26 -90.333 -26 -123c0 -28 4.66699 -58 14 -90zM94 434.999l-9 20l87 190l24 -5l3 -50zM173 304.999l-16 22.002c-7.33301 2.66699 -14.333 4 -21 4c-15.333 0 -27.833 -6.33301 -37.5 -19s-24.167 -44 -43.5 -94c0 -8.66699 -1.33301 -19.667 -4 -33
c-6 -30.667 -9 -51.334 -9 -62.001c0 -8 0.5 -15.667 1.5 -23s4.16699 -17.333 9.5 -30c27.333 13.333 51 42.666 71 87.999l52 129z" />
    <glyph glyph-name="acircumflex" unicode="&#xe2;" horiz-adv-x="257" 
d="M210 84c2.66699 -2.66699 6 -5.33496 10 -8.00195s7.33301 -4.66699 10 -6c2 -3.33301 3.83301 -8.5 5.5 -15.5s2.5 -13.833 2.5 -20.5c0 -9.33301 -1.33301 -14 -4 -14s-5.5 0.333008 -8.5 1s-5.83301 1.66699 -8.5 3c-9.33301 8 -18.5 20.167 -27.5 36.5
s-18.833 42.5 -29.5 78.5c-11.333 -24.667 -20.333 -43.667 -27 -57c-22 -45.333 -44 -68 -66 -68c-9.33301 0 -18.666 3.33301 -27.999 10c-12 18 -20.5 36 -25.5 54s-7.5 36.667 -7.5 56c0 16 2 34.333 6 55l9 47c17.333 49.333 31.333 83 42 101
c19.333 32 43.333 48 72 48c5.33301 0 9.66602 -0.333008 12.999 -1c7.33301 -4.66699 14.666 -11.667 21.999 -21l20 -28c4.66699 2.66699 10.334 11.834 17.001 27.501s14.667 22.834 24 21.501l14 -18c-3.33301 -12 -11 -35 -23 -69
c-17.333 -49.333 -26 -90.333 -26 -123c0 -28 4.66699 -58 14 -90zM157 496.999c-4 16 -7.66895 32 -11.002 48c-5.33301 22 -10.666 38.333 -15.999 49c-3.33301 -20 -8.16602 -38.167 -14.499 -54.5s-14.5 -32.833 -24.5 -49.5l-9 14c10 16 18.333 33.833 25 53.5
s11.667 44.5 15 74.5c10 -12.667 19.667 -33.667 29 -63c6.66699 -22 12 -44 16 -66zM172.998 304.999l-16 22.002c-7.33301 2.66699 -14.333 4 -21 4c-15.333 0 -27.833 -6.33301 -37.5 -19s-24.167 -44 -43.5 -94c0 -8.66699 -1.33301 -19.667 -4 -33
c-6 -30.667 -9 -51.334 -9 -62.001c0 -8 0.5 -15.667 1.5 -23s4.16699 -17.333 9.5 -30c27.333 13.333 51 42.666 71 87.999l52 129z" />
    <glyph glyph-name="atilde" unicode="&#xe3;" horiz-adv-x="257" 
d="M210 84c2.66699 -2.66699 6 -5.33496 10 -8.00195s7.33301 -4.66699 10 -6c2 -3.33301 3.83301 -8.5 5.5 -15.5s2.5 -13.833 2.5 -20.5c0 -9.33301 -1.33301 -14 -4 -14s-5.5 0.333008 -8.5 1s-5.83301 1.66699 -8.5 3c-9.33301 8 -18.5 20.167 -27.5 36.5
s-18.833 42.5 -29.5 78.5c-11.333 -24.667 -20.333 -43.667 -27 -57c-22 -45.333 -44 -68 -66 -68c-9.33301 0 -18.666 3.33301 -27.999 10c-12 18 -20.5 36 -25.5 54s-7.5 36.667 -7.5 56c0 16 2 34.333 6 55l9 47c17.333 49.333 31.333 83 42 101
c19.333 32 43.333 48 72 48c5.33301 0 9.66602 -0.333008 12.999 -1c7.33301 -4.66699 14.666 -11.667 21.999 -21l20 -28c4.66699 2.66699 10.334 11.834 17.001 27.501s14.667 22.834 24 21.501l14 -18c-3.33301 -12 -11 -35 -23 -69
c-17.333 -49.333 -26 -90.333 -26 -123c0 -28 4.66699 -58 14 -90zM97 557.999l45.001 -0.000976562l44 12c12.667 5.33301 22.667 16.333 30 33v-15c-7.33301 -24 -14.333 -40 -21 -48s-19 -15 -37 -21h-55c-10.667 -3.33301 -19.5 -10.166 -26.5 -20.499
s-13.167 -24.5 -18.5 -42.5c5.33301 38.667 8.66602 60.667 9.99902 66c5.33301 19.333 15 31.333 29 36zM173.001 304.998l-16 22.002c-7.33301 2.66699 -14.333 4 -21 4c-15.333 0 -27.833 -6.33301 -37.5 -19s-24.167 -44 -43.5 -94c0 -8.66699 -1.33301 -19.667 -4 -33
c-6 -30.667 -9 -51.334 -9 -62.001c0 -8 0.5 -15.667 1.5 -23s4.16699 -17.333 9.5 -30c27.333 13.333 51 42.666 71 87.999l52 129z" />
    <glyph glyph-name="adieresis" unicode="&#xe4;" horiz-adv-x="257" 
d="M210 84c2.66699 -2.66699 6 -5.33496 10 -8.00195s7.33301 -4.66699 10 -6c2 -3.33301 3.83301 -8.5 5.5 -15.5s2.5 -13.833 2.5 -20.5c0 -9.33301 -1.33301 -14 -4 -14s-5.5 0.333008 -8.5 1s-5.83301 1.66699 -8.5 3c-9.33301 8 -18.5 20.167 -27.5 36.5
s-18.833 42.5 -29.5 78.5c-11.333 -24.667 -20.333 -43.667 -27 -57c-22 -45.333 -44 -68 -66 -68c-9.33301 0 -18.666 3.33301 -27.999 10c-12 18 -20.5 36 -25.5 54s-7.5 36.667 -7.5 56c0 16 2 34.333 6 55l9 47c17.333 49.333 31.333 83 42 101
c19.333 32 43.333 48 72 48c5.33301 0 9.66602 -0.333008 12.999 -1c7.33301 -4.66699 14.666 -11.667 21.999 -21l20 -28c4.66699 2.66699 10.334 11.834 17.001 27.501s14.667 22.834 24 21.501l14 -18c-3.33301 -12 -11 -35 -23 -69
c-17.333 -49.333 -26 -90.333 -26 -123c0 -28 4.66699 -58 14 -90zM95 562.999c6.66699 -8.66699 9.99902 -19.999 9.99902 -33.999c0 -8.66699 -1.66699 -17.167 -5 -25.5s-9.66602 -12.5 -18.999 -12.5c-5.33301 0 -10 2 -14 6c-6.66699 7.33301 -10 18.666 -10 33.999
c0 8.66699 1.33301 16 4 22c5.33301 11.333 12.333 17 21 17c4.66699 0 9 -2.33301 13 -7zM209.999 560c6.66699 -8.66699 9.99902 -19.999 9.99902 -33.999c0 -8.66699 -1.66699 -17.167 -5 -25.5s-9.66602 -12.5 -18.999 -12.5c-5.33301 0 -10 2 -14 6
c-6.66699 8.66699 -10 20 -10 34c0 9.33301 1.33301 16.666 4 21.999c5.33301 11.333 12.333 17 21 17c4.66699 0 9 -2.33301 13 -7zM172.998 305.001l-16 22.002c-7.33301 2.66699 -14.333 4 -21 4c-15.333 0 -27.833 -6.33301 -37.5 -19s-24.167 -44 -43.5 -94
c0 -8.66699 -1.33301 -19.667 -4 -33c-6 -30.667 -9 -51.334 -9 -62.001c0 -8 0.5 -15.667 1.5 -23s4.16699 -17.333 9.5 -30c27.333 13.333 51 42.666 71 87.999l52 129z" />
    <glyph glyph-name="aring" unicode="&#xe5;" horiz-adv-x="257" 
d="M210 84c2.66699 -2.66699 6 -5.33496 10 -8.00195s7.33301 -4.66699 10 -6c2 -3.33301 3.83301 -8.5 5.5 -15.5s2.5 -13.833 2.5 -20.5c0 -9.33301 -1.33301 -14 -4 -14s-5.5 0.333008 -8.5 1s-5.83301 1.66699 -8.5 3c-9.33301 8 -18.5 20.167 -27.5 36.5
s-18.833 42.5 -29.5 78.5c-11.333 -24.667 -20.333 -43.667 -27 -57c-22 -45.333 -44 -68 -66 -68c-9.33301 0 -18.666 3.33301 -27.999 10c-12 18 -20.5 36 -25.5 54s-7.5 36.667 -7.5 56c0 16 2 34.333 6 55l9 47c17.333 49.333 31.333 83 42 101
c19.333 32 43.333 48 72 48c5.33301 0 9.66602 -0.333008 12.999 -1c7.33301 -4.66699 14.666 -11.667 21.999 -21l20 -28c4.66699 2.66699 10.334 11.834 17.001 27.501s14.667 22.834 24 21.501l14 -18c-3.33301 -12 -11 -35 -23 -69
c-17.333 -49.333 -26 -90.333 -26 -123c0 -28 4.66699 -58 14 -90zM182 533.999c0 -18 -3.33203 -32.667 -9.99902 -44s-15.334 -17 -26.001 -17s-19.5 5.83301 -26.5 17.5s-10.5 26.167 -10.5 43.5s3.5 31.833 10.5 43.5s15.833 17.5 26.5 17.5c10 0 18.5 -6 25.5 -18
s10.5 -26.333 10.5 -43zM173.001 304.999l-16 22.002c-7.33301 2.66699 -14.333 4 -21 4c-15.333 0 -27.833 -6.33301 -37.5 -19s-24.167 -44 -43.5 -94c0 -8.66699 -1.33301 -19.667 -4 -33c-6 -30.667 -9 -51.334 -9 -62.001c0 -8 0.5 -15.667 1.5 -23
s4.16699 -17.333 9.5 -30c27.333 13.333 51 42.666 71 87.999l52 129zM124.001 534.001c0 -10.667 2 -19.5 6 -26.5s9.33301 -10.5 16 -10.5c8 0 14 5.33301 18 16c2 5.33301 3 12.333 3 21c0 10 -2 18.667 -6 26s-9 11 -15 11c-6.66699 0 -12 -3.33301 -16 -10
s-6 -15.667 -6 -27z" />
    <glyph glyph-name="ae" unicode="&#xe6;" horiz-adv-x="378" 
d="M210 84c2.66699 -2.66699 6 -5.33496 10 -8.00195s7.33301 -4.66699 10 -6c2 -3.33301 3.83301 -8.5 5.5 -15.5s2.5 -13.833 2.5 -20.5c0 -9.33301 -1.33301 -14 -4 -14s-5.5 0.333008 -8.5 1s-5.83301 1.66699 -8.5 3c-9.33301 8 -18.5 20.167 -27.5 36.5
s-18.833 42.5 -29.5 78.5c-11.333 -24.667 -20.333 -43.667 -27 -57c-22 -45.333 -44 -68 -66 -68c-9.33301 0 -18.666 3.33301 -27.999 10c-12 18 -20.5 36 -25.5 54s-7.5 36.667 -7.5 56c0 16 2 34.333 6 55l9 47c17.333 49.333 31.333 83 42 101
c19.333 32 43.333 48 72 48c5.33301 0 9.66602 -0.333008 12.999 -1c7.33301 -4.66699 14.666 -11.667 21.999 -21l20 -28c4.66699 2.66699 10.334 11.834 17.001 27.501s14.667 22.834 24 21.501l14 -18c-3.33301 -12 -11 -35 -23 -69
c-17.333 -49.333 -26 -90.333 -26 -123c0 -28 4.66699 -58 14 -90zM270 18.999c-10 2.66699 -19.002 12.001 -27.002 28.001c-16 32 -24.333 48.333 -25 49c-0.666992 6 -1.16699 12 -1.5 18s-2.16602 18.667 -5.49902 38c0 51.333 8 95.666 24 132.999s38 65 66 83
c9.33301 2 17.666 1.16699 24.999 -2.5s14.333 -11.5 21 -23.5c3.33301 -16.667 5 -30.667 5 -42c0 -26.667 -6.66699 -54.334 -20 -83.001l-33 -65l-40 -61c3.33301 -10.667 7 -18.667 11 -24s10.333 -10.666 19 -15.999c26 0 46 6.66699 60 20
c2.66699 -7.33301 4.33398 -13 5.00098 -17c3.33301 -13.333 4.33301 -24 3 -32l-25 -13c-11.333 -6 -20.666 -9 -27.999 -9c-10.667 0 -22 6.33301 -34 19zM172.998 305l-16 22.002c-7.33301 2.66699 -14.333 4 -21 4c-15.333 0 -27.833 -6.33301 -37.5 -19
s-24.167 -44 -43.5 -94c0 -8.66699 -1.33301 -19.667 -4 -33c-6 -30.667 -9 -51.334 -9 -62.001c0 -8 0.5 -15.667 1.5 -23s4.16699 -17.333 9.5 -30c27.333 13.333 51 42.666 71 87.999l52 129zM301.998 324.002c-21.333 -37.333 -33.333 -59.002 -36 -65.002
c-12 -26 -18 -52.333 -18 -79c0 -4.66699 0.333008 -9.66699 1 -15s1 -9.66602 1 -12.999l36 59c2 6.66699 8.66699 20.334 20 41.001c9.33301 16.667 14 33 14 49c0 7.33301 -1 15 -3 23h-15z" />
    <glyph glyph-name="ccedilla" unicode="&#xe7;" horiz-adv-x="217" 
d="M64 26c-12.667 9.33301 -23.333 23.8311 -32 43.498s-15.334 40.834 -20.001 63.501l-1 25v31c0 14 0.5 23.833 1.5 29.5s3.5 15.834 7.5 30.501l41 80c16.667 26.667 35.334 40 56.001 40c14 0 30.333 -6.33301 49 -19c4.66699 -4.66699 8 -10.334 10 -17.001
s3 -12.667 3 -18c-0.666992 -12 -1 -21 -1 -27c0 -5.33301 0.333008 -9.33301 1 -12c-3.33301 -12 -5.66602 -20 -6.99902 -24c-5.33301 -13.333 -12.666 -20 -21.999 -20c-5.33301 6 -8 13.667 -8 23c0 6 1.5 14.667 4.5 26s4.5 19 4.5 23c0 13.333 -7.66699 24.333 -23 33
c-23.333 -12 -43.166 -34.833 -59.499 -68.5s-24.5 -71.5 -24.5 -113.5c0 -12 1.16699 -24.167 3.5 -36.5s6.66602 -24.166 12.999 -35.499s13.5 -20 21.5 -26c14 -5.33301 26.667 -8 38 -8c24.667 0 48 10.333 70 31c6.66699 -0.666992 11.167 -5 13.5 -13
s3.5 -15.667 3.5 -23c-12 -13.333 -24.667 -24 -38 -32s-27.333 -12 -42 -12c-12 0 -24.667 3 -38 9l-9 -30c3.33301 2 8 3 14 3c7.33301 0 13.666 -3.5 18.999 -10.5s8 -18.167 8 -33.5c0 -17.333 -4.16699 -30 -12.5 -38s-17.833 -12 -28.5 -12
c-12.667 0 -24.334 3.33301 -35.001 10l5 21c10.667 -4 19 -6 25 -6s10.833 1.5 14.5 4.5s5.5 9.16699 5.5 18.5c0 6.66699 -1.66699 12 -5 16s-7 6 -11 6c-4.66699 0 -9 -1 -13 -3l-4 5l15 56z" />
    <glyph glyph-name="egrave" unicode="&#xe8;" horiz-adv-x="161" 
d="M66 19c-10 2.66699 -19.002 12.001 -27.002 28.001c-16 32 -24.333 48.333 -25 49c-0.666992 6 -1.16699 12 -1.5 18s-2.16602 18.667 -5.49902 38c0 51.333 8 95.666 24 132.999s38 65 66 83c9.33301 2 17.666 1.16699 24.999 -2.5s14.333 -11.5 21 -23.5
c3.33301 -16.667 5 -30.667 5 -42c0 -26.667 -6.66699 -54.334 -20 -83.001l-33 -65l-40 -61c3.33301 -10.667 7 -18.667 11 -24s10.333 -10.666 19 -15.999c26 0 46 6.66699 60 20c2.66699 -7.33301 4.33398 -13 5.00098 -17c3.33301 -13.333 4.33301 -24 3 -32l-25 -13
c-11.333 -6 -20.666 -9 -27.999 -9c-10.667 -0 -22 6.33301 -34 19zM22.998 588.001l3 50l24 5l87 -190l-9 -20zM97.998 324.001c-21.333 -37.333 -33.333 -59.002 -36 -65.002c-12 -26 -18 -52.333 -18 -79c0 -4.66699 0.333008 -9.66699 1 -15s1 -9.66602 1 -12.999l36 59
c2 6.66699 8.66699 20.334 20 41.001c9.33301 16.667 14 33 14 49c0 7.33301 -1 15 -3 23h-15z" />
    <glyph glyph-name="eacute" unicode="&#xe9;" horiz-adv-x="161" 
d="M66 19c-10 2.66699 -19.002 12.001 -27.002 28.001c-16 32 -24.333 48.333 -25 49c-0.666992 6 -1.16699 12 -1.5 18s-2.16602 18.667 -5.49902 38c0 51.333 8 95.666 24 132.999s38 65 66 83c9.33301 2 17.666 1.16699 24.999 -2.5s14.333 -11.5 21 -23.5
c3.33301 -16.667 5 -30.667 5 -42c0 -26.667 -6.66699 -54.334 -20 -83.001l-33 -65l-40 -61c3.33301 -10.667 7 -18.667 11 -24s10.333 -10.666 19 -15.999c26 0 46 6.66699 60 20c2.66699 -7.33301 4.33398 -13 5.00098 -17c3.33301 -13.333 4.33301 -24 3 -32l-25 -13
c-11.333 -6 -20.666 -9 -27.999 -9c-10.667 -0 -22 6.33301 -34 19zM34.998 391.001l-9 20l87 190l24 -5l3 -50zM97.998 324.001c-21.333 -37.333 -33.333 -59.002 -36 -65.002c-12 -26 -18 -52.333 -18 -79c0 -4.66699 0.333008 -9.66699 1 -15s1 -9.66602 1 -12.999l36 59
c2 6.66699 8.66699 20.334 20 41.001c9.33301 16.667 14 33 14 49c0 7.33301 -1 15 -3 23h-15z" />
    <glyph glyph-name="ecircumflex" unicode="&#xea;" horiz-adv-x="161" 
d="M66 19c-10 2.66699 -19.002 12.001 -27.002 28.001c-16 32 -24.333 48.333 -25 49c-0.666992 6 -1.16699 12 -1.5 18s-2.16602 18.667 -5.49902 38c0 51.333 8 95.666 24 132.999s38 65 66 83c9.33301 2 17.666 1.16699 24.999 -2.5s14.333 -11.5 21 -23.5
c3.33301 -16.667 5 -30.667 5 -42c0 -26.667 -6.66699 -54.334 -20 -83.001l-33 -65l-40 -61c3.33301 -10.667 7 -18.667 11 -24s10.333 -10.666 19 -15.999c26 0 46 6.66699 60 20c2.66699 -7.33301 4.33398 -13 5.00098 -17c3.33301 -13.333 4.33301 -24 3 -32l-25 -13
c-11.333 -6 -20.666 -9 -27.999 -9c-10.667 -0 -22 6.33301 -34 19zM112.998 432.001c-3.33301 16 -6.99902 32 -10.999 48c-6 22.667 -11.333 39 -16 49c-2.66699 -20.667 -7.16699 -39 -13.5 -55s-14.833 -32.333 -25.5 -49l-8 14c10.667 18 19.167 36.333 25.5 55
s11.166 43 14.499 73c10 -12.667 19.667 -33.667 29 -63c6.66699 -22 12 -44 16 -66zM97.999 324.001c-21.333 -37.333 -33.333 -59.002 -36 -65.002c-12 -26 -18 -52.333 -18 -79c0 -4.66699 0.333008 -9.66699 1 -15s1 -9.66602 1 -12.999l36 59
c2 6.66699 8.66699 20.334 20 41.001c9.33301 16.667 14 33 14 49c0 7.33301 -1 15 -3 23h-15z" />
    <glyph glyph-name="edieresis" unicode="&#xeb;" horiz-adv-x="161" 
d="M66 19c-10 2.66699 -19.002 12.001 -27.002 28.001c-16 32 -24.333 48.333 -25 49c-0.666992 6 -1.16699 12 -1.5 18s-2.16602 18.667 -5.49902 38c0 51.333 8 95.666 24 132.999s38 65 66 83c9.33301 2 17.666 1.16699 24.999 -2.5s14.333 -11.5 21 -23.5
c3.33301 -16.667 5 -30.667 5 -42c0 -26.667 -6.66699 -54.334 -20 -83.001l-33 -65l-40 -61c3.33301 -10.667 7 -18.667 11 -24s10.333 -10.666 19 -15.999c26 0 46 6.66699 60 20c2.66699 -7.33301 4.33398 -13 5.00098 -17c3.33301 -13.333 4.33301 -24 3 -32l-25 -13
c-11.333 -6 -20.666 -9 -27.999 -9c-10.667 -0 -22 6.33301 -34 19zM38.998 508.001c6.66699 -8.66699 9.99902 -19.999 9.99902 -33.999c0 -8.66699 -1.66699 -17.167 -5 -25.5s-9.66602 -12.5 -18.999 -12.5c-5.33301 0 -10 2 -14 6c-6.66699 8.66699 -10 20 -10 34
c0 9.33301 1.33301 16.666 4 21.999c5.33301 11.333 12.333 17 21 17c4.66699 0 9 -2.33301 13 -7zM153.997 505.002c6.66699 -8.66699 10 -20 10 -34c0 -8.66699 -1.66699 -17.167 -5 -25.5s-9.66602 -12.5 -18.999 -12.5c-4.66699 0 -9 2 -13 6
c-6.66699 7.33301 -10 18.666 -10 33.999c0 8.66699 1.66699 17.334 5 26.001s9.66602 13 18.999 13c4.66699 0 9 -2.33301 13 -7zM97.9971 324.002c-21.333 -37.333 -33.333 -59.002 -36 -65.002c-12 -26 -18 -52.333 -18 -79c0 -4.66699 0.333008 -9.66699 1 -15
s1 -9.66602 1 -12.999l36 59c2 6.66699 8.66699 20.334 20 41.001c9.33301 16.667 14 33 14 49c0 7.33301 -1 15 -3 23h-15z" />
    <glyph glyph-name="igrave" unicode="&#xec;" horiz-adv-x="135" 
d="M73 20c-2.66699 -13.333 -8.66699 -20.001 -18 -20.001c-10 0 -20.5 7.33301 -31.5 22s-16.5 30 -16.5 46c10.667 22 25.667 77.333 45 166c9.33301 43.333 19.333 78 30 104c7.33301 2.66699 14.333 -1.33301 21 -12c0 -28.667 -3.33301 -60 -10 -94
c-16 -82 -24 -134 -24 -156v-23.5c0 -6.33301 1.33301 -17.166 4 -32.499zM16 539.999l3 50l24 5l87 -190l-9 -20z" />
    <glyph glyph-name="iacute" unicode="&#xed;" horiz-adv-x="135" 
d="M73 20c-2.66699 -13.333 -8.66699 -20.001 -18 -20.001c-10 0 -20.5 7.33301 -31.5 22s-16.5 30 -16.5 46c10.667 22 25.667 77.333 45 166c9.33301 43.333 19.333 78 30 104c7.33301 2.66699 14.333 -1.33301 21 -12c0 -28.667 -3.33301 -60 -10 -94
c-16 -82 -24 -134 -24 -156v-23.5c0 -6.33301 1.33301 -17.166 4 -32.499zM46 357.999l-9 20l87 190l24 -5l3 -50z" />
    </font>
</defs>
</svg>
